<svg xmlns="http://www.w3.org/2000/svg" width="98" height="28" viewBox="0 0 98 28">
    <defs>
        <linearGradient id="a" x1="0%" y1="0%" y2="100%">
            <stop offset="0%" stop-color="#00C4FF"/>
            <stop offset="100%" stop-color="#0091FF"/>
        </linearGradient>
    </defs>
    <g fill="none" fill-rule="evenodd">
        <path fill="#373A45" d="M75.521 22.068c-.907 0-1.36-.707-1.36-2.12v-4.966c0-.283.09-.424.272-.424h2.138c.532 0 .798-.25.798-.747 0-.47-.247-.707-.74-.707H74.51c-.233 0-.35-.1-.35-.303v-2.16c0-.511-.233-.767-.7-.767-.505 0-.758.256-.758.767v2.08c0 .255-.11.383-.33.383h-.758c-.169 0-.32.074-.457.222a.727.727 0 0 0-.204.505c0 .202.07.373.208.515.14.141.316.212.528.212h.636c.252 0 .377.141.377.424v4.845c0 1.198.161 2.046.483 2.544.438.686 1.172 1.029 2.202 1.029 1.12 0 1.924-.39 2.413-1.17.36-.58.54-1.602.54-3.07 0-.618-.226-.928-.68-.928-.454 0-.687.276-.7.828v1.292c-.04 1.144-.52 1.716-1.439 1.716m-15.63-.142c-.078 0-.195-.01-.35-.03a2.935 2.935 0 0 0-.35-.03c-.467 0-.7.222-.7.666 0 .458.272.686.816.686.208 0 .532-.027.972-.08.324-.04.603-.06.836-.06.298 0 .642.02 1.03.06l.778.08h.273c.557 0 .836-.215.836-.646 0-.47-.28-.706-.836-.706-.091 0-.227.013-.409.04-.181.027-.317.04-.408.04-.13 0-.194-.033-.194-.1 0-.054.045-.135.136-.243l2.197-2.624 2.158 2.624.058.081c.04.04.059.08.059.121 0 .108-.065.162-.195.162a.326.326 0 0 1-.136-.02 4.527 4.527 0 0 0-.72-.08c-.48 0-.719.234-.719.705 0 .431.305.646.914.646h.214l.7-.08c.35-.04.7-.06 1.05-.06.414 0 .725.013.933.04l.758.1h.156c.544 0 .816-.235.816-.706 0-.431-.233-.646-.7-.646-.077 0-.198.013-.36.04-.162.027-.281.04-.359.04-.26 0-.48-.114-.66-.344l-3.034-3.724 2.264-2.672c.546-.647.975-.971 1.288-.971.104 0 .253.023.449.07.195.048.345.07.449.07.442 0 .663-.218.663-.655 0-.45-.285-.676-.855-.676-.156 0-.415.023-.778.07-.363.048-.707.071-1.03.071-.324 0-.63-.013-.914-.04a47.878 47.878 0 0 1-1.03-.101c-.545 0-.817.219-.817.656 0 .45.23.676.69.676.077 0 .189-.023.336-.07.147-.048.253-.071.317-.071.05 0 .083.014.096.04 0 .056-.059.151-.175.288l-1.847 2.256-1.77-2.256a.907.907 0 0 1-.175-.287c0-.027.026-.041.078-.041h.117l.292.094c.09.031.187.047.291.047.493 0 .739-.215.739-.646 0-.457-.266-.686-.797-.686a9.03 9.03 0 0 0-.933.07c-.416.048-.733.071-.953.071a5.12 5.12 0 0 1-.817-.08c-.635-.041-.959-.061-.971-.061h-.06c-.53 0-.796.229-.796.686 0 .43.214.646.641.646.13 0 .22-.008.273-.023l.33-.095a.849.849 0 0 1 .233-.023c.26 0 .48.108.662.324l2.702 3.329-2.702 3.226c-.454.542-.804.812-1.05.812m-8.322-7.076c.596-.545 1.257-.817 1.983-.817.7 0 1.31.262 1.828.787s.778 1.144.778 1.858c0 .188-.137.282-.409.282h-4.646c-.286 0-.428-.094-.428-.282 0-.673.298-1.282.894-1.828m4.977-.878c-.79-.848-1.795-1.272-3.013-1.272-1.374 0-2.489.512-3.344 1.535-.856 1.023-1.283 2.355-1.283 3.997 0 1.602.401 2.876 1.205 3.826.804.949 1.886 1.423 3.247 1.423 1.089 0 2.06-.34 2.916-1.02.856-.68 1.283-1.456 1.283-2.331 0-.512-.24-.767-.719-.767-.337 0-.551.16-.642.484l-.175.586c-.142.497-.45.908-.923 1.23a2.716 2.716 0 0 1-1.565.485c-.869 0-1.594-.336-2.178-1.01-.583-.672-.874-1.513-.874-2.523 0-.107.026-.184.077-.232.052-.047.162-.07.33-.07h6.184c.31 0 .498-.057.563-.172.065-.114.097-.427.097-.938 0-1.306-.395-2.383-1.186-3.23m-11.451 8.095c-.907 0-1.36-.707-1.36-2.12v-4.966c0-.283.09-.424.272-.424h2.138c.532 0 .797-.25.797-.747 0-.47-.246-.707-.738-.707h-2.12c-.233 0-.35-.1-.35-.303v-2.16c0-.511-.233-.767-.7-.767-.505 0-.758.256-.758.767v2.08c0 .255-.11.383-.33.383h-.759c-.168 0-.32.074-.456.222a.727.727 0 0 0-.205.505c0 .202.07.373.21.515.138.141.314.212.526.212h.636c.252 0 .378.141.378.424v4.845c0 1.198.161 2.046.483 2.544.437.686 1.171 1.029 2.201 1.029 1.12 0 1.925-.39 2.414-1.17.36-.58.54-1.602.54-3.07 0-.618-.226-.928-.68-.928-.454 0-.687.276-.7.828v1.292c-.04 1.144-.52 1.716-1.44 1.716m-11.44-7.45a2.583 2.583 0 0 1 1.662-.585c1.84 0 2.761 1.346 2.761 4.038 0 1.305-.256 2.311-.768 3.018-.512.706-1.235 1.06-2.168 1.06-.622 0-1.144-.162-1.565-.485-.421-.323-.703-.69-.846-1.1-.142-.411-.213-1.067-.213-1.969v-.283c.012-.147.02-.248.02-.302.012-.754.077-1.393.193-1.918a2.54 2.54 0 0 1 .924-1.474m-1.701-1.554c-.104 0-.266.01-.486.03-.22.02-.39.03-.506.03-.155 0-.395-.013-.72-.04a6.151 6.151 0 0 0-.466-.02c-.57 0-.855.215-.855.646 0 .444.237.666.713.666.102 0 .246-.023.433-.07a1.9 1.9 0 0 1 .414-.071c.321 0 .488.31.5.928v7.793c-.012 1.198-.048 1.928-.105 2.19-.058.263-.21.394-.453.394-.103 0-.263-.023-.481-.069a2.03 2.03 0 0 0-.366-.052c-.437 0-.655.212-.655.636 0 .185.077.348.232.488.155.139.343.208.562.208.168 0 .51-.033 1.027-.1.207-.028.465-.04.775-.04.568 0 .994.02 1.279.06.387.053.678.08.872.08.542 0 .813-.222.813-.666 0-.444-.207-.666-.622-.666-.09 0-.227.02-.408.06a2.09 2.09 0 0 1-.408.061c-.299 0-.487-.209-.564-.626-.026-.148-.039-.478-.039-.99V22.25c.7.822 1.614 1.232 2.741 1.232 1.361 0 2.447-.508 3.257-1.524.81-1.017 1.215-2.38 1.215-4.089 0-1.587-.383-2.846-1.147-3.775-.765-.928-1.796-1.393-3.092-1.393-1.257 0-2.248.526-2.974 1.575v-.646c0-.377-.163-.565-.486-.565m-5.609-1.403c.214-.222.32-.488.32-.798 0-.309-.106-.572-.32-.787a1.046 1.046 0 0 0-.768-.323c-.298 0-.554.108-.768.323-.214.215-.32.478-.32.787 0 .31.106.576.32.798.214.222.47.333.768.333.298 0 .554-.111.768-.333m.259 3.926c.01-.727.02-1.144.03-1.251 0-.054.006-.135.016-.243.01-.107.016-.188.016-.242 0-.525-.188-.787-.564-.787-.104 0-.262.017-.476.05-.214.034-.373.05-.477.05-.117 0-.382-.026-.797-.08a4.817 4.817 0 0 0-.525-.02c-.57 0-.855.229-.855.686 0 .431.235.646.706.646.091 0 .232-.023.422-.07.19-.047.337-.071.441-.071.327 0 .523.424.589 1.272v5.168c-.066.861-.256 1.292-.57 1.292-.104 0-.258-.02-.46-.06a2.55 2.55 0 0 0-.461-.06c-.445 0-.667.221-.667.665 0 .458.26.686.78.686.17 0 .507-.033 1.014-.1.417-.054.794-.081 1.132-.081.208 0 .523.03.946.09.423.061.738.091.946.091a.93.93 0 0 0 .615-.202.609.609 0 0 0 .244-.484c0-.444-.247-.666-.739-.666a.8.8 0 0 0-.292.04c-.26.068-.421.101-.486.101-.285 0-.46-.303-.524-.908-.014-.122-.02-.518-.02-1.191v-2.625c0-.579.005-1.144.016-1.696m-10.281-2.543a1.2 1.2 0 0 0-.37.05c-.233.034-.402.05-.505.05-.13 0-.325-.016-.584-.05a4.99 4.99 0 0 0-.583-.05c-.557 0-.836.235-.836.706 0 .431.214.646.642.646.103 0 .246-.02.427-.06.182-.04.324-.061.428-.061.35 0 .545.397.583 1.191l.059 4.583v1.03c-.026.619-.203.928-.53.928-.052 0-.144-.013-.275-.04l-.294-.06a1.554 1.554 0 0 0-.294-.021c-.497 0-.746.209-.746.626 0 .471.265.706.795.706l1.085-.1c.297-.027.704-.04 1.22-.04.194 0 .488.022.882.07.394.047.688.07.881.07h.078c.53 0 .795-.231.795-.696 0-.424-.208-.636-.622-.636-.104 0-.227.017-.37.052-.181.046-.356.07-.525.07-.337 0-.538-.385-.603-1.152-.012-.107-.02-.612-.02-1.514V18.01c0-1.17.104-2.046.312-2.625.337-.942 1.011-1.413 2.022-1.413.493 0 .904.135 1.235.404.33.27.495.599.495.99 0 .134-.039.282-.116.443-.13-.04-.214-.06-.253-.06a.72.72 0 0 0-.544.252.825.825 0 0 0-.234.575c0 .27.104.498.311.687.208.188.46.282.759.282.466 0 .842-.184 1.127-.555.285-.37.428-.85.428-1.443 0-.835-.282-1.517-.846-2.05-.564-.53-1.3-.797-2.206-.797-1.128 0-2.029.492-2.703 1.474v-.555c0-.383-.169-.575-.505-.575m-13.23-1.797c-1.07 1.346-1.605 3.116-1.605 5.31 0 2.126.522 3.828 1.566 5.107 1.043 1.279 2.44 1.918 4.19 1.918 1.516 0 2.753-.458 3.713-1.373.959-.915 1.439-2.093 1.439-3.533 0-.619-.266-.929-.798-.929-.493 0-.738.31-.738.929 0 .66-.078 1.184-.234 1.575-.233.592-.638 1.07-1.215 1.433a3.589 3.589 0 0 1-1.954.545c-1.335 0-2.375-.515-3.12-1.544-.746-1.03-1.118-2.466-1.118-4.31 0-1.804.362-3.217 1.086-4.24.723-1.023 1.725-1.534 3.005-1.534.983 0 1.778.3 2.385.9.608.601.899 1.382.873 2.343v.72c-.013.575.233.862.739.862.466 0 .7-.303.7-.909v-.202l-.09-.767a9.54 9.54 0 0 1-.066-1.11c0-.256.04-.72.117-1.393.026-.538.039-.861.039-.97 0-.564-.214-.847-.641-.847-.403 0-.604.235-.604.703 0-.028.013.11.04.413a.9.9 0 0 0 .038.145v.455C9.932 9.8 8.759 9.228 7.32 9.228c-1.75 0-3.16.673-4.229 2.019"/>
        <path fill="url(#a)" d="M86.9.222c-4.719.133-8.464 3.33-8.364 7.145.034 1.324.529 2.549 1.358 3.578h-.002c1.425 1.721.098 4.866.098 4.866l4.24-2.141c.946.26 1.967.389 3.03.36 4.653-.131 8.36-3.242 8.367-6.986v-.021c0-.046 0-.092-.002-.138-.096-3.73-3.838-6.667-8.42-6.667-.1 0-.202.002-.304.004" transform="translate(1.25 1.285)"/>
        <path fill="#FFF" d="M86.031 7.03c.009-1.584.878-2.859 2.57-2.834 1.701.026 2.53 1.224 2.54 2.835l-.912-.006c-.057-.851-.542-1.89-1.633-1.897-1.131-.006-1.597.996-1.65 1.903h-.915zm5.11 4.736H85.99a.537.537 0 0 1-.526-.545V7.93c0-.3.237-.546.526-.546h5.151c.29 0 .526.246.526.546v3.29c0 .3-.237.546-.526.546z"/>
        <path fill="#009EFF" d="M88.757 9.844l.355.963-1.093-.003.368-.963a.617.617 0 0 1-.392-.586c.002-.334.261-.607.584-.605.32.001.578.267.575.6 0 .269-.168.515-.397.594"/>
    </g>
</svg>
