<svg xmlns="http://www.w3.org/2000/svg" width="18" height="18" viewBox="0 0 18 18">
    <path fill="#85878D" fill-rule="evenodd" d="M13.697 5.918a1.144 1.144 0 0 1-1.615-1.615 1.144 1.144 0 0 1 1.615 1.615m1.078-2.693a4.194 4.194 0 0 0-5.925 0 4.188 4.188 0 0 0-1.02 4.252l-4.718 4.718a.38.38 0 0 0-.112.27v2.154c0 .21.17.381.38.381h2.155a.38.38 0 0 0 .27-.112l.538-.539a.38.38 0 0 0 .11-.313l-.068-.578.802-.076a.38.38 0 0 0 .344-.343l.075-.802.579.067a.382.382 0 0 0 .425-.378v-.71h.696a.38.38 0 0 0 .269-.11l.977-.965c1.491.484 3.107.126 4.223-.991a4.194 4.194 0 0 0 0-5.925"/>
</svg>
