<svg xmlns="http://www.w3.org/2000/svg" width="100" height="118" viewBox="0 0 100 118">
    <g fill="none" fill-rule="evenodd">
        <path fill="#CBDFFA" d="M87.145 25.332c-15.937 0-28.143-4.472-38.467-14.332-10.323 9.86-22.53 14.332-38.467 14.332 0 25.68-5.406 62.47 38.467 77.41 43.878-14.94 38.467-51.73 38.467-77.41"/>
        <path fill="#76AEFF" d="M48.678 11v92c44.24-14.983 38.787-51.875 38.787-77.627-16.07 0-28.377-4.486-38.787-14.373" opacity=".392"/>
        <path fill="#404349" d="M53.775 70l-10.364-.023 3.49-8.93c-2.173-.752-3.734-2.954-3.722-5.436.015-3.094 2.48-5.636 5.543-5.61 3.03.006 5.477 2.47 5.456 5.557-.004 2.493-1.592 4.779-3.775 5.51L53.775 70z"/>
        <path fill="#36393D" d="M48.726 50c-.015 0-.03.005-.048.005v19.983l5.56.012-3.678-8.933c2.381-.73 4.113-3.013 4.118-5.509.023-3.085-2.644-5.549-5.952-5.558z"/>
    </g>
</svg>
