<?xml version="1.0" encoding="utf-8"?>
<!-- Generator: Adobe Illustrator 22.0.1, SVG Export Plug-In . SVG Version: 6.00 Build 0)  -->
<svg version="1.1" id="Layer_1" xmlns="http://www.w3.org/2000/svg" xmlns:xlink="http://www.w3.org/1999/xlink" x="0px" y="0px"
	 viewBox="0 0 862 296.9" style="enable-background:new 0 0 862 296.9;" xml:space="preserve">
<style type="text/css">
	.st0{fill:#FFFFFF;}
	.st1{fill:#BDEEFF;}
	.st2{font-family:'Lato-BoldItalic';}
	.st3{font-size:83.4776px;}
</style>
<g>
	<path class="st0" d="M14.5,84.7C4.8,96.4,0,111.8,0,130.8c0,18.5,4.7,33.3,14.1,44.4c9.4,11.1,22,16.7,37.8,16.7
		c13.7,0,24.9-4,33.5-11.9c8.7-8,13-18.2,13-30.7c0-5.4-2.4-8.1-7.2-8.1c-4.4,0-6.7,2.7-6.7,8.1c0,5.7-0.7,10.3-2.1,13.7
		c-2.1,5.1-5.8,9.3-11,12.5c-5.2,3.2-11.1,4.7-17.6,4.7c-12.1,0-21.4-4.5-28.2-13.4c-6.7-8.9-10.1-21.4-10.1-37.5
		c0-15.7,3.3-28,9.8-36.9C32,83.5,41,79.1,52.5,79.1c8.9,0,16,2.6,21.5,7.8c5.5,5.2,8.1,12,7.9,20.4v6.3c-0.1,5,2.1,7.5,6.7,7.5
		c4.2,0,6.3-2.6,6.3-7.9v-1.8l-0.8-6.7c-0.4-3.3-0.6-6.5-0.6-9.7c0-2.2,0.4-6.3,1.1-12.1c0.2-4.7,0.4-7.5,0.4-8.4
		c0-4.9-1.9-7.4-5.8-7.4c-3.6,0-5.4,2-5.4,6.1c0-0.2,0.1,1,0.4,3.6c0,0.1,0.1,0.5,0.4,1.3c0,0.7,0,1.4,0,2v2
		c-8.2-9.9-18.8-14.9-31.8-14.9C36.9,67.1,24.1,73,14.5,84.7z M133.9,100.3c-1.3,0-2.4,0.1-3.3,0.4c-2.1,0.3-3.6,0.4-4.6,0.4
		c-1.2,0-2.9-0.1-5.3-0.4c-2.3-0.3-4.1-0.4-5.3-0.4c-5,0-7.5,2-7.5,6.1c0,3.7,1.9,5.6,5.8,5.6c0.9,0,2.2-0.2,3.9-0.5
		c1.6-0.4,2.9-0.5,3.9-0.5c3.2,0,4.9,3.5,5.3,10.4l0.5,39.8v8.9c-0.2,5.4-1.8,8.1-4.8,8.1c-0.5,0-1.3-0.1-2.5-0.4l-2.7-0.5
		c-0.6-0.1-1.5-0.2-2.7-0.2c-4.5,0-6.7,1.8-6.7,5.4c0,4.1,2.4,6.1,7.2,6.1l9.8-0.9c2.7-0.2,6.4-0.4,11-0.4c1.7,0,4.4,0.2,8,0.6
		c3.6,0.4,6.2,0.6,8,0.6h0.7c4.8,0,7.2-2,7.2-6.1c0-3.7-1.9-5.5-5.6-5.5c-0.9,0-2,0.2-3.3,0.5c-1.6,0.4-3.2,0.6-4.7,0.6
		c-3,0-4.9-3.3-5.4-10c-0.1-0.9-0.2-5.3-0.2-13.2v-11.6c0-10.2,0.9-17.8,2.8-22.8c3-8.2,9.1-12.3,18.3-12.3c4.4,0,8.2,1.2,11.1,3.5
		c3,2.3,4.5,5.2,4.5,8.6c0,1.2-0.4,2.5-1.1,3.9c-1.2-0.3-1.9-0.5-2.3-0.5c-1.9,0-3.5,0.7-4.9,2.2c-1.4,1.5-2.1,3.1-2.1,5
		c0,2.3,0.9,4.3,2.8,6c1.9,1.6,4.2,2.5,6.8,2.5c4.2,0,7.6-1.6,10.2-4.8c2.6-3.2,3.9-7.4,3.9-12.5c0-7.3-2.5-13.2-7.6-17.8
		c-5.1-4.6-11.7-6.9-19.9-6.9c-10.2,0-18.3,4.3-24.4,12.8v-4.8C138.5,102,136.9,100.3,133.9,100.3z M226.7,122.4
		c0.1-6.3,0.2-9.9,0.3-10.9c0-0.5,0-1.2,0.1-2.1c0.1-0.9,0.1-1.6,0.1-2.1c0-4.6-1.7-6.8-5.1-6.8c-0.9,0-2.4,0.1-4.3,0.4
		c-1.9,0.3-3.4,0.4-4.3,0.4c-1.1,0-3.5-0.2-7.2-0.7c-0.9-0.1-2.5-0.2-4.7-0.2c-5.1,0-7.7,2-7.7,6c0,3.7,2.1,5.6,6.4,5.6
		c0.8,0,2.1-0.2,3.8-0.6c1.7-0.4,3-0.6,4-0.6c2.9,0,4.7,3.7,5.3,11.1c0,0.5,0,5.6,0,15.3v14.4c0,9.7,0,14.8,0,15.3
		c-0.6,7.5-2.3,11.2-5.1,11.2c-0.9,0-2.3-0.2-4.2-0.5c-1.8-0.4-3.2-0.5-4.2-0.5c-4,0-6,1.9-6,5.8c0,4,2.3,6,7,6
		c1.5,0,4.6-0.3,9.2-0.9c3.8-0.5,7.2-0.7,10.2-0.7c1.9,0,4.7,0.3,8.5,0.8c3.8,0.5,6.7,0.8,8.5,0.8c2.2,0,4.1-0.6,5.5-1.8
		c1.5-1.2,2.2-2.6,2.2-4.2c0-3.9-2.2-5.8-6.7-5.8c-1.2,0-2,0.1-2.6,0.3c-2.3,0.6-3.8,0.9-4.4,0.9c-2.6,0-4.2-2.6-4.7-7.9
		c-0.1-1.1-0.2-4.5-0.2-10.4v-22.8C226.6,132.1,226.6,127.2,226.7,122.4z M224.4,88.3c1.9-1.9,2.9-4.2,2.9-6.9c0-2.7-1-5-2.9-6.8
		c-1.9-1.9-4.2-2.8-6.9-2.8c-2.7,0-5,0.9-6.9,2.8c-1.9,1.9-2.9,4.2-2.9,6.8c0,2.7,1,5,2.9,6.9c1.9,1.9,4.2,2.9,6.9,2.9
		C220.1,91.2,222.4,90.2,224.4,88.3z M275,100.5c-0.9,0-2.4,0.1-4.4,0.3c-2,0.2-3.5,0.3-4.6,0.3c-1.4,0-3.6-0.1-6.5-0.4
		c-1.5-0.1-2.9-0.2-4.2-0.2c-5.1,0-7.7,1.9-7.7,5.6c0,3.9,2.1,5.8,6.4,5.8c0.9,0,2.2-0.2,3.9-0.6c1.7-0.4,2.9-0.6,3.7-0.6
		c2.9,0,4.4,2.7,4.5,8.1v67.7c-0.1,10.4-0.4,16.8-1,19c-0.5,2.3-1.9,3.4-4.1,3.4c-0.9,0-2.4-0.2-4.3-0.6c-1.5-0.3-2.6-0.5-3.3-0.5
		c-3.9,0-5.9,1.8-5.9,5.5c0,1.6,0.7,3,2.1,4.2c1.4,1.2,3.1,1.8,5.1,1.8c1.5,0,4.6-0.3,9.3-0.9c1.9-0.2,4.2-0.3,7-0.3
		c5.1,0,9,0.2,11.5,0.5c3.5,0.5,6.1,0.7,7.9,0.7c4.9,0,7.3-1.9,7.3-5.8c0-3.9-1.9-5.8-5.6-5.8c-0.8,0-2,0.2-3.7,0.5
		c-1.6,0.4-2.9,0.5-3.7,0.5c-2.7,0-4.4-1.8-5.1-5.4c-0.2-1.3-0.4-4.2-0.4-8.6v-14.6c6.3,7.1,14.6,10.7,24.7,10.7
		c12.3,0,22.1-4.4,29.4-13.2c7.3-8.8,11-20.7,11-35.5c0-13.8-3.5-24.7-10.4-32.8c-6.9-8.1-16.2-12.1-27.9-12.1
		c-11.3,0-20.3,4.6-26.8,13.7v-5.6C279.4,102.1,277.9,100.5,275,100.5z M290.3,114c4.4-3.4,9.4-5.1,15-5.1
		c16.6,0,24.9,11.7,24.9,35.1c0,11.3-2.3,20.1-6.9,26.2c-4.6,6.1-11.1,9.2-19.6,9.2c-5.6,0-10.3-1.4-14.1-4.2
		c-3.8-2.8-6.3-6-7.6-9.6c-1.3-3.6-1.9-9.3-1.9-17.1c0-0.6,0-1.4,0-2.5c0.1-1.3,0.2-2.2,0.2-2.6c0.1-6.6,0.7-12.1,1.8-16.7
		C283.2,121.7,286,117.4,290.3,114z M393.6,178.8c-8.2,0-12.3-6.1-12.3-18.4v-43.2c0-2.5,0.8-3.7,2.5-3.7h19.3
		c4.8,0,7.2-2.2,7.2-6.5c0-4.1-2.2-6.1-6.7-6.1h-19.1c-2.1,0-3.2-0.9-3.2-2.6V79.4c0-4.4-2.1-6.7-6.3-6.7c-4.6,0-6.8,2.2-6.8,6.7
		v18.1c0,2.2-1,3.3-3,3.3h-6.8c-1.5,0-2.9,0.6-4.1,1.9c-1.2,1.3-1.8,2.7-1.8,4.4c0,1.8,0.6,3.2,1.9,4.5c1.3,1.2,2.8,1.8,4.8,1.8h5.7
		c2.3,0,3.4,1.2,3.4,3.7v42.1c0,10.4,1.5,17.8,4.4,22.1c3.9,6,10.6,8.9,19.9,8.9c10.1,0,17.4-3.4,21.8-10.2c3.3-5,4.9-13.9,4.9-26.7
		c0-5.4-2-8.1-6.1-8.1c-4.1,0-6.2,2.4-6.3,7.2v11.2C406.2,173.8,401.9,178.8,393.6,178.8z M497,108.4c-7.1-7.4-16.2-11.1-27.2-11.1
		c-12.4,0-22.5,4.4-30.2,13.3c-7.7,8.9-11.6,20.5-11.6,34.7c0,13.9,3.6,25,10.9,33.3c7.3,8.2,17,12.4,29.3,12.4
		c9.8,0,18.6-3,26.3-8.9c7.7-5.9,11.6-12.7,11.6-20.3c0-4.4-2.2-6.7-6.5-6.7c-3,0-5,1.4-5.8,4.2l-1.6,5.1c-1.3,4.3-4.1,7.9-8.3,10.7
		c-4.3,2.8-9,4.2-14.1,4.2c-7.8,0-14.4-2.9-19.7-8.8c-5.3-5.8-7.9-13.2-7.9-21.9c0-0.9,0.2-1.6,0.7-2c0.5-0.4,1.5-0.6,3-0.6h55.8
		c2.8,0,4.5-0.5,5.1-1.5c0.6-1,0.9-3.7,0.9-8.2C507.7,125.1,504.1,115.8,497,108.4z M452,116c5.4-4.7,11.3-7.1,17.9-7.1
		c6.3,0,11.8,2.3,16.5,6.8c4.7,4.6,7,9.9,7,16.1c0,1.6-1.2,2.5-3.7,2.5h-41.9c-2.6,0-3.9-0.8-3.9-2.5C444,126.1,446.7,120.8,452,116
		z M527.2,177.5c-0.7,0-1.8-0.1-3.2-0.3c-1.4-0.2-2.5-0.3-3.2-0.3c-4.2,0-6.3,1.9-6.3,5.8c0,4,2.5,6,7.4,6c1.9,0,4.8-0.2,8.8-0.7
		c2.9-0.4,5.4-0.5,7.5-0.5c2.7,0,5.8,0.2,9.3,0.5l7,0.7h2.5c5,0,7.5-1.9,7.5-5.6c0-4.1-2.5-6.1-7.5-6.1c-0.8,0-2,0.1-3.7,0.3
		c-1.6,0.2-2.9,0.4-3.7,0.4c-1.2,0-1.8-0.3-1.8-0.9c0-0.5,0.4-1.2,1.2-2.1l19.8-22.8l19.5,22.8l0.5,0.7c0.4,0.4,0.5,0.7,0.5,1.1
		c0,0.9-0.6,1.4-1.8,1.4c-0.6,0-1-0.1-1.2-0.2c-2.8-0.5-5-0.7-6.5-0.7c-4.3,0-6.5,2-6.5,6.1c0,3.7,2.7,5.6,8.2,5.6h1.9l6.3-0.7
		c3.2-0.4,6.3-0.5,9.5-0.5c3.7,0,6.6,0.1,8.4,0.4l6.8,0.9h1.4c4.9,0,7.4-2,7.4-6.1c0-3.7-2.1-5.6-6.3-5.6c-0.7,0-1.8,0.1-3.2,0.3
		c-1.5,0.2-2.5,0.4-3.2,0.4c-2.3,0-4.3-1-6-3l-27.4-32.4l20.4-23.2c4.9-5.6,8.8-8.4,11.6-8.4c0.9,0,2.3,0.2,4.1,0.6
		c1.8,0.4,3.1,0.6,4.1,0.6c4,0,6-1.9,6-5.7c0-3.9-2.6-5.9-7.7-5.9c-1.4,0-3.7,0.2-7,0.6c-3.3,0.4-6.4,0.6-9.3,0.6
		c-2.9,0-5.7-0.1-8.2-0.4c-6.4-0.6-9.5-0.9-9.3-0.9c-4.9,0-7.4,1.9-7.4,5.7c0,3.9,2.1,5.9,6.2,5.9c0.7,0,1.7-0.2,3-0.6
		c1.3-0.4,2.3-0.6,2.9-0.6c0.5,0,0.8,0.1,0.9,0.4c0,0.5-0.5,1.3-1.6,2.5l-16.7,19.6l-16-19.6c-0.8-0.9-1.3-1.8-1.6-2.5
		c0-0.2,0.2-0.4,0.7-0.4h1.1l2.6,0.8c0.8,0.3,1.7,0.4,2.6,0.4c4.4,0,6.7-1.9,6.7-5.6c0-4-2.4-6-7.2-6c-1.9,0-4.7,0.2-8.4,0.6
		c-3.7,0.4-6.6,0.6-8.6,0.6c-2,0-4.4-0.2-7.4-0.7c-5.7-0.4-8.7-0.5-8.8-0.5h-0.5c-4.8,0-7.2,2-7.2,6c0,3.7,1.9,5.6,5.8,5.6
		c1.2,0,2-0.1,2.5-0.2l3-0.8c0.5-0.1,1.2-0.2,2.1-0.2c2.3,0,4.3,0.9,6,2.8l24.4,28.9l-24.4,28C532.5,175.2,529.4,177.5,527.2,177.5z
		 M668.2,178.8c-8.2,0-12.3-6.1-12.3-18.4v-43.2c0-2.5,0.8-3.7,2.5-3.7h19.3c4.8,0,7.2-2.2,7.2-6.5c0-4.1-2.2-6.1-6.7-6.1h-19.1
		c-2.1,0-3.2-0.9-3.2-2.6V79.4c0-4.4-2.1-6.7-6.3-6.7c-4.6,0-6.8,2.2-6.8,6.7v18.1c0,2.2-1,3.3-3,3.3H633c-1.5,0-2.9,0.6-4.1,1.9
		c-1.2,1.3-1.8,2.7-1.8,4.4c0,1.8,0.6,3.2,1.9,4.5c1.3,1.2,2.8,1.8,4.8,1.8h5.7c2.3,0,3.4,1.2,3.4,3.7v42.1
		c0,10.4,1.5,17.8,4.4,22.1c3.9,6,10.6,8.9,19.9,8.9c10.1,0,17.4-3.4,21.8-10.2c3.3-5,4.9-13.9,4.9-26.7c0-5.4-2-8.1-6.1-8.1
		c-4.1,0-6.2,2.4-6.3,7.2v11.2C680.9,173.8,676.5,178.8,668.2,178.8z"/>
	<g>
		<path class="st0" d="M782.2,0c-42.6,1.1-76.4,28.9-75.5,62.1c0.3,11.5,4.8,22.2,12.3,31.1l0,0c12.9,15,0.9,42.3,0.9,42.3
			l38.3-18.6c8.5,2.3,17.8,3.4,27.3,3.1c42.6-1.1,76.4-28.9,75.5-62.1C860.1,24.8,824.8-1.1,782.2,0z M786.3,23.4
			c15.4,0.2,22.8,10.6,22.9,24.6l-8.2,0c-0.5-7.4-4.9-16.4-14.7-16.5c-10.2-0.1-14.4,8.7-14.9,16.5h-8.3
			C763.2,34.3,771,23.2,786.3,23.4z M814,84.5c0,2.6-2.1,4.7-4.7,4.7h-46.5c-2.6,0-4.7-2.1-4.7-4.7V55.9c0-2.6,2.1-4.7,4.7-4.7h46.5
			c2.6,0,4.7,2.1,4.7,4.7V84.5z"/>
		<path class="st0" d="M791.3,67.3c0-2.9-2.3-5.2-5.2-5.2c-2.9,0-5.3,2.4-5.3,5.3c0,2.3,1.5,4.4,3.5,5.1l-3.3,8.4l9.9,0l-3.2-8.4
			C789.8,71.8,791.3,69.7,791.3,67.3z"/>
	</g>
	<text transform="matrix(1 0 0 1 525.0972 275.6375)" class="st1 st2 st3">beta</text>
</g>
</svg>
