<svg xmlns="http://www.w3.org/2000/svg" width="96" height="113" viewBox="0 0 96 113">
    <g fill="none" fill-rule="evenodd">
        <path fill="#CBDFFA" d="M93.616 19.02C74.69 19.02 60.194 13.71 47.934 2 35.674 13.71 21.177 19.02 2.25 19.02c0 30.499-6.421 74.188 45.683 91.931 52.108-17.743 45.682-61.432 45.682-91.93" transform="translate(-.316)"/>
        <path fill="#76AEFF" d="M47.934 2v109.258c52.537-17.794 46.063-61.606 46.063-92.19-19.084 0-33.7-5.326-46.063-17.068" opacity=".392" transform="translate(-.316)"/>
        <path fill="#404349" d="M53.987 72.067l-12.309-.027 4.145-10.605c-2.58-.893-4.434-3.508-4.42-6.455.018-3.675 2.946-6.694 6.582-6.664 3.599.008 6.505 2.934 6.48 6.6-.005 2.962-1.89 5.675-4.483 6.543l4.005 10.608z" transform="translate(-.316)"/>
        <path fill="#36393D" d="M47.99 48.316c-.018 0-.035.005-.056.005v23.733l6.603.013-4.369-10.608c2.828-.868 4.885-3.579 4.891-6.543.027-3.664-3.14-6.59-7.069-6.6z" transform="translate(-.316)"/>
    </g>
</svg>
