<svg xmlns="http://www.w3.org/2000/svg" width="20" height="20" viewBox="0 0 20 20">
    <g fill="none" fill-rule="evenodd">
        <g fill="#0091FF" fill-rule="nonzero">
            <g>
                <g>
                    <path d="M19.453 1.064c-.164-.162-.36-.243-.584-.243-.225 0-.42.081-.584.243L16.598 2.72c-.926-.864-1.986-1.533-3.18-2.007C12.226.237 10.997 0 9.734 0c-2.38 0-4.456.712-6.23 2.135C1.73 3.56.564 5.416 0 7.708v.09c0 .11.041.207.123.288.082.081.18.122.292.122h2.583c.19 0 .32-.098.389-.295.363-.855.592-1.355.688-1.5.605-.975 1.41-1.74 2.413-2.296 1.004-.556 2.086-.834 3.245-.834 1.739 0 3.248.586 4.529 1.757l-1.791 1.77c-.164.162-.247.355-.247.577 0 .223.083.415.247.577.164.163.36.244.584.244h5.814c.225 0 .42-.081.584-.244.164-.162.246-.354.246-.577V1.641c0-.222-.081-.414-.246-.577zM17.675 11.492H15.38c-.175 0-.295.098-.358.295-.335.855-.546 1.355-.633 1.5-.558.974-1.3 1.74-2.223 2.296-.925.556-1.92.833-2.988.833-.773 0-1.518-.154-2.235-.461-.717-.308-1.358-.744-1.924-1.309l1.638-1.757c.15-.162.227-.355.227-.577 0-.222-.076-.415-.227-.577-.152-.162-.331-.244-.538-.244H.765c-.207 0-.387.082-.538.244-.151.162-.227.355-.227.577v5.746c0 .222.076.415.227.577.152.162.33.244.538.244.207 0 .386-.082.538-.244l1.541-1.655c.853.872 1.823 1.544 2.91 2.014 1.088.47 2.213.705 3.376.705 2.184 0 4.088-.712 5.713-2.135 1.625-1.423 2.693-3.281 3.203-5.572.008-.017.012-.047.012-.09 0-.111-.038-.207-.114-.289-.076-.08-.166-.121-.27-.121z" transform="translate(-278 -222) translate(42 204) translate(236 18)"/>
                </g>
            </g>
        </g>
    </g>
</svg>
