<svg xmlns="http://www.w3.org/2000/svg" xmlns:xlink="http://www.w3.org/1999/xlink" width="111" height="111" viewBox="0 0 111 111">
    <defs>
        <circle id="5wqgeol5da" cx="56.15" cy="55.15" r="52.15"/>
        <mask id="c66ykjqr2b" width="108.3" height="108.3" x="-2" y="-2" maskContentUnits="userSpaceOnUse" maskUnits="objectBoundingBox">
            <path fill="#fff" d="M2 1H110.3V109.3H2z"/>
            <use xlink:href="#5wqgeol5da"/>
        </mask>
    </defs>
    <g fill="none" transform="translate(-.717)">
        <use fill="#DFEAF5" stroke="#0091FF" stroke-dasharray="5.6 5.6" stroke-width="4" mask="url(#c66ykjqr2b)" xlink:href="#5wqgeol5da"/>
        <path fill="#FFF" d="M55.869 21.5c11.22 0 14.267 5.753 14.63 8.598 1.899 1.405 3.703 3.828 3.703 9.735v9.72c.886.655 1.516 1.6 1.778 2.67.037.145.056.294.055.444-.247 2.754-.91 5.455-1.965 8.011-.218.548-.686.957-1.258 1.1-.354.563-.51 1.227-.443 1.889-.464 3.87-2.393 7.418-5.39 9.91.389 2.406 2.189 8.742 6.123 10.381l16.133 5.375c1.594.53 3.042 1.36 4.28 2.42-9.457 9.598-22.606 15.547-37.144 15.547-14.766 0-28.099-6.137-37.586-15.999 1.106-.846 2.358-1.515 3.717-1.967l16.277-5.405c3.824-1.599 5.613-7.931 5.998-10.333-3.013-2.492-4.953-6.047-5.42-9.929 0-1.298-.384-1.83-.59-1.932-.524-.136-.94-.535-1.1-1.053-1.056-2.557-1.718-5.26-1.965-8.015 0-.15.018-.299.055-.444.263-1.07.892-2.015 1.778-2.67v-9.72c.401-9.954 8.38-17.932 18.334-18.333z"/>
    </g>
</svg>
