<svg xmlns="http://www.w3.org/2000/svg" xmlns:xlink="http://www.w3.org/1999/xlink" width="268" height="67" viewBox="0 0 268 67">
    <defs>
        <linearGradient id="mlv3306gec" x1="0%" x2="100%" y1="11.408%" y2="88.592%">
            <stop offset="0%" stop-color="#00B7FF"/>
            <stop offset="100%" stop-color="#0080FF"/>
        </linearGradient>
        <path id="awaw1uthva" d="M0 0.522L202.402 0.522 202.402 44.967 0 44.967z"/>
    </defs>
    <g fill="none" fill-rule="evenodd">
        <g transform="translate(15 1.74) translate(0 19.07)">
            <mask id="zjg07oy9bb" fill="#fff">
                <use xlink:href="#awaw1uthva"/>
            </mask>
            <path fill="#373A46" d="M194.976 33.087c-2.389 0-3.582-1.792-3.582-5.376V15.115c0-.717.238-1.075.717-1.075h5.632c1.4 0 2.1-.631 2.1-1.894 0-1.194-.65-1.793-1.947-1.793h-5.581c-.614 0-.921-.256-.921-.767v-5.48c0-1.296-.615-1.945-1.844-1.945-1.33 0-1.997.649-1.997 1.945V9.38c0 .649-.29.973-.87.973h-1.997c-.444 0-.845.19-1.203.563-.358.377-.538.803-.538 1.28 0 .513.184.948.55 1.306.366.358.83.538 1.388.538h1.675c.663 0 .995.358.995 1.075v12.289c0 3.039.424 5.189 1.272 6.451 1.152 1.741 3.085 2.611 5.797 2.611 2.95 0 5.068-.989 6.356-2.97.95-1.466 1.424-4.06 1.424-7.781 0-1.57-.597-2.356-1.792-2.356s-1.809.7-1.842 2.099v3.277c-.104 2.902-1.37 4.352-3.792 4.352m-41.165-.358c-.204 0-.511-.026-.921-.076-.41-.052-.717-.077-.921-.077-1.23 0-1.844.563-1.844 1.689 0 1.16.717 1.741 2.15 1.741.546 0 1.4-.069 2.56-.205.854-.102 1.588-.153 2.203-.153.784 0 1.69.051 2.714.153l2.047.205h.717c1.467 0 2.202-.546 2.202-1.64 0-1.194-.735-1.79-2.202-1.79-.239 0-.598.033-1.075.102-.479.07-.837.102-1.076.102-.34 0-.511-.084-.511-.256 0-.137.119-.34.358-.614l5.786-6.656 5.684 6.656.153.204c.103.103.154.205.154.307 0 .275-.171.41-.512.41-.172 0-.29-.016-.36-.051-.818-.136-1.45-.204-1.893-.204-1.263 0-1.895.596-1.895 1.79 0 1.094.802 1.64 2.407 1.64h.563l1.843-.205c.922-.102 1.843-.153 2.765-.153 1.093 0 1.911.034 2.457.102l1.998.256h.41c1.433 0 2.15-.596 2.15-1.792 0-1.092-.615-1.638-1.844-1.638-.204 0-.52.033-.947.102-.427.07-.743.102-.947.102-.683 0-1.263-.29-1.74-.873l-7.989-9.446 5.962-6.777c1.44-1.642 2.57-2.464 3.392-2.464.275 0 .668.06 1.184.18.513.12.907.18 1.182.18 1.164 0 1.747-.555 1.747-1.665 0-1.143-.751-1.716-2.253-1.716-.41 0-1.092.061-2.048.18-.956.12-1.861.18-2.714.18s-1.656-.035-2.406-.103c-1.878-.17-2.783-.257-2.714-.257-1.434 0-2.15.556-2.15 1.665 0 1.144.605 1.715 1.818 1.715.201 0 .497-.059.883-.179.388-.12.666-.18.834-.18.135 0 .22.036.253.104 0 .14-.154.383-.46.728l-4.865 5.723-4.66-5.723c-.238-.276-.392-.52-.46-.728 0-.068.068-.104.205-.104h.307l.768.24c.238.08.495.12.769.12 1.296 0 1.945-.547 1.945-1.64 0-1.16-.7-1.74-2.1-1.74-.546 0-1.365.06-2.457.18-1.093.119-1.93.178-2.509.178-.58 0-1.297-.068-2.15-.205-1.674-.101-2.527-.154-2.56-.154h-.155c-1.4 0-2.098.581-2.098 1.742 0 1.092.563 1.638 1.69 1.638.34 0 .579-.02.715-.06l.872-.239c.135-.039.34-.06.613-.06.683 0 1.263.275 1.742.824l7.117 8.442-7.117 8.183c-1.196 1.374-2.117 2.06-2.766 2.06m-21.914-17.947c1.569-1.382 3.31-2.073 5.222-2.073 1.844 0 3.448.665 4.814 1.996 1.365 1.331 2.048 2.902 2.048 4.711 0 .478-.36.717-1.076.717h-12.237c-.752 0-1.126-.239-1.126-.717 0-1.706.785-3.251 2.355-4.634m13.107-2.227c-2.082-2.15-4.728-3.225-7.936-3.225-3.618 0-6.554 1.297-8.807 3.89-2.253 2.595-3.38 5.974-3.38 10.139 0 4.062 1.059 7.296 3.176 9.703 2.116 2.407 4.967 3.61 8.55 3.61 2.868 0 5.428-.863 7.68-2.586 2.254-1.724 3.38-3.695 3.38-5.914 0-1.297-.632-1.946-1.894-1.946-.888 0-1.451.41-1.69 1.23l-.461 1.484c-.376 1.264-1.186 2.305-2.432 3.123-1.246.82-2.62 1.23-4.122 1.23-2.287 0-4.199-.854-5.734-2.56-1.537-1.707-2.305-3.842-2.305-6.401 0-.273.069-.47.205-.59.136-.118.427-.178.87-.178h16.283c.819 0 1.314-.145 1.485-.435.17-.29.256-1.084.256-2.381 0-3.311-1.042-6.043-3.124-8.193m-30.159 20.532c-2.389 0-3.582-1.792-3.582-5.376V15.115c0-.717.238-1.075.716-1.075h5.632c1.4 0 2.1-.631 2.1-1.894 0-1.194-.65-1.793-1.946-1.793h-5.581c-.614 0-.921-.256-.921-.767v-5.48c0-1.296-.615-1.945-1.844-1.945-1.331 0-1.997.649-1.997 1.945V9.38c0 .649-.29.973-.87.973h-1.997c-.444 0-.845.19-1.204.563-.357.377-.537.803-.537 1.28 0 .513.183.948.55 1.306.366.358.83.538 1.388.538h1.675c.663 0 .995.358.995 1.075v12.289c0 3.039.423 5.189 1.271 6.451 1.152 1.741 3.085 2.611 5.798 2.611 2.948 0 5.068-.989 6.356-2.97.95-1.466 1.424-4.06 1.424-7.781 0-1.57-.598-2.356-1.792-2.356-1.195 0-1.81.7-1.844 2.099v3.277c-.104 2.902-1.367 4.352-3.79 4.352m-30.13-18.893c1.28-.99 2.739-1.485 4.377-1.485 4.846 0 7.27 3.414 7.27 10.24 0 3.312-.674 5.864-2.022 7.656-1.349 1.79-3.251 2.687-5.709 2.687-1.638 0-3.012-.41-4.122-1.229-1.11-.818-1.852-1.749-2.226-2.79-.377-1.041-.564-2.705-.564-4.993v-.716c.033-.376.051-.632.051-.768.034-1.912.205-3.534.513-4.865.34-1.501 1.151-2.747 2.432-3.737m-4.481-3.942c-.274 0-.7.024-1.28.076-.58.051-1.025.076-1.331.076-.41 0-1.042-.033-1.894-.103-.445-.032-.855-.05-1.23-.05-1.502 0-2.252.546-2.252 1.638 0 1.126.625 1.69 1.876 1.69.27 0 .651-.059 1.141-.179.491-.12.855-.18 1.092-.18.845 0 1.284.786 1.318 2.357V35.34c-.034 3.038-.128 4.89-.28 5.555-.151.667-.55 1-1.191 1-.27 0-.694-.059-1.269-.176-.44-.088-.76-.132-.963-.132-1.15 0-1.724.538-1.724 1.614 0 .47.203.882.611 1.236.409.353.902.53 1.48.53.442 0 1.344-.086 2.705-.257.543-.068 1.224-.102 2.04-.102 1.497 0 2.619.052 3.368.154 1.02.136 1.786.205 2.296.205 1.429 0 2.143-.563 2.143-1.69s-.546-1.69-1.638-1.69c-.24 0-.597.051-1.075.153-.479.103-.837.154-1.076.154-.785 0-1.28-.53-1.484-1.587-.07-.376-.102-1.212-.102-2.51v-4.249c1.842 2.083 4.249 3.123 7.219 3.123 3.584 0 6.443-1.288 8.576-3.865 2.133-2.577 3.2-6.033 3.2-10.368 0-4.028-1.007-7.22-3.02-9.575-2.015-2.356-4.73-3.533-8.142-3.533-3.312 0-5.922 1.331-7.833 3.993v-1.639c0-.955-.428-1.432-1.281-1.432m-14.772-3.56c.563-.563.845-1.237.845-2.022 0-.785-.282-1.45-.845-1.997-.563-.546-1.237-.819-2.022-.819-.786 0-1.46.273-2.023.819-.563.546-.845 1.212-.845 1.997 0 .785.282 1.459.845 2.023.563.563 1.237.845 2.023.845.785 0 1.46-.282 2.022-.845m.681 9.958c.027-1.843.054-2.901.083-3.175 0-.136.013-.34.04-.613.027-.273.041-.478.041-.616 0-1.331-.495-1.995-1.485-1.995-.273 0-.69.042-1.254.127-.563.086-.982.128-1.255.128-.306 0-1.006-.068-2.1-.206-.273-.032-.733-.05-1.381-.05-1.503 0-2.253.582-2.253 1.741 0 1.093.62 1.638 1.86 1.638.24 0 .611-.06 1.11-.18.5-.118.887-.178 1.164-.178.86 0 1.376 1.075 1.55 3.226v13.107c-.174 2.186-.673 3.277-1.5 3.277-.275 0-.68-.05-1.214-.153-.535-.103-.938-.153-1.214-.153-1.17 0-1.756.563-1.756 1.689 0 1.16.684 1.741 2.055 1.741.445 0 1.335-.086 2.67-.256 1.097-.136 2.09-.205 2.982-.205.548 0 1.378.077 2.492.23 1.113.154 1.943.231 2.492.231.65 0 1.19-.171 1.617-.512.429-.341.643-.75.643-1.23 0-1.125-.65-1.688-1.946-1.688-.342 0-.597.033-.768.102-.683.171-1.11.256-1.28.256-.752 0-1.212-.768-1.382-2.305-.035-.307-.052-1.312-.052-3.02v-6.656c0-1.468.014-2.901.041-4.302m-27.076-6.452c-.376 0-.7.044-.972.129-.615.085-1.059.128-1.332.128-.342 0-.854-.043-1.536-.128-.683-.085-1.195-.129-1.536-.129-1.468 0-2.202.598-2.202 1.793 0 1.093.563 1.638 1.69 1.638.273 0 .648-.05 1.126-.154.478-.102.854-.153 1.127-.153.921 0 1.434 1.008 1.536 3.02l.153 11.625v2.61c-.068 1.57-.534 2.356-1.395 2.356-.137 0-.379-.034-.723-.103l-.775-.153c-.173-.034-.431-.052-.775-.052-1.309 0-1.964.53-1.964 1.588 0 1.196.697 1.792 2.093 1.792l2.857-.256c.783-.068 1.854-.102 3.214-.102.511 0 1.285.06 2.323.178 1.037.12 1.812.18 2.322.18h.204c1.394 0 2.092-.588 2.092-1.766 0-1.075-.546-1.614-1.638-1.614-.274 0-.598.044-.974.132-.477.118-.938.176-1.381.176-.89 0-1.418-.973-1.588-2.919-.034-.272-.052-1.553-.052-3.84v-3.38c0-2.97.274-5.188.82-6.655.887-2.39 2.663-3.585 5.326-3.585 1.296 0 2.38.341 3.25 1.024.87.683 1.306 1.52 1.306 2.509 0 .342-.102.717-.307 1.126-.342-.102-.563-.153-.666-.153-.546 0-1.024.214-1.433.64-.41.427-.615.914-.615 1.459 0 .684.273 1.264.82 1.741.545.478 1.21.717 1.996.717 1.23 0 2.218-.47 2.97-1.408.75-.939 1.127-2.158 1.127-3.661 0-2.116-.743-3.848-2.228-5.197-1.485-1.349-3.422-2.022-5.81-2.022-2.972 0-5.344 1.246-7.119 3.737V11.66c0-.974-.443-1.46-1.331-1.46M4.224 5.642C1.408 9.056 0 13.546 0 19.109c0 5.393 1.374 9.712 4.121 12.954 2.748 3.244 6.427 4.865 11.035 4.865 3.994 0 7.253-1.16 9.78-3.482 2.526-2.321 3.789-5.308 3.789-8.96 0-1.57-.7-2.357-2.1-2.357-1.297 0-1.945.786-1.945 2.357 0 1.673-.206 3.004-.615 3.993-.614 1.503-1.681 2.714-3.2 3.635-1.52.922-3.235 1.383-5.146 1.383-3.516 0-6.256-1.306-8.218-3.917-1.963-2.611-2.944-6.254-2.944-10.932 0-4.573.953-8.158 2.86-10.752 1.906-2.594 4.545-3.89 7.915-3.89 2.588 0 4.681.76 6.281 2.283 1.601 1.523 2.367 3.504 2.298 5.941v1.829c-.034 1.456.615 2.183 1.946 2.183 1.23 0 1.844-.769 1.844-2.305v-.511l-.234-1.946c-.118-.956-.177-1.894-.177-2.816 0-.648.104-1.827.308-3.533.068-1.365.103-2.184.103-2.458 0-1.434-.563-2.15-1.688-2.15-1.06 0-1.59.594-1.59 1.782 0-.07.035.28.103 1.049 0 .035.034.157.102.367v1.153C22.238 1.974 19.15.522 15.36.522c-4.608 0-8.32 1.708-11.136 5.12" mask="url(#zjg07oy9bb)"/>
        </g>
        <path fill="url(#mlv3306gec)" d="M251.215 16.91c.262 9.672-9.6 17.784-22.03 18.118-2.799.077-5.488-.251-7.98-.912L210.04 39.55s3.493-7.977-.257-12.341l.003-.002c-2.184-2.61-3.488-5.717-3.577-9.075-.263-9.674 9.602-17.784 22.03-18.12 12.429-.34 22.719 7.228 22.976 16.898" transform="translate(15 1.74)"/>
        <path fill="#FFF" d="M222.657 14.02h2.408c.139-2.3 1.366-4.842 4.345-4.828 2.873.017 4.152 2.654 4.3 4.813l2.401.014c-.022-4.086-2.206-7.123-6.689-7.189-4.454-.063-6.743 3.17-6.765 7.19M236.114 26.03h-13.567c-.761 0-1.384-.623-1.384-1.384v-8.348c0-.76.623-1.383 1.384-1.383h13.567c.761 0 1.384.623 1.384 1.383v8.348c0 .76-.623 1.384-1.384 1.384" transform="translate(15 1.74)"/>
        <path fill="#0080FF" d="M229.834 21.153l.936 2.442-2.877-.006.97-2.442c-.605-.205-1.038-.807-1.035-1.487.005-.846.689-1.54 1.538-1.533.843.002 1.522.675 1.516 1.52-.002.681-.442 1.306-1.048 1.506" transform="translate(15 1.74)"/>
    </g>
</svg>
