<svg xmlns="http://www.w3.org/2000/svg" xmlns:xlink="http://www.w3.org/1999/xlink" width="268" height="67" viewBox="0 0 268 67">
    <defs>
        <path id="sxt61xy4ia" d="M0 0.52L201.502 0.52 201.502 44.766 0 44.766z"/>
        <path id="qlr5ij263c" d="M22.044.612C9.67.946-.15 9.02.112 18.65c.089 3.343 1.388 6.436 3.56 9.034l-.002.001c3.733 4.346.255 12.287.255 12.287l11.116-5.408c2.48.658 5.158.984 7.944.908 12.201-.329 21.919-8.184 21.938-17.635v-.055c0-.116-.002-.232-.005-.347C44.667 8.016 34.855.6 22.843.6c-.265 0-.532.003-.8.01"/>
        <linearGradient id="3ezy2i51wd" x1="50%" x2="50%" y1="0%" y2="100%">
            <stop offset="0%" stop-color="#00B7FF"/>
            <stop offset="100%" stop-color="#0080FF"/>
        </linearGradient>
    </defs>
    <g fill="none" fill-rule="evenodd">
        <g transform="translate(16 1) translate(0 19.917)">
            <mask id="r0xx0hxptb" fill="#fff">
                <use xlink:href="#sxt61xy4ia"/>
            </mask>
            <path fill="#FFF" d="M194.109 32.94c-2.379 0-3.567-1.785-3.567-5.352v-12.54c0-.714.237-1.071.714-1.071h5.607c1.393 0 2.09-.628 2.09-1.885 0-1.189-.647-1.785-1.937-1.785h-5.556c-.612 0-.918-.255-.918-.765V4.088c0-1.29-.612-1.937-1.835-1.937-1.325 0-1.989.646-1.989 1.937v5.25c0 .646-.288.969-.866.969h-1.987c-.442 0-.842.187-1.199.56-.356.375-.534.8-.534 1.275 0 .51.182.943.546 1.3.365.357.827.535 1.382.535h1.668c.66 0 .99.357.99 1.07v12.235c0 3.025.422 5.166 1.267 6.423 1.146 1.733 3.071 2.6 5.771 2.6 2.936 0 5.046-.986 6.328-2.957.945-1.46 1.418-4.043 1.418-7.749 0-1.562-.595-2.344-1.784-2.344-1.19 0-1.801.696-1.835 2.09v3.262c-.104 2.89-1.363 4.333-3.774 4.333m-40.982-.357c-.203 0-.51-.025-.917-.076-.408-.052-.714-.076-.918-.076-1.223 0-1.835.56-1.835 1.681 0 1.156.713 1.734 2.141 1.734.543 0 1.393-.069 2.548-.204.85-.103 1.581-.153 2.193-.153.78 0 1.682.05 2.702.153l2.038.204h.714c1.461 0 2.192-.543 2.192-1.632 0-1.189-.73-1.783-2.192-1.783-.238 0-.595.034-1.07.102-.477.068-.834.101-1.071.101-.34 0-.51-.084-.51-.254 0-.137.119-.34.357-.612l5.76-6.627 5.659 6.627.153.203c.101.103.153.204.153.306 0 .273-.171.409-.51.409-.171 0-.29-.017-.358-.052-.815-.135-1.444-.203-1.885-.203-1.258 0-1.886.594-1.886 1.783 0 1.089.798 1.632 2.396 1.632h.56l1.835-.204c.917-.103 1.835-.153 2.753-.153 1.087 0 1.902.035 2.446.102l1.989.255h.408c1.427 0 2.14-.594 2.14-1.785 0-1.086-.611-1.63-1.835-1.63-.203 0-.519.034-.943.102-.425.068-.74.101-.943.101-.68 0-1.257-.289-1.733-.869l-7.952-9.404 5.935-6.746c1.434-1.635 2.558-2.453 3.378-2.453.272 0 .664.06 1.177.178.511.12.904.178 1.177.178 1.16 0 1.74-.551 1.74-1.656 0-1.138-.749-1.708-2.244-1.708-.407 0-1.087.06-2.038.18-.953.118-1.853.177-2.702.177-.85 0-1.65-.033-2.396-.101-1.87-.17-2.77-.256-2.702-.256-1.427 0-2.14.553-2.14 1.657 0 1.14.602 1.707 1.81 1.707.2 0 .494-.059.88-.178.385-.119.662-.178.83-.178.134 0 .218.035.251.103 0 .14-.153.38-.459.725l-4.842 5.697-4.639-5.697c-.238-.275-.39-.518-.459-.725 0-.068.068-.103.205-.103h.306l.764.238c.237.079.493.118.765.118 1.29 0 1.937-.543 1.937-1.63 0-1.156-.697-1.734-2.09-1.734-.545 0-1.36.06-2.447.18-1.088.118-1.92.177-2.498.177-.578 0-1.291-.068-2.141-.204-1.666-.102-2.515-.153-2.548-.153h-.153c-1.394 0-2.09.578-2.09 1.734 0 1.087.56 1.63 1.682 1.63.339 0 .578-.02.713-.059l.867-.238c.136-.04.34-.06.611-.06.68 0 1.257.274 1.734.82l7.085 8.405-7.085 8.147c-1.19 1.367-2.108 2.05-2.753 2.05M131.31 14.716c1.563-1.376 3.296-2.063 5.2-2.063 1.835 0 3.431.662 4.791 1.987 1.359 1.325 2.039 2.89 2.039 4.69 0 .476-.357.714-1.07.714h-12.184c-.748 0-1.12-.238-1.12-.714 0-1.699.78-3.237 2.344-4.614m13.05-2.216c-2.074-2.142-4.708-3.211-7.902-3.211-3.602 0-6.525 1.29-8.768 3.873-2.243 2.583-3.364 5.947-3.364 10.093 0 4.045 1.053 7.263 3.16 9.66 2.108 2.396 4.946 3.593 8.513 3.593 2.855 0 5.404-.859 7.647-2.575 2.243-1.715 3.364-3.677 3.364-5.886 0-1.291-.629-1.937-1.886-1.937-.884 0-1.445.407-1.682 1.223l-.46 1.478c-.373 1.258-1.18 2.295-2.42 3.11s-2.608 1.223-4.104 1.223c-2.277 0-4.18-.85-5.709-2.55-1.53-1.697-2.294-3.822-2.294-6.37 0-.273.068-.467.204-.587.135-.118.425-.178.867-.178h16.21c.816 0 1.307-.145 1.478-.434.17-.288.255-1.078.255-2.37 0-3.295-1.038-6.015-3.11-8.155m-30.025 20.44c-2.378 0-3.566-1.785-3.566-5.352v-12.54c0-.714.236-1.071.713-1.071h5.607c1.393 0 2.09-.628 2.09-1.885 0-1.189-.646-1.785-1.937-1.785h-5.557c-.61 0-.916-.255-.916-.765V4.088c0-1.29-.612-1.937-1.836-1.937-1.325 0-1.988.646-1.988 1.937v5.25c0 .646-.29.969-.867.969h-1.987c-.442 0-.841.187-1.199.56-.356.375-.535.8-.535 1.275 0 .51.183.943.548 1.3.364.357.826.535 1.382.535h1.667c.66 0 .99.357.99 1.07v12.235c0 3.025.422 5.166 1.266 6.423 1.147 1.733 3.071 2.6 5.772 2.6 2.935 0 5.046-.986 6.328-2.957.945-1.46 1.418-4.043 1.418-7.749 0-1.562-.595-2.344-1.784-2.344-1.19 0-1.802.696-1.836 2.09v3.262c-.103 2.89-1.361 4.333-3.773 4.333M84.338 14.13c1.274-.985 2.727-1.477 4.358-1.477 4.824 0 7.238 3.397 7.238 10.194 0 3.296-.671 5.837-2.014 7.622-1.343 1.783-3.237 2.675-5.683 2.675-1.631 0-3-.408-4.104-1.223-1.105-.815-1.843-1.741-2.216-2.779-.375-1.036-.562-2.692-.562-4.97v-.713c.034-.374.051-.629.051-.765.034-1.903.204-3.518.51-4.843.34-1.494 1.147-2.734 2.422-3.72m-4.461-3.926c-.272 0-.697.026-1.274.077-.578.051-1.02.076-1.325.076-.409 0-1.038-.033-1.886-.102-.443-.033-.85-.05-1.224-.05-1.496 0-2.243.543-2.243 1.63 0 1.122.623 1.682 1.868 1.682.27 0 .648-.059 1.136-.178.489-.119.85-.178 1.087-.178.841 0 1.28.782 1.312 2.345v19.676c-.033 3.024-.126 4.869-.278 5.53-.151.663-.547.995-1.186.995-.27 0-.691-.058-1.263-.175-.438-.087-.757-.131-.959-.131-1.145 0-1.717.535-1.717 1.607 0 .467.203.877.61 1.23.406.352.896.528 1.473.528.439 0 1.337-.086 2.692-.256.541-.068 1.218-.101 2.032-.101 1.489 0 2.606.05 3.352.153 1.016.135 1.778.204 2.286.204 1.423 0 2.134-.562 2.134-1.683 0-1.122-.545-1.682-1.631-1.682-.239 0-.595.05-1.07.153-.477.102-.834.153-1.071.153-.782 0-1.274-.527-1.479-1.58-.069-.375-.101-1.207-.101-2.499V33.4c1.835 2.073 4.23 3.11 7.187 3.11 3.569 0 6.414-1.283 8.538-3.85 2.123-2.564 3.186-6.005 3.186-10.322 0-4.008-1.003-7.187-3.007-9.531-2.006-2.346-4.708-3.517-8.106-3.517-3.296 0-5.896 1.325-7.798 3.975v-1.632c0-.95-.426-1.427-1.275-1.427M65.17 6.662c.56-.56.841-1.23.841-2.012s-.28-1.445-.84-1.99c-.561-.542-1.233-.815-2.014-.815-.783 0-1.454.273-2.014.815-.56.545-.841 1.208-.841 1.99 0 .781.28 1.452.841 2.012.56.562 1.231.842 2.014.842.781 0 1.453-.28 2.013-.842m.678 9.915c.027-1.835.054-2.888.082-3.16 0-.136.013-.34.04-.611.027-.273.041-.476.041-.613 0-1.325-.493-1.988-1.479-1.988-.271 0-.687.043-1.248.128-.561.085-.977.127-1.25.127-.304 0-1.001-.067-2.089-.204-.273-.033-.73-.05-1.376-.05-1.496 0-2.243.578-2.243 1.732 0 1.089.617 1.631 1.852 1.631.24 0 .608-.058 1.105-.178.497-.118.883-.178 1.159-.178.856 0 1.37 1.07 1.542 3.211V29.474c-.172 2.174-.67 3.262-1.492 3.262-.274 0-.677-.05-1.209-.153-.532-.102-.934-.152-1.208-.152-1.166 0-1.75.56-1.75 1.681 0 1.156.683 1.734 2.047 1.734.443 0 1.33-.086 2.66-.255 1.09-.136 2.079-.204 2.967-.204.545 0 1.372.077 2.48.229 1.108.154 1.935.23 2.481.23.648 0 1.185-.17 1.61-.51.427-.34.64-.747.64-1.224 0-1.12-.646-1.681-1.936-1.681-.34 0-.595.034-.765.102-.68.17-1.105.254-1.275.254-.747 0-1.206-.765-1.376-2.294-.034-.306-.05-1.307-.05-3.007V20.86c0-1.46.013-2.888.04-4.282m-26.956-6.423c-.374 0-.697.043-.968.128-.612.085-1.054.128-1.325.128-.34 0-.85-.043-1.53-.128s-1.19-.128-1.53-.128c-1.46 0-2.19.595-2.19 1.784 0 1.089.56 1.631 1.682 1.631.271 0 .644-.05 1.12-.153.476-.101.85-.152 1.123-.152.916 0 1.426 1.003 1.53 3.007l.151 11.571v2.6c-.068 1.564-.532 2.345-1.389 2.345-.137 0-.377-.033-.72-.101l-.772-.153c-.171-.034-.429-.052-.771-.052-1.303 0-1.955.527-1.955 1.58 0 1.191.694 1.785 2.084 1.785l2.844-.255c.779-.067 1.846-.102 3.2-.102.508 0 1.279.06 2.312.178 1.032.119 1.804.18 2.312.18h.203c1.388 0 2.083-.586 2.083-1.759 0-1.07-.544-1.607-1.631-1.607-.273 0-.595.044-.97.132-.475.116-.934.174-1.375.174-.885 0-1.411-.969-1.58-2.906-.034-.271-.051-1.545-.051-3.823v-3.364c0-2.956.271-5.165.815-6.626.883-2.38 2.651-3.568 5.302-3.568 1.29 0 2.37.34 3.236 1.018.867.68 1.3 1.513 1.3 2.499 0 .34-.101.713-.306 1.12-.34-.101-.56-.152-.663-.152-.543 0-1.019.213-1.427.637-.407.426-.611.91-.611 1.453 0 .68.271 1.258.816 1.733.542.476 1.205.714 1.987.714 1.224 0 2.209-.467 2.957-1.402.747-.934 1.122-2.149 1.122-3.645 0-2.106-.74-3.83-2.218-5.174C51.61 9.96 49.683 9.29 47.305 9.29c-2.958 0-5.32 1.24-7.087 3.72v-1.401c0-.969-.44-1.454-1.325-1.454M4.206 5.618C1.402 9.016 0 13.485 0 19.024c0 5.37 1.368 9.669 4.103 12.897 2.736 3.229 6.398 4.842 10.986 4.842 3.975 0 7.221-1.155 9.735-3.467 2.516-2.31 3.773-5.283 3.773-8.92 0-1.562-.697-2.345-2.09-2.345-1.292 0-1.937.783-1.937 2.345 0 1.666-.204 2.99-.612 3.977-.612 1.495-1.674 2.701-3.186 3.618-1.513.918-3.22 1.377-5.123 1.377-3.5 0-6.228-1.3-8.18-3.9-1.956-2.599-2.932-6.227-2.932-10.883 0-4.554.948-8.122 2.846-10.704 1.898-2.583 4.525-3.874 7.881-3.874 2.576 0 4.66.758 6.253 2.274 1.594 1.517 2.356 3.488 2.288 5.915v1.82c-.034 1.45.612 2.174 1.937 2.174 1.224 0 1.836-.765 1.836-2.295v-.509l-.234-1.937c-.116-.951-.175-1.887-.175-2.804 0-.645.103-1.818.307-3.516.067-1.36.102-2.175.102-2.449 0-1.427-.561-2.14-1.681-2.14-1.055 0-1.582.592-1.582 1.775 0-.07.034.279.102 1.044 0 .035.033.156.101.365v1.149C22.14 1.965 19.064.52 15.292.52c-4.588 0-8.283 1.7-11.086 5.098" mask="url(#r0xx0hxptb)"/>
        </g>
        <g transform="translate(16 1) translate(205.18 .332)">
            <mask id="z66vwhfi2e" fill="#fff">
                <use xlink:href="#qlr5ij263c"/>
            </mask>
            <path fill="url(#3ezy2i51wd)" d="M22.044.612C9.67.946-.15 9.02.112 18.65c.089 3.343 1.388 6.436 3.56 9.034l-.002.001c3.733 4.346.255 12.287.255 12.287l11.116-5.408c2.48.658 5.158.984 7.944.908 12.201-.329 21.919-8.184 21.938-17.635v-.055c0-.116-.002-.232-.005-.347C44.667 8.016 34.855.6 22.843.6c-.265 0-.532.003-.8.01" mask="url(#z66vwhfi2e)"/>
        </g>
        <g>
            <path fill="#FFF" d="M1.564 8.029h2.398c.138-2.289 1.36-4.82 4.326-4.805 2.86.016 4.133 2.641 4.28 4.791l2.39.014C14.937 3.961 12.763.937 8.3.872 3.865.809 1.587 4.027 1.564 8.029M14.962 19.986H1.455c-.758 0-1.378-.62-1.378-1.377v-8.31c0-.758.62-1.378 1.378-1.378h13.507c.757 0 1.378.62 1.378 1.378v8.31c0 .757-.62 1.377-1.378 1.377" transform="translate(16 1) translate(220.102 6.86)"/>
            <path fill="#3C9AF9" d="M8.71 15.131l.931 2.432-2.864-.006.965-2.431c-.601-.206-1.032-.804-1.03-1.48.005-.843.686-1.535 1.532-1.528.838.002 1.515.673 1.509 1.514-.002.679-.44 1.3-1.044 1.5" transform="translate(16 1) translate(220.102 6.86)"/>
        </g>
    </g>
</svg>
