<svg xmlns="http://www.w3.org/2000/svg" width="83" height="122" viewBox="0 0 83 122">
    <g fill="none" fill-rule="evenodd" transform="translate(-.5 -.5)">
        <path fill="#E8EDFC" fill-rule="nonzero" d="M44.611 2c14.36 0 26 11.64 26 26v36h-52V28c0-14.36 11.64-26 26-26zm0 10c-8.731 0-15.829 6.994-15.997 15.685l-.003.315v26h32V28c0-8.731-6.994-15.83-15.685-15.997L44.611 12z"/>
        <path fill="#CADAFC" fill-rule="nonzero" d="M44.611 2c14.36 0 26 11.64 26 26v36h-26V53.999h16V28c0-8.731-6.994-15.83-15.685-15.997L44.611 12V2z"/>
        <rect width="77" height="67" x="5.451" y="54" fill="#F4DA53" rx="12"/>
        <path fill="#EEBA44" d="M43.95 54h26.5c6.628 0 12 5.373 12 12v43c0 6.627-5.372 12-12 12h-26.5V54z"/>
        <path fill="#464B52" d="M43.95 80.175c3.728 0 6.75 3.022 6.75 6.75 0 2.844-1.759 5.278-4.248 6.271l-.001 4.668c0 1.381-1.12 2.5-2.5 2.5-1.381 0-2.5-1.119-2.5-2.5v-4.667c-2.49-.994-4.25-3.427-4.25-6.272 0-3.728 3.022-6.75 6.75-6.75z"/>
        <path fill="#292B2F" d="M43.95 80.175c3.728 0 6.75 3.022 6.75 6.75 0 2.844-1.759 5.278-4.248 6.271l-.001 4.668c0 1.381-1.12 2.5-2.5 2.5v-20.19z"/>
        <path fill="#E8EDFC" d="M2.018 89.5H8.882V96.364H2.018z"/>
        <path fill="#CADAFC" d="M8.883 89.5H15.747V96.364H8.883z"/>
        <path fill="#A5C2F7" d="M15.747 89.5H22.611V96.364H15.747z"/>
        <path fill="#E8EDFC" d="M2.018 100.364H8.882V107.22800000000001H2.018z"/>
        <path fill="#CADAFC" d="M8.883 100.364H15.747V107.22800000000001H8.883z"/>
        <path fill="#A5C2F7" d="M15.747 100.364H22.611V107.22800000000001H15.747z"/>
        <path fill="#E8EDFC" d="M2.018 78.636H8.882V85.5H2.018z"/>
        <path fill="#CADAFC" d="M8.883 78.636H15.747V85.5H8.883z"/>
        <path fill="#A5C2F7" d="M15.747 78.636H22.611V85.5H15.747z"/>
        <path fill="#E8EDFC" d="M2.018 67.771H8.882V74.635H2.018z"/>
        <path fill="#CADAFC" d="M8.883 67.771H15.747V74.635H8.883z"/>
        <path fill="#A5C2F7" d="M15.747 67.771H22.611V74.635H15.747z"/>
        <rect width="10.296" height="3.125" x="2.018" y="40.725" fill="#0090FF" rx="1.563"/>
        <rect width="8.828" height="3.125" x="4.859" y="46.915" fill="#0090FF" rx="1.563" transform="rotate(-30 9.273 48.478)"/>
        <rect width="8.828" height="3.125" x="4.859" y="34.535" fill="#0090FF" rx="1.563" transform="scale(-1 1) rotate(-30 0 70.706)"/>
    </g>
</svg>
