<svg xmlns="http://www.w3.org/2000/svg" width="151" height="110" viewBox="0 0 151 110">
    <g fill="none" fill-rule="evenodd" transform="translate(8 6)">
        <path stroke="#0091FF" stroke-width="1.5" d="M59.5 81.5L79.5 81.5 81.5 95 57.5 95z"/>
        <rect width="35" height="3" x="52.5" y="95" stroke="#0091FF" stroke-width="1.5" rx="1"/>
        <path fill="#CEF4FE" d="M23.5 8h97v21.902L86.16 30l-.357 43H32.445L32 41.674l-8.71-.457c-2.124-.112-3.79-1.867-3.79-3.995V12c0-2.21 1.79-4 4-4z"/>
        <path fill="#CEF4FE" d="M6.5 41h1.004l1.634 5H23.5l2.117-5H32.5v52.5h-26c-1.657 0-3-1.343-3-3V44c0-1.657 1.343-3 3-3z"/>
        <rect width="41" height="50" x="92.5" y="39" fill="#CEF4FE" rx="2"/>
        <path stroke="#0294FE" stroke-width="1.5" d="M86.5 81.5h-54M16.5 41V6.095C16.5 2.73 19.186 0 22.5 0h92c3.314 0 6 2.729 6 6.095v24.438"/>
        <rect width="50" height="68" x="86.5" y="30" stroke="#0294FE" stroke-width="1.5" rx="4"/>
        <path stroke="#0091FF" stroke-linecap="round" stroke-width="1.5" d="M133.5 58.968V87c0 1.105-.895 2-2 2h-40c-1.105 0-2-.895-2-2V41c0-1.105.895-2 2-2h40c1.105 0 2 .895 2 2v14.37h0"/>
        <rect width="7" height="2" x="110.5" y="33.5" fill="#0091FF" rx="1"/>
        <rect width="2" height="2" x="106.5" y="33.5" fill="#0091FF" rx="1"/>
        <rect width="2" height="2" x="67.5" y="3" fill="#0091FF" rx="1"/>
        <circle cx="111.5" cy="93.5" r="1" stroke="#0091FF"/>
        <path stroke="#0091FF" stroke-linecap="round" stroke-width="1.5" d="M.5 67.998V44c0-1.657 1.343-3 3-3h26c1.657 0 3 1.343 3 3v52c0 1.657-1.343 3-3 3h-26c-1.657 0-3-1.343-3-3V75.126m0-3.086V71m26-39.87l6.724-6.725m-1.724 5.32L38.224 23"/>
        <path stroke="#0091FF" stroke-width="1.5" d="M8.75 41h15.5c.552 0 1 .448 1 1 0 .074-.008.147-.024.22l-.675 3c-.103.456-.508.78-.976.78H9.425c-.468 0-.873-.324-.976-.78l-.675-3c-.12-.54.218-1.074.756-1.196.073-.016.146-.024.22-.024z"/>
        <path stroke="#0091FF" stroke-linecap="square" stroke-width="1.5" d="M32 93.5L1 93.5M16.5 8.5L120 8.5M32.992 73L86.5 73"/>
        <rect width="2" height="2" x="10.5" y="42.5" fill="#0091FF" rx="1"/>
        <rect width="2" height="2" x="13.5" y="42.5" fill="#0091FF" rx="1"/>
    </g>
</svg>
