<?xml version="1.0" encoding="utf-8"?>
<!-- Generator: Adobe Illustrator 22.0.1, SVG Export Plug-In . SVG Version: 6.00 Build 0)  -->
<svg version="1.0" xmlns="http://www.w3.org/2000/svg" xmlns:xlink="http://www.w3.org/1999/xlink" x="0px" y="0px"
	 viewBox="0 0 16 16" style="enable-background:new 0 0 16 16;" xml:space="preserve">
<style type="text/css">
	.st0{display:none;}
	.st1{display:inline;fill:#6e6e6e;}
	.st2{fill:#6e6e6e;}
</style>
<g id="Layer_1" class="st0">
	<path class="st1" d="M1,8h6v2H5v6H3v-6H1V8z M15,4h-3.9v12H8.9V4H5V2h10L15,4z"/>
</g>
<g id="Layer_15">
	<polygon class="st2" points="13,4 9.1,4 9.1,11.9 6.9,11.9 6.9,4 3,4 3,2 13,2 	"/>
	<polygon class="st2" points="11,13.8 10,12.8 4.4,12.8 4.4,14.8 10,14.8 	"/>
	<polygon class="st2" points="14.5,12.6 13.9,11.9 12.7,13.1 11.5,11.9 10.8,12.6 12,13.8 10.8,15 11.5,15.6 12.7,14.4 13.9,15.6 
		14.5,15 13.3,13.8 	"/>
</g>
<g id="Layer_12_copy" class="st0">
	<path class="st1" d="M13,1.9H3.2C2,1.9,1,2.8,1,4v9.8C1,15,2,16,3.2,16H13c1.2,0,2.1-1,2.1-2.1V4C15.2,2.8,14.2,1.9,13,1.9z
		 M10.4,13.8l-0.6-2H6.3l-0.6,2H3.1L6.6,3.5h2.7L13,13.8H10.4z M8,6.3l1.2,3.7H6.8L8,6.3L8,6.3z"/>
</g>
<g id="Layer_12" class="st0">
	<path class="st1" d="M1.4,13h13.2c0.2,0,0.4,0.3,0.4,0.6v1.9c0,0.3-0.2,0.6-0.4,0.6H1.4C1.2,16,1,15.7,1,15.4v-1.9
		C1,13.2,1.2,13,1.4,13z M5.7,12.4H3.1L6.6,2h2.7L13,12.4h-2.6l-0.6-2H6.3L5.7,12.4z M6.8,8.5h2.3L8,4.8h0L6.8,8.5z"/>
</g>
<g id="Layer_13" class="st0">
	<path class="st1" d="M14.9,2.4H4.9c-0.2,0-0.3,0.1-0.3,0.3v1.6c0,0.2,0.1,0.3,0.3,0.3h9.9c0.2,0,0.3-0.1,0.3-0.3V2.7
		C15.2,2.6,15,2.4,14.9,2.4z M14.9,7.5H4.9c-0.2,0-0.3,0.1-0.3,0.3v1.6c0,0.2,0.1,0.3,0.3,0.3h9.9c0.2,0,0.3-0.1,0.3-0.3V7.8
		C15.2,7.6,15,7.5,14.9,7.5z M14.9,12.8H4.9c-0.2,0-0.3,0.1-0.3,0.3v1.6c0,0.2,0.1,0.3,0.3,0.3h9.9c0.2,0,0.3-0.1,0.3-0.3v-1.6
		C15.2,12.9,15,12.8,14.9,12.8z M1.1,3.1c0.1,0,0.1,0,0.2-0.1l0.1-0.1v2c0,0.1,0.1,0.2,0.2,0.2h0.2C2,5.1,2.1,5,2.1,4.9V2.2
		C2.1,2.1,2,2,1.9,2H1.7C1.6,2,1.6,2,1.5,2.1L0.9,2.6c-0.1,0.1-0.1,0.2,0,0.3L1,3C1,3,1.1,3.1,1.1,3.1z M1.2,7.1
		c-0.1,0-0.2,0.1-0.1,0.2l0,0.2c0,0.1,0.1,0.1,0.1,0.2c0.1,0,0.1,0,0.2,0c0.2-0.1,0.3-0.1,0.4-0.1C2,7.6,2,7.6,2.1,7.7
		c0.1,0.2,0.1,0.4-0.4,1L1.3,9.2C1.2,9.3,1.1,9.4,1.1,9.4C1,9.5,1,9.5,1,9.6v0.2c0,0.1,0.1,0.2,0.2,0.2h1.4c0.1,0,0.2-0.1,0.2-0.2
		V9.7c0-0.1-0.1-0.2-0.2-0.2H1.9C2,9.4,2,9.3,2.1,9.2c0.4-0.5,0.8-1,0.7-1.6c0-0.3-0.2-0.4-0.4-0.6C2.3,7,2.1,6.9,1.9,6.9
		C1.7,6.9,1.5,7,1.2,7.1z M2.4,13.4c0,0,0.1,0,0.1-0.1c0.3-0.2,0.3-0.5,0.3-0.6c0-0.3-0.1-0.5-0.3-0.7c-0.2-0.1-0.4-0.2-0.7-0.2
		c-0.2,0-0.4,0-0.6,0.1c-0.1,0-0.2,0.1-0.2,0.2l0,0.1c0,0.1,0,0.1,0.1,0.2c0.1,0,0.1,0,0.2,0c0.1,0,0.2-0.1,0.3-0.1c0,0,0.1,0,0.1,0
		c0.1,0,0.2,0.1,0.3,0.2c0,0.1,0,0.2,0,0.3c-0.1,0.2-0.4,0.2-0.5,0.2c-0.1,0-0.2,0.1-0.2,0.2v0.1c0,0.1,0.1,0.2,0.2,0.2
		c0.2,0,0.4,0,0.4,0.1c0.1,0.1,0.2,0.2,0.2,0.3c0,0.1-0.1,0.2-0.2,0.3c-0.2,0.1-0.4,0.1-0.7,0c-0.1,0-0.1,0-0.2,0
		C1,14.5,1,14.6,1,14.6l0,0.1C1,14.9,1,15,1.1,15c0,0,0.1,0,0.2,0c0.1,0,0.3,0,0.4,0c0.2,0,0.6,0,0.9-0.3c0.3-0.3,0.3-0.6,0.2-0.9
		C2.8,13.6,2.6,13.5,2.4,13.4z"/>
</g>
<g id="Layer_11" class="st0">
	<path class="st1" d="M1.8,1.8c1,0,1.8,0.8,1.8,1.8S2.8,5.4,1.8,5.4S0,4.6,0,3.6S0.8,1.8,1.8,1.8z M1.8,6.8c1,0,1.8,0.8,1.8,1.8
		s-0.8,1.8-1.8,1.8S0,9.6,0,8.6S0.8,6.8,1.8,6.8z M1.8,12c1,0,1.8,0.8,1.8,1.8s-0.8,1.8-1.8,1.8S0,14.8,0,13.8S0.8,12,1.8,12z
		 M5.7,4.8h9.9c0.1,0,0.2,0,0.2-0.1C16,4.6,16,4.5,16,4.5l0-1.7c0-0.2-0.2-0.3-0.3-0.3H5.7c-0.2,0-0.3,0.2-0.3,0.3v1.7
		C5.4,4.6,5.6,4.8,5.7,4.8z M15.7,7.4H5.7c-0.2,0-0.3,0.2-0.3,0.3v1.7c0,0.2,0.2,0.3,0.3,0.3h9.9c0.1,0,0.2,0,0.2-0.1
		C16,9.7,16,9.6,16,9.5l0-1.7C16,7.6,15.8,7.4,15.7,7.4z M15.7,12.6H5.7c-0.2,0-0.3,0.2-0.3,0.3v1.7c0,0.2,0.2,0.3,0.3,0.3h9.9
		c0.1,0,0.2,0,0.2-0.1c0.1-0.1,0.1-0.1,0.1-0.2l0-1.7C16,12.8,15.8,12.6,15.7,12.6z"/>
</g>
<g id="Layer_7" class="st0">
	<path class="st1" d="M15,14.4v1.2c0,0.2-0.2,0.4-0.4,0.4H1.4C1.2,16,1,15.8,1,15.6v-1.2C1,14.2,1.2,14,1.4,14h13.2
		C14.8,14,15,14.2,15,14.4z M14.6,10H1.4C1.2,10,1,10.2,1,10.4v1.2C1,11.8,1.2,12,1.4,12h13.2c0.2,0,0.4-0.2,0.4-0.4v-1.2
		C15,10.2,14.8,10,14.6,10z M14.6,6H1.4C1.2,6,1,6.2,1,6.4v1.2C1,7.9,1.2,8,1.4,8h13.2C14.8,8,15,7.9,15,7.6V6.4
		C15,6.2,14.8,6,14.6,6z M14.6,2H1.4C1.2,2,1,2.1,1,2.3v1.2C1,3.8,1.2,4,1.4,4h13.2C14.8,4,15,3.8,15,3.6V2.3C15,2.1,14.8,2,14.6,2z
		"/>
</g>
<g id="Layer_9" class="st0">
	<path class="st1" d="M15,14.4v1.2c0,0.2-0.2,0.4-0.4,0.4H1.4C1.2,16,1,15.8,1,15.6v-1.2C1,14.2,1.2,14,1.4,14h13.2
		C14.8,14,15,14.2,15,14.4z M4.4,12h10.2c0.2,0,0.4-0.2,0.4-0.4v-1.2c0-0.2-0.2-0.4-0.4-0.4H4.4C4.2,10,4,10.2,4,10.4v1.2
		C4,11.8,4.2,12,4.4,12z M14.6,6H1.4C1.2,6,1,6.2,1,6.4v1.2C1,7.9,1.2,8,1.4,8h13.2C14.8,8,15,7.9,15,7.6V6.4C15,6.2,14.8,6,14.6,6z
		 M7.4,4h7.2C14.8,4,15,3.9,15,3.7V2.4C15,2.2,14.8,2,14.6,2H7.4C7.2,2,7,2.2,7,2.4v1.2C7,3.9,7.2,4,7.4,4z"/>
</g>
<g id="Layer_10" class="st0">
	<path class="st1" d="M14,14.4v1.2c0,0.2-0.2,0.4-0.4,0.4H2.4C2.2,16,2,15.8,2,15.6v-1.2C2,14.2,2.2,14,2.4,14h11.2
		C13.8,14,14,14.2,14,14.4z M14.6,10H1.4C1.2,10,1,10.2,1,10.4v1.2C1,11.8,1.2,12,1.4,12h13.2c0.2,0,0.4-0.2,0.4-0.4v-1.2
		C15,10.2,14.8,10,14.6,10z M11.6,8.1c0.2,0,0.4-0.2,0.4-0.4V6.5c0-0.2-0.2-0.4-0.4-0.4H4.4C4.2,6.1,4,6.3,4,6.5v1.2
		c0,0.2,0.2,0.4,0.4,0.4H11.6z M14.6,2H1.4C1.2,2,1,2.2,1,2.4v1.2C1,3.9,1.2,4,1.4,4h13.2C14.8,4,15,3.9,15,3.7V2.4
		C15,2.2,14.8,2,14.6,2z"/>
</g>
<g id="Layer_8" class="st0">
	<path class="st1" d="M15,14.4v1.2c0,0.2-0.2,0.4-0.4,0.4H1.4C1.2,16,1,15.8,1,15.6v-1.2C1,14.2,1.2,14,1.4,14h13.2
		C14.8,14,15,14.2,15,14.4z M1.4,12h10.2c0.2,0,0.4-0.2,0.4-0.4v-1.2c0-0.2-0.2-0.4-0.4-0.4H1.4C1.2,10,1,10.2,1,10.4v1.2
		C1,11.8,1.2,12,1.4,12z M14.6,6H1.4C1.2,6,1,6.2,1,6.4v1.2C1,7.9,1.2,8,1.4,8h13.2C14.8,8,15,7.9,15,7.6V6.4C15,6.2,14.8,6,14.6,6z
		 M1.4,4h7.2C8.8,4,9,3.9,9,3.7V2.4C9,2.2,8.8,2,8.6,2H1.4C1.2,2,1,2.2,1,2.4v1.2C1,3.9,1.2,4,1.4,4z"/>
</g>
<g id="Layer_4" class="st0">
	<path class="st1" d="M4.1,10.3h3.2V12H4.1c-2.2,0-4-1.8-4-4c0-2.2,1.8-4,4-4h3.2v1.7H4.1c-1.3,0-2.3,1-2.3,2.3
		C1.8,9.3,2.9,10.3,4.1,10.3z M11.9,4H8.7v1.7h3.2c1.3,0,2.3,1,2.3,2.3c0,1.3-1,2.3-2.3,2.3H8.7V12h3.2c2.2,0,4-1.8,4-4
		C15.9,5.8,14.1,4,11.9,4z M4.8,8.9h6.4V7.1H4.8V8.9z"/>
</g>
<g id="Layer_4_copy_2" class="st0">
	<path class="st1" d="M4.1,10.3h3.2V12H4.1c-2.2,0-4-1.8-4-4c0-2.2,1.8-4,4-4h3.2v1.7H4.1c-1.3,0-2.3,1-2.3,2.3
		C1.8,9.3,2.9,10.3,4.1,10.3z M4.8,8.9h6.4V7.1H4.8V8.9z M11.1,10.3h4.1c0.5-0.7,0.7-1.4,0.7-2.3c0-2.2-1.8-4-4-4H8.7v1.7h3.2
		c1.3,0,2.3,1,2.3,2.3c0,1.3-1,2.3-2.3,2.3H8.7V12h2.4V10.3z M15.8,11.3H12v1.2h3.8V11.3z"/>
</g>
<g id="Layer_4_copy" class="st0">
	<path class="st1" d="M4.1,10.3h3.2V12H4.1c-2.2,0-4-1.8-4-4c0-2.2,1.8-4,4-4h3.2v1.7H4.1c-1.3,0-2.3,1-2.3,2.3
		C1.8,9.3,2.9,10.3,4.1,10.3z M4.8,8.9h6.4V7.1H4.8V8.9z M14.4,11.1V9.4h-1.2v1.7h-1.6v1.2h1.6V14h1.2v-1.7H16v-1.2H14.4z M14.2,8
		c0,0.2,0,0.4-0.1,0.6h0.8v1.7h0.2c0.5-0.7,0.7-1.4,0.7-2.3c0-2.2-1.8-4-4-4H8.7v1.7h3.2C13.1,5.7,14.2,6.8,14.2,8z M8.7,12h2.4
		v-1.7l0,0H8.7V12z"/>
</g>
<g id="Layer_3" class="st0">
	<path class="st1" d="M10.9,3.5L8.5,14.5h1.6l0,1.5l-6.9,0v-1.5h1.8L7.4,3.5H5.9V2h1.9h3.4h1.6v1.5H10.9z"/>
</g>
<g id="Layer_2" class="st0">
	<path class="st1" d="M11.8,8.8c1-0.7,1.6-1.8,1.6-2.8c0-2.3-1.8-4-4-4H3.2v14h7c2.1,0,3.7-1.7,3.7-3.8C14,10.7,13.1,9.4,11.8,8.8z
		 M6.2,4.5h3c0.8,0,1.5,0.7,1.5,1.5s-0.7,1.5-1.5,1.5h-3V4.5z M9.7,13.5H6.2v-3h3.5c0.8,0,1.5,0.7,1.5,1.5S10.6,13.5,9.7,13.5z"/>
</g>
</svg>
