<svg xmlns="http://www.w3.org/2000/svg" width="38" height="52" viewBox="0 0 38 52">
    <g fill="none" fill-rule="evenodd">
        <path fill="#F0FAFD" d="M4.239 50.304h32v-35h-32z"/>
        <path fill="#D5EAFB" d="M33.239 50.304h3v-35h-3z" style="mix-blend-mode:multiply"/>
        <path fill="#92C7F1" d="M10.31 10.875a.842.842 0 0 1-.777-.53.874.874 0 0 1 .182-.937L18.14.798a.831.831 0 0 1 1.19 0l8.389 8.575a.873.873 0 0 1 .217.83.85.85 0 0 1-.594.607.829.829 0 0 1-.812-.222L18.734 2.62l-7.83 8.003a.83.83 0 0 1-.594.252M36.388 51.243H1.079a.833.833 0 0 1-.594-.251.87.87 0 0 1-.246-.608v-35.23a.87.87 0 0 1 .246-.608.832.832 0 0 1 .594-.252h11.77a.85.85 0 0 1 .84.86.85.85 0 0 1-.84.859H1.92v33.512h33.627V16.013H24.62a.85.85 0 0 1-.841-.86.85.85 0 0 1 .84-.859h11.77a.83.83 0 0 1 .595.252c.157.16.246.38.246.607v35.23a.868.868 0 0 1-.246.609.832.832 0 0 1-.595.251"/>
        <path fill="#92C7F1" d="M18.734 34.917a.832.832 0 0 1-.595-.251.868.868 0 0 1-.246-.609V1.405a.85.85 0 0 1 .84-.859.85.85 0 0 1 .842.86v32.651a.871.871 0 0 1-.247.609.833.833 0 0 1-.594.25"/>
    </g>
</svg>
