<svg xmlns="http://www.w3.org/2000/svg" xmlns:xlink="http://www.w3.org/1999/xlink" width="176" height="123" viewBox="0 0 176 123">
    <defs>
        <path id="prefix__a" d="M0 121.319L71.398 121.319 71.398 0 0 0z"/>
    </defs>
    <g fill="none" fill-rule="evenodd" transform="translate(52 1)">
        <path fill="#FFF" d="M64.45 106.07H6.949c-.728 0-1.322-.594-1.322-1.321V63.93c0-.727.594-1.322 1.322-1.322H64.45c.726 0 1.322.595 1.322 1.322v40.818c0 .727-.596 1.322-1.322 1.322"/>
        <g>
            <path fill="#FFF" d="M70.514.79v1.122c0 2.353-1.552 4.28-3.449 4.28H4.334c-1.898 0-3.45-1.927-3.45-4.28V.791" transform="translate(0 114.243)"/>
            <path stroke="#0194FD" stroke-linecap="round" stroke-linejoin="round" stroke-width="1.5" d="M70.514.79v1.122c0 2.353-1.552 4.28-3.449 4.28H4.334c-1.898 0-3.45-1.927-3.45-4.28V.791" transform="translate(0 114.243)"/>
        </g>
        <g>
            <path fill="#FFF" d="M65.773.084l4.637 8.66c.31.578-.11 1.278-.767 1.278H1.755c-.656 0-1.076-.7-.766-1.278L5.625.084" transform="translate(0 105.987)"/>
            <path stroke="#0194FD" stroke-linecap="round" stroke-linejoin="round" stroke-width="1.5" d="M65.773.084l4.637 8.66c.31.578-.11 1.278-.767 1.278H1.755c-.656 0-1.076-.7-.766-1.278L5.625.084" transform="translate(0 105.987)"/>
        </g>
        <path fill="#CDF3FD" d="M24.338 115.125l1.51-3.754c0-.265.217-.48.48-.48H45.07c.264 0 .48.215.48.48l1.51 3.754"/>
        <g>
            <path fill="#FFF" d="M42.435.597h16.763c1.021 0 1.858.835 1.858 1.857V42.01c0 1.021-.837 1.857-1.858 1.857H2.765c-1.02 0-1.857-.836-1.857-1.857V2.454c0-1.022.836-1.857 1.857-1.857h39.67" transform="translate(4.718 62.35)"/>
            <path stroke="#0194FD" stroke-linecap="round" stroke-linejoin="round" stroke-width="1.5" d="M42.435.597h16.763c1.021 0 1.858.835 1.858 1.857V42.01c0 1.021-.837 1.857-1.858 1.857H2.765c-1.02 0-1.857-.836-1.857-1.857V2.454c0-1.022.836-1.857 1.857-1.857h39.67" transform="translate(4.718 62.35)"/>
        </g>
        <path fill="#CDF3FD" d="M58.884 100.517h-46.37c-.595 0-1.082-.487-1.082-1.082V69.286c0-.594.487-1.081 1.082-1.081h46.37c.595 0 1.082.487 1.082 1.081v30.15c0 .594-.487 1.081-1.082 1.081"/>
        <path fill="#FFF" d="M54.805 44.501H16.576c-1.192 0-2.158-1.421-2.158-3.174V4.29c0-1.88.596-3.405 2.316-3.405h12.482c.97 0 1.837.89 2.174 2.23l.286 1.145c.35 1.396 1.255 2.324 2.268 2.324h20.861c1.193 0 2.16 1.421 2.16 3.174v31.57c0 1.753-.967 3.174-2.16 3.174"/>
        <path stroke="#0194FD" stroke-linecap="round" stroke-linejoin="round" stroke-width="1.5" d="M54.805 44.501H16.576c-1.192 0-2.158-1.421-2.158-3.174V4.29c0-1.88.596-3.405 2.316-3.405h12.482c.97 0 1.837.89 2.174 2.23l.286 1.145c.35 1.396 1.255 2.324 2.268 2.324h20.861c1.193 0 2.16 1.421 2.16 3.174v31.57c0 1.753-.967 3.174-2.16 3.174z"/>
        <mask id="prefix__b" fill="#fff">
            <use xlink:href="#prefix__a"/>
        </mask>
        <path fill="#CDF3FD" d="M18.251 17.061L53.146 17.061 53.146 10.261 18.251 10.261z" mask="url(#prefix__b)"/>
        <path fill="#FFF" d="M59.348 16.894h-47.47c-.48 0-.845.57-.774 1.205L14.418 44.5h42.39l3.313-26.402c.072-.635-.295-1.205-.773-1.205" mask="url(#prefix__b)"/>
        <path stroke="#0194FD" stroke-linecap="round" stroke-linejoin="round" stroke-width="1.5" d="M59.348 16.894h-47.47c-.48 0-.845.57-.774 1.205L14.418 44.5h42.39l3.313-26.402c.072-.635-.295-1.205-.773-1.205z" mask="url(#prefix__b)"/>
        <path fill="#FFF" d="M43.606 37.957l-7.465-7.465c-.244-.244-.64-.244-.884 0l-7.465 7.465c-.72.72-.218 1.95.8 1.962l4.182.049v31.707c0 .5.407.907.908.907h4.034c.501 0 .907-.406.907-.907V39.968l4.183-.049c1.018-.012 1.52-1.243.8-1.962" mask="url(#prefix__b)"/>
        <path stroke="#0194FD" stroke-linecap="round" stroke-linejoin="round" stroke-width="1.5" d="M38.623 52.615V39.968l4.182-.048c1.018-.012 1.52-1.244.801-1.963l-7.464-7.464c-.246-.245-.64-.245-.885 0l-7.464 7.464c-.72.72-.218 1.95.8 1.963l4.182.048v31.707c0 .5.406.907.908.907h4.033c.502 0 .907-.407.907-.907V57.436" mask="url(#prefix__b)"/>
        <path fill="#0194FD" d="M39.39 54.988c0 .423-.343.768-.767.768-.423 0-.768-.345-.768-.768 0-.424.345-.768.768-.768.424 0 .768.344.768.768" mask="url(#prefix__b)"/>
    </g>
</svg>
