<svg xmlns="http://www.w3.org/2000/svg" xmlns:xlink="http://www.w3.org/1999/xlink" width="235" height="167" viewBox="0 0 235 167">
    <defs>
        <path id="a" d="M.28.888h131.91v94.23H.28z"/>
        <path id="c" d="M.91 2.247c0 1.064.838 1.927 1.868 1.927 1.032 0 1.869-.863 1.869-1.927 0-1.065-.837-1.926-1.869-1.926-1.03 0-1.867.861-1.867 1.926z"/>
    </defs>
    <g fill="none" fill-rule="evenodd">
        <path fill="#EAF4F7" d="M167.748 127.097h-116.2c-2.675 0-4.843-2.239-4.843-4.998V43.477c0-2.76 2.168-4.998 4.843-4.998h116.2c2.675 0 4.844 2.237 4.844 4.998V122.1c0 2.76-2.169 4.998-4.844 4.998"/>
        <path fill="#BBD7EE" fill-opacity=".6" d="M168.423 127.097h5.419V38.479h-5.419z"/>
        <g transform="translate(43.24 34.843)">
            <mask id="b" fill="#fff">
                <use xlink:href="#a"/>
            </mask>
            <path fill="#8DC1EB" d="M3.194 38.217v-21.13c0-3.147-.118-6.32 0-9.464C3.292 5 4.998 3.833 7.283 3.785c11.477-.239 22.985 0 34.465 0h75.072c2.978 0 6.024-.193 8.997 0 2.78.18 3.39 2.415 3.39 4.726V86.557c0 2.525-.06 5.231-3.33 5.549-.674.065-1.385 0-2.061 0H12.687c-3.17 0-9.059 1.133-9.493-3.463-.339-3.586 0-7.37 0-10.975V59.99c0-1.853-2.792-1.857-2.792 0v25.57c0 1.542-.182 3.281.22 4.787.837 3.144 3.594 4.603 6.54 4.637 12.03.141 24.066 0 36.094 0H119.266c3.134 0 7.894.778 10.486-1.438 3.416-2.921 2.246-9.768 2.246-13.815V53.914c0-15.322.174-30.659 0-45.984-.039-3.445-1.892-6.575-5.48-6.98-.913-.104-1.853-.045-2.77-.045H10.297c-1.184 0-2.375-.038-3.558 0C3.153 1.025.534 3.61.402 7.342c-.274 7.847 0 15.757 0 23.608v7.267c0 1.854 2.792 1.857 2.792 0" mask="url(#b)"/>
        </g>
        <g transform="translate(42.042 81.784)">
            <mask id="d" fill="#fff">
                <use xlink:href="#c"/>
            </mask>
            <path fill="#8DC1EB" d="M-5.313 10.598H10.87V-6.104H-5.313z" mask="url(#d)"/>
        </g>
        <path fill="#8DC1EB" d="M45.038 49.542h128.804c1.796 0 1.798-2.88 0-2.88H45.038c-1.796 0-1.8 2.88 0 2.88M52.958 42.565c0 .832-.654 1.505-1.46 1.505-.805 0-1.459-.673-1.459-1.505 0-.832.654-1.506 1.46-1.506.805 0 1.459.674 1.459 1.506M57.543 42.565c0 .832-.653 1.505-1.459 1.505s-1.46-.673-1.46-1.505c0-.832.654-1.506 1.46-1.506.806 0 1.46.674 1.46 1.506M62.128 42.565c0 .832-.653 1.505-1.459 1.505-.805 0-1.459-.673-1.459-1.505 0-.832.654-1.506 1.46-1.506.805 0 1.458.674 1.458 1.506M122.334 98.775c.378.913-.031 1.973-.917 2.365-.886.391-1.911-.032-2.29-.946-1.67-4.02-5.639-6.631-10.112-6.645-4.577-.016-8.587 2.564-10.213 6.572a1.75 1.75 0 0 1-1.616 1.105 1.71 1.71 0 0 1-.668-.14c-.89-.385-1.307-1.44-.934-2.357 2.174-5.354 7.453-8.8 13.443-8.781 5.866.02 11.09 3.485 13.307 8.827M94.784 76.919c-.394-.705-.157-1.607.526-2.011l5.26-3.12a1.407 1.407 0 0 1 1.95.544c.395.707.159 1.607-.526 2.013l-5.26 3.116a1.402 1.402 0 0 1-1.95-.542M122.879 76.352c-.296.755-1.128 1.12-1.86.814l-5.624-2.347c-.731-.306-1.083-1.166-.789-1.92.296-.755 1.13-1.119 1.86-.814l5.624 2.348c.732.307 1.086 1.165.789 1.919M102.947 76.983a2.657 2.657 0 0 1 0 3.671 2.461 2.461 0 0 1-3.557-.001 2.653 2.653 0 0 1 0-3.67 2.46 2.46 0 0 1 3.557 0M117.95 76.94a2.655 2.655 0 0 1 0 3.67 2.462 2.462 0 0 1-3.559 0 2.657 2.657 0 0 1 0-3.67 2.463 2.463 0 0 1 3.559 0"/>
        <path fill="#EAF4F7" d="M158.487 120.738l-122.775-4.931c-2.673-.108-4.756-2.431-4.652-5.188l3.138-83.211c.104-2.757 2.355-4.907 5.028-4.8l122.776 4.93c2.673.108 4.755 2.43 4.651 5.19l-3.137 83.209c-.104 2.76-2.356 4.909-5.029 4.801"/>
        <path fill="#BBD7EE" fill-opacity=".6" d="M157.759 121.19l3.563-94.49c2.99.12 5.32 2.72 5.203 5.806l-3.14 83.312c-.117 3.086-2.636 5.491-5.626 5.371"/>
        <path fill="#8DC1EB" d="M34.517 33.197l44.222 1.776c23.5.945 47 1.888 70.5 2.83l16.204.653c1.796.072 1.793-2.809 0-2.88l-44.222-1.777-70.5-2.831-16.204-.65c-1.795-.073-1.793 2.807 0 2.88M42.97 27.329c-.03.831-.71 1.477-1.514 1.445-.805-.031-1.433-.733-1.401-1.563.03-.831.71-1.478 1.515-1.446.804.033 1.432.732 1.4 1.564M47.552 27.512c-.03.831-.71 1.479-1.514 1.446-.805-.032-1.433-.732-1.402-1.563.032-.832.71-1.478 1.516-1.446.804.032 1.431.732 1.4 1.563M52.134 27.696c-.03.832-.71 1.478-1.514 1.446-.806-.031-1.433-.732-1.402-1.563.031-.831.71-1.479 1.515-1.446.805.033 1.432.732 1.401 1.563M109.205 86.163c.283.766-.088 1.623-.829 1.917-.74.293-1.572-.09-1.856-.855-1.25-3.364-4.436-5.645-8.12-5.805-3.766-.165-7.147 1.828-8.611 5.074-.253.559-.802.88-1.365.856a1.381 1.381 0 0 1-.546-.137c-.719-.347-1.031-1.23-.695-1.973 1.956-4.336 6.408-6.998 11.34-6.783 4.829.21 9.022 3.234 10.682 7.706"/>
        <path fill="#8DC1EB" d="M51.631 23.735l-.055-.001-5.578-.225c-.77-.03-1.37-.7-1.34-1.495.03-.794.672-1.413 1.449-1.382l5.578.225c.77.03 1.37.699 1.34 1.494-.03.776-.648 1.384-1.394 1.384m11.156.447l-.055-.001-5.578-.223c-.771-.032-1.37-.701-1.34-1.494.03-.796.673-1.416 1.448-1.384l5.579.224c.77.032 1.369.7 1.339 1.495-.03.775-.648 1.383-1.393 1.383m11.156.45c-.02 0-.038 0-.056-.002l-5.577-.224c-.771-.03-1.371-.7-1.341-1.495.03-.796.676-1.424 1.448-1.382l5.578.224c.771.03 1.37.7 1.34 1.494-.03.776-.648 1.385-1.392 1.385m11.154.447l-.055-.001-5.578-.225c-.77-.03-1.37-.7-1.34-1.495.03-.793.68-1.423 1.449-1.382l5.578.225c.77.03 1.37.699 1.34 1.494-.03.776-.648 1.384-1.394 1.384m11.156.448h-.055l-5.578-.225c-.77-.032-1.37-.7-1.34-1.494.03-.796.672-1.426 1.449-1.384l5.578.224c.77.032 1.37.701 1.34 1.495-.03.775-.648 1.384-1.394 1.384m11.156.447h-.055l-5.578-.224c-.77-.031-1.37-.7-1.341-1.495.031-.794.692-1.423 1.45-1.382l5.576.223c.771.031 1.37.7 1.34 1.495-.028.776-.647 1.383-1.392 1.383m-71.72.036a1.36 1.36 0 0 1-.875-.32c-.6-.499-.693-1.407-.209-2.026 1.415-1.807 3.506-2.968 5.739-3.187.767-.071 1.448.507 1.52 1.299.073.792-.49 1.494-1.257 1.57-1.49.144-2.885.921-3.832 2.13a1.375 1.375 0 0 1-1.085.534m82.874.413l-.055-.001-5.578-.224c-.77-.03-1.37-.7-1.339-1.495.03-.794.67-1.408 1.448-1.383l5.578.225c.77.03 1.37.699 1.34 1.494-.03.776-.648 1.384-1.394 1.384m11.156.448h-.055l-5.578-.226c-.77-.03-1.37-.699-1.34-1.494.03-.794.688-1.412 1.448-1.383l5.578.224c.77.03 1.37.7 1.34 1.496-.03.776-.647 1.383-1.393 1.383m11.156.447h-.055l-5.578-.223c-.77-.032-1.37-.702-1.34-1.495.03-.795.686-1.408 1.448-1.383l5.578.223c.77.031 1.37.7 1.34 1.495-.03.776-.647 1.383-1.393 1.383m11.154.45l-.055-.001-5.576-.225c-.771-.03-1.37-.7-1.34-1.495.029-.794.683-1.421 1.447-1.382l5.578.224c.77.03 1.37.7 1.34 1.494-.029.775-.648 1.385-1.394 1.385m11.002 1.235c-.232 0-.468-.06-.684-.186a5.42 5.42 0 0 0-2.53-.735l-2.265-.093c-.77-.03-1.37-.699-1.34-1.494.03-.794.684-1.416 1.45-1.383l2.264.09a8.233 8.233 0 0 1 3.79 1.106c.672.39.91 1.267.53 1.96-.255.471-.728.735-1.215.735M33.886 37.158l-.055-.002c-.771-.03-1.37-.7-1.34-1.496l.217-5.755c.029-.794.672-1.41 1.448-1.383.77.03 1.37.7 1.34 1.494l-.217 5.757c-.03.776-.647 1.385-1.393 1.385m132.58 2.01l-.055-.002c-.77-.03-1.37-.7-1.34-1.496l.134-3.578a5.994 5.994 0 0 0-.186-1.728c-.199-.768.243-1.557.987-1.763.746-.205 1.51.25 1.708 1.018a8.88 8.88 0 0 1 .28 2.585l-.135 3.579c-.029.775-.647 1.384-1.393 1.384M33.45 48.671c-.018 0-.037 0-.055-.002-.77-.032-1.37-.7-1.34-1.494l.218-5.758c.03-.794.671-1.407 1.448-1.382.77.03 1.37.7 1.34 1.494l-.217 5.757c-.029.776-.648 1.385-1.394 1.385m132.58 2.008h-.055c-.77-.032-1.369-.7-1.34-1.495l.218-5.757c.03-.793.685-1.406 1.448-1.383.77.033 1.37.7 1.34 1.495l-.216 5.757c-.03.775-.649 1.383-1.395 1.383M33.017 60.183h-.055c-.77-.032-1.37-.701-1.34-1.497l.217-5.755c.03-.795.673-1.416 1.448-1.383.771.03 1.371.7 1.341 1.494L34.41 58.8c-.029.775-.647 1.384-1.393 1.384m132.58 2.01h-.055c-.77-.033-1.37-.703-1.34-1.497l.217-5.755c.031-.796.69-1.41 1.448-1.384.771.031 1.37.7 1.341 1.496l-.217 5.756c-.03.775-.648 1.384-1.394 1.384M32.584 71.695l-.055-.001c-.771-.03-1.371-.7-1.341-1.495l.218-5.756c.029-.795.672-1.412 1.447-1.383.77.03 1.37.7 1.34 1.495l-.217 5.757c-.029.775-.648 1.383-1.392 1.383m132.58 2.01l-.055-.001c-.77-.03-1.371-.7-1.341-1.495l.217-5.756c.03-.795.685-1.42 1.448-1.383.77.03 1.37.7 1.34 1.495l-.216 5.756c-.029.776-.648 1.384-1.393 1.384M32.148 83.239l-.055-.001c-.771-.031-1.37-.7-1.34-1.495l.217-5.756c.03-.795.673-1.427 1.448-1.399.77.03 1.371.685 1.341 1.478l-.218 5.79c-.029.774-.647 1.383-1.393 1.383m132.581 1.979l-.055-.001c-.77-.031-1.37-.7-1.34-1.495l.217-5.756c.03-.795.69-1.422 1.449-1.384.77.032 1.37.702 1.34 1.495l-.216 5.756c-.03.776-.65 1.385-1.395 1.385M31.713 94.751c-.018 0-.035 0-.055-.002-.77-.03-1.37-.699-1.34-1.494l.218-5.755c.03-.795.675-1.42 1.448-1.384.77.03 1.37.7 1.34 1.495l-.217 5.756c-.029.776-.648 1.384-1.394 1.384m132.583 1.98l-.055-.001c-.771-.032-1.37-.7-1.34-1.495l.216-5.757c.03-.794.684-1.423 1.448-1.382.77.03 1.37.7 1.34 1.495l-.216 5.756c-.03.776-.648 1.384-1.393 1.384M31.28 106.265l-.056-.001c-.77-.032-1.37-.7-1.34-1.495l.217-5.758c.03-.794.675-1.425 1.448-1.382.771.03 1.371.7 1.341 1.495l-.217 5.756c-.03.775-.648 1.385-1.393 1.385m132.581 1.979l-.055-.001c-.77-.031-1.37-.7-1.34-1.496l.216-5.756c.031-.795.69-1.414 1.45-1.383.77.03 1.37.7 1.34 1.495l-.217 5.756c-.03.776-.648 1.385-1.394 1.385M34.724 116.42c-.231 0-.466-.059-.681-.184-1.962-1.134-3.424-3.067-4.009-5.301-.201-.768.238-1.56.983-1.767.743-.206 1.51.246 1.71 1.014a5.808 5.808 0 0 0 2.68 3.542c.672.388.912 1.266.535 1.96a1.39 1.39 0 0 1-1.218.736m11.006 1.227l-.055-.001-5.578-.222c-.77-.033-1.37-.7-1.34-1.495.03-.796.678-1.418 1.449-1.384l5.578.224c.77.032 1.37.7 1.34 1.495-.03.775-.648 1.383-1.394 1.383m11.156.45l-.055-.001-5.578-.225c-.77-.03-1.37-.7-1.34-1.495.03-.794.67-1.427 1.449-1.382l5.578.223c.77.031 1.369.7 1.339 1.496-.029.775-.648 1.384-1.393 1.384m11.155.447l-.055-.001-5.577-.224c-.771-.03-1.371-.7-1.341-1.495.03-.794.673-1.416 1.448-1.383l5.578.225c.771.03 1.37.699 1.34 1.494-.028.776-.647 1.384-1.393 1.384m11.156.448h-.055l-5.579-.224c-.77-.033-1.37-.7-1.34-1.495.03-.796.676-1.418 1.449-1.382l5.578.222c.77.032 1.37.702 1.34 1.495-.03.775-.647 1.384-1.393 1.384m82.865.4c-.307 0-.616-.103-.874-.317-.6-.499-.695-1.406-.213-2.025a5.852 5.852 0 0 0 1.23-3.399l.044-1.149c.03-.794.664-1.416 1.448-1.382.77.03 1.37.7 1.34 1.495l-.043 1.148a8.764 8.764 0 0 1-1.844 5.092c-.275.354-.68.538-1.088.538m-71.709.048l-.056-.001-5.578-.225c-.77-.03-1.37-.7-1.34-1.495.03-.796.678-1.417 1.449-1.382l5.578.223c.77.031 1.37.7 1.339 1.495-.029.776-.648 1.385-1.392 1.385m11.155.447l-.054-.001-5.578-.224c-.771-.03-1.37-.7-1.34-1.495.03-.794.686-1.42 1.448-1.383l5.577.225c.77.03 1.37.699 1.34 1.494-.029.776-.648 1.384-1.393 1.384m11.155.448h-.055l-5.578-.224c-.77-.031-1.37-.7-1.34-1.495.03-.794.67-1.42 1.45-1.384l5.577.224c.77.03 1.37.7 1.34 1.496-.03.776-.648 1.383-1.394 1.383m11.156.448c-.018 0-.037 0-.055-.002l-5.578-.222c-.77-.032-1.37-.702-1.34-1.496.03-.794.688-1.414 1.449-1.382l5.577.223c.77.031 1.37.7 1.34 1.495-.03.776-.647 1.384-1.393 1.384m11.156.45l-.056-.002-5.577-.225c-.771-.03-1.37-.699-1.34-1.495.03-.794.685-1.418 1.448-1.383l5.577.225c.771.03 1.371.7 1.341 1.494-.03.776-.647 1.385-1.393 1.385m11.156.447h-.056l-5.579-.226c-.77-.03-1.369-.699-1.339-1.494.03-.793.685-1.423 1.448-1.383l5.578.225c.771.03 1.37.7 1.34 1.495-.03.776-.647 1.383-1.392 1.383m10.474.415c-.11 0-.221-.002-.333-.006l-4.619-.185c-.77-.032-1.37-.702-1.34-1.495.03-.795.674-1.41 1.448-1.383l4.62.185c.259.011.515.002.769-.023.764-.076 1.448.505 1.522 1.295.076.792-.487 1.495-1.254 1.573-.268.026-.542.04-.813.04M19.265 28.032c-.627 0-1.145-.516-1.16-1.167-.019-.663.487-1.215 1.13-1.232l5.466-.15c.645-.014 1.176.504 1.193 1.168.017.662-.49 1.213-1.131 1.231l-5.467.15h-.03zM35.671 13.12c-.632 0-1.15-.522-1.162-1.177l-.088-4.75c-.012-.662.498-1.209 1.14-1.221.653-.009 1.173.514 1.185 1.176l.087 4.75c.013.661-.498 1.209-1.14 1.222h-.022zM27.787 17.511a1.14 1.14 0 0 1-.67-.22l-6.035-4.396a1.226 1.226 0 0 1-.279-1.673 1.14 1.14 0 0 1 1.62-.287l6.036 4.395c.524.383.65 1.131.279 1.674-.226.33-.585.507-.95.507M90.593 70.273a.908.908 0 0 1-1.314-.001l-2.438-2.515-2.438 2.516a.908.908 0 0 1-1.313 0 .966.966 0 0 1-.272-.678.966.966 0 0 1 .272-.678l2.438-2.517-2.438-2.516a.967.967 0 0 1-.272-.678c0-.245.09-.49.272-.677a.91.91 0 0 1 1.313 0l2.438 2.518 2.44-2.52a.91.91 0 0 1 1.312.002.98.98 0 0 1 0 1.355l-2.44 2.516 2.44 2.518a.982.982 0 0 1 0 1.355"/>
        <path stroke="#8DC1EB" stroke-width=".5" d="M90.593 70.273a.908.908 0 0 1-1.314-.001l-2.438-2.515-2.438 2.516a.908.908 0 0 1-1.313 0 .966.966 0 0 1-.272-.678.966.966 0 0 1 .272-.678l2.438-2.517-2.438-2.516a.967.967 0 0 1-.272-.678c0-.245.09-.49.272-.677a.91.91 0 0 1 1.313 0l2.438 2.518 2.44-2.52a.91.91 0 0 1 1.312.002.98.98 0 0 1 0 1.355l-2.44 2.516 2.44 2.518a.982.982 0 0 1 0 1.355z"/>
        <path fill="#8DC1EB" d="M111.188 70.273a.908.908 0 0 1-1.315-.001l-2.438-2.515-2.438 2.516a.908.908 0 0 1-1.313 0 .966.966 0 0 1-.272-.678.966.966 0 0 1 .272-.678l2.438-2.517-2.438-2.516a.974.974 0 0 1 0-1.355.91.91 0 0 1 1.313 0l2.438 2.518 2.44-2.52a.91.91 0 0 1 1.313.002.98.98 0 0 1 0 1.355l-2.44 2.516 2.44 2.518a.982.982 0 0 1 0 1.355"/>
        <path stroke="#8DC1EB" stroke-width=".5" d="M111.188 70.273a.908.908 0 0 1-1.315-.001l-2.438-2.515-2.438 2.516a.908.908 0 0 1-1.313 0 .966.966 0 0 1-.272-.678.966.966 0 0 1 .272-.678l2.438-2.517-2.438-2.516a.974.974 0 0 1 0-1.355.91.91 0 0 1 1.313 0l2.438 2.518 2.44-2.52a.91.91 0 0 1 1.313.002.98.98 0 0 1 0 1.355l-2.44 2.516 2.44 2.518a.982.982 0 0 1 0 1.355z"/>
        <path fill="#8DC1EB" d="M55.081 152.96s15.543-4.325 51.68-4.325 51.291 4.324 51.291 4.324 6.217 1.853-1.165 3.397c-7.383 1.544-30.697 4.325-50.126 4.325-8.682 0-17.34-.457-25.98-1.098-7.797-.577-15.753-.88-23.229-2.897-2.742-.74-7.198-2.343-2.47-3.727"/>
        <path fill-rule="nonzero" stroke="#8DC1EB" stroke-linecap="round" stroke-width="3" d="M30.826 79.013c-4 1.334-8 1.334-12 0-6-2-10-7.5-7.5-18.5M195.837 74.728c-2.25 4.72-5.556 8.522-9.916 11.407-6.54 4.328-14.196 4.348-20.833-5.594"/>
        <path fill="#EAF4F7" fill-rule="nonzero" d="M187.18 37.713l32.898-8.816 5.291 19.745-32.9 8.815z"/>
        <path fill-rule="nonzero" stroke="#8DC1EB" stroke-width="3" d="M199.996 85.82l-6.361-23.74-1.234-4.605-5.222-19.488 32.899-8.815L225.3 48.66l-32.9 8.815"/>
    </g>
</svg>
