<?xml version="1.0" encoding="UTF-8"?>
<svg width="22px" height="20px" viewBox="0 0 22 20" version="1.1" xmlns="http://www.w3.org/2000/svg" xmlns:xlink="http://www.w3.org/1999/xlink">
    <title>Ic_crown</title>
    <g id="Page-1" stroke="none" stroke-width="1" fill="none" fill-rule="evenodd">
        <g id="ICONOS-2-Copy" transform="translate(-351.761187, -156.695825)" fill="#e3a344" fill-rule="nonzero">
            <g id="Archive-Copy-2" transform="translate(352.000000, 156.695825)">
                <path d="M9.91454066,3.92613374 C10.2611592,3.34953668 11.13166,3.36022645 11.4628084,3.9451465 L11.4628084,3.9451465 L14.751146,9.74811286 L18.6798126,7.65623541 C19.3721858,7.28750292 20.1722977,7.90625801 19.9673692,8.62279597 L19.9673692,8.62279597 L19.9514272,8.67293445 L17.4134731,15.9190497 C17.2911905,16.2688323 16.9483569,16.5033126 16.5641174,16.5 L16.5641174,16.5 L4.82589108,16.4045335 C4.46220308,16.401684 4.13714046,16.1860437 4.00568654,15.8604254 L4.00568654,15.8604254 L1.06309215,8.5836661 C0.76135959,7.83730846 1.60103896,7.13955836 2.32696303,7.53342471 L2.32696303,7.53342471 L6.41632246,9.75220306 Z" id="Stroke-1"></path>
            </g>
        </g>
    </g>
</svg>