<svg xmlns="http://www.w3.org/2000/svg" xmlns:xlink="http://www.w3.org/1999/xlink" width="199" height="163" viewBox="0 0 199 163">
    <defs>
        <path id="a" d="M0 .522h155.163v80.511H0z"/>
    </defs>
    <g fill="none" fill-rule="evenodd">
        <g transform="translate(21.686 18.075)">
            <mask id="b" fill="#fff">
                <use xlink:href="#a"/>
            </mask>
            <path fill="#26282F" d="M143.585 65h-6.537c-4.54 0-8.256-3.628-8.256-8.06s3.716-8.06 8.256-8.06h5.58-.01 4.29c4.54 0 8.255-3.627 8.255-8.06 0-4.431-3.715-8.058-8.256-8.058h-20.81v-.002h.002l.053-.002h-10.428c-4.541 0-8.256-3.628-8.256-8.06 0-4.433 3.715-8.059 8.256-8.059h6.008c4.534-.007 8.24-3.63 8.24-8.058 0-4.432-3.714-8.06-8.254-8.06H26.047c-4.541 0-8.256 3.628-8.256 8.06s3.715 8.06 8.256 8.06h12.427v.014c-.081.003-.16.014-.24.019h.074c4.54 0 8.255 3.626 8.255 8.06 0 4.431-3.715 8.057-8.255 8.057H7.658C3.394 33.094 0 36.585 0 40.821c0 4.13 3.226 7.556 7.337 8.005h17.969c4.54 0 8.254 3.627 8.254 8.06 0 4.433-3.714 8.059-8.254 8.059h-1.603c-4.267.298-7.665 3.791-7.665 8.03 0 4.43 3.715 8.058 8.256 8.058H142.46c4.54 0 8.256-3.627 8.256-8.059 0-4.06-3.12-7.434-7.132-7.974" mask="url(#b)"/>
        </g>
        <path stroke="#000" stroke-linecap="round" stroke-linejoin="round" stroke-width="1.976" d="M63.8 55.484l-1.31-3.726a3.356 3.356 0 0 1 2.048-4.267l22.437-7.887a3.358 3.358 0 0 1 4.268 2.048l1.31 3.726"/>
        <path fill="#ACABB1" d="M112.551 48.672c-1.813-5.157-7.947-7.742-13.631-5.745L57.299 57.556c-5.684 1.999-8.853 7.852-7.04 13.01l2.237 6.364 62.3-21.897-2.245-6.36"/>
        <path stroke="#000" stroke-linecap="round" stroke-linejoin="round" stroke-width="2.16" d="M112.551 48.672c-1.813-5.157-7.947-7.742-13.631-5.745L57.299 57.556c-5.684 1.999-8.853 7.852-7.04 13.01l2.237 6.364 62.3-21.897-2.245-6.36"/>
        <path fill="#F0FAFD" d="M58.16 63.083l18.818-6.614"/>
        <path stroke="#000" stroke-linecap="round" stroke-linejoin="round" stroke-width="1.885" d="M58.16 63.083l18.818-6.614"/>
        <path fill="#ACABB1" d="M123.585 155.976H74.978a6.863 6.863 0 0 1-6.853-6.466l-4.268-73.518h70.849l-4.269 73.518a6.863 6.863 0 0 1-6.852 6.466"/>
        <path stroke="#000" stroke-linecap="round" stroke-linejoin="round" stroke-width="2.16" d="M123.585 155.976H74.978a6.863 6.863 0 0 1-6.853-6.466l-4.268-73.518h70.849l-4.269 73.518a6.863 6.863 0 0 1-6.852 6.466z"/>
        <path fill="#ACABB1" d="M93.302 56.893l25.86-9.09a1.462 1.462 0 0 1 1.862.896l2.7 7.684a1.461 1.461 0 0 1-.894 1.863l-74.6 26.219a1.46 1.46 0 0 1-1.864-.894l-2.7-7.683a1.462 1.462 0 0 1 .894-1.864l42.588-14.969"/>
        <path stroke="#000" stroke-linecap="round" stroke-linejoin="round" stroke-width="2.16" d="M93.302 56.893l25.86-9.09a1.462 1.462 0 0 1 1.862.896l2.7 7.684a1.461 1.461 0 0 1-.894 1.863l-74.6 26.219a1.46 1.46 0 0 1-1.864-.894l-2.7-7.683a1.462 1.462 0 0 1 .894-1.864l42.588-14.969"/>
        <path stroke="#000" stroke-linecap="round" stroke-linejoin="round" stroke-width="1.976" d="M77.878 132.125l1.5 23.466M74.425 78.071l2.973 47.868M88.139 78.183l3.558 77.092M124.137 78.071l-4.431 77.708M110.423 78.183l-3.037 77.28"/>
    </g>
</svg>
