<svg xmlns="http://www.w3.org/2000/svg" xmlns:xlink="http://www.w3.org/1999/xlink" width="199" height="162" viewBox="0 0 199 162">
    <defs>
        <path id="a" d="M0 .522h154.925v80.387H0z"/>
    </defs>
    <g fill="none" fill-rule="evenodd">
        <g transform="translate(21.59 17.213)">
            <mask id="b" fill="#fff">
                <use xlink:href="#a"/>
            </mask>
            <path fill="#E3F7FC" d="M143.364 64.9h-6.527c-4.533 0-8.242-3.622-8.242-8.047 0-4.425 3.71-8.047 8.242-8.047h5.572l-.009-.001h4.283c4.533 0 8.243-3.62 8.243-8.047 0-4.425-3.71-8.046-8.243-8.046h-20.778v-.002c.019 0 .036-.003.054-.003h-10.413c-4.534 0-8.243-3.621-8.243-8.047s3.71-8.047 8.243-8.047h6c4.527-.006 8.228-3.625 8.228-8.045 0-4.425-3.709-8.047-8.243-8.047H26.006c-4.533 0-8.243 3.622-8.243 8.047 0 4.425 3.71 8.047 8.243 8.047h12.408v.015c-.08.002-.157.014-.237.018h.072c4.533 0 8.243 3.621 8.243 8.047 0 4.425-3.71 8.046-8.243 8.046H7.645C3.39 33.044 0 36.529 0 40.758c0 4.124 3.22 7.545 7.327 7.993h17.94c4.534 0 8.243 3.621 8.243 8.047 0 4.427-3.71 8.047-8.243 8.047h-1.6c-4.26.298-7.653 3.786-7.653 8.017 0 4.425 3.71 8.047 8.242 8.047h117.987c4.532 0 8.242-3.622 8.242-8.047 0-4.053-3.114-7.423-7.12-7.962" mask="url(#b)"/>
        </g>
        <path stroke="#92C7F1" stroke-linecap="round" stroke-linejoin="round" stroke-width="1.976" d="M63.639 54.565l-1.308-3.72a3.35 3.35 0 0 1 2.045-4.261l22.402-7.875a3.353 3.353 0 0 1 4.262 2.045l1.307 3.72"/>
        <path fill="#F0FAFD" d="M112.315 47.763c-1.81-5.15-7.934-7.73-13.61-5.736L57.148 56.633c-5.677 1.996-8.84 7.84-7.03 12.99l2.234 6.355 62.203-21.863-2.24-6.352"/>
        <path stroke="#92C7F1" stroke-linecap="round" stroke-linejoin="round" stroke-width="2.16" d="M112.315 47.763c-1.81-5.15-7.934-7.73-13.61-5.736L57.148 56.633c-5.677 1.996-8.84 7.84-7.03 12.99l2.234 6.355 62.203-21.863-2.24-6.352"/>
        <path fill="#F0FAFD" d="M58.007 62.152l18.79-6.604"/>
        <path stroke="#92C7F1" stroke-linecap="round" stroke-linejoin="round" stroke-width="1.885" d="M58.007 62.152l18.79-6.604"/>
        <path fill="#F0FAFD" d="M123.332 154.903H74.8a6.854 6.854 0 0 1-6.843-6.456l-4.26-73.405h70.74l-4.262 73.405a6.852 6.852 0 0 1-6.842 6.456"/>
        <path stroke="#92C7F1" stroke-linecap="round" stroke-linejoin="round" stroke-width="2.16" d="M123.332 154.903H74.8a6.854 6.854 0 0 1-6.843-6.456l-4.26-73.405h70.74l-4.262 73.405a6.852 6.852 0 0 1-6.842 6.456z"/>
        <path fill="#F0FAFD" d="M93.096 55.972l25.819-9.075a1.46 1.46 0 0 1 1.86.893l2.696 7.673a1.459 1.459 0 0 1-.892 1.86L48.092 83.501a1.458 1.458 0 0 1-1.86-.892l-2.697-7.673a1.46 1.46 0 0 1 .893-1.86l42.523-14.945"/>
        <path stroke="#92C7F1" stroke-linecap="round" stroke-linejoin="round" stroke-width="2.16" d="M93.096 55.972l25.819-9.075a1.46 1.46 0 0 1 1.86.893l2.696 7.673a1.459 1.459 0 0 1-.892 1.86L48.092 83.501a1.458 1.458 0 0 1-1.86-.892l-2.697-7.673a1.46 1.46 0 0 1 .893-1.86l42.523-14.945"/>
        <path fill="#F0FAFD" d="M77.695 131.089l1.497 23.43"/>
        <path stroke="#92C7F1" stroke-linecap="round" stroke-linejoin="round" stroke-width="1.976" d="M77.695 131.089l1.497 23.43"/>
        <g>
            <path fill="#F0FAFD" d="M74.247 77.118l2.969 47.793"/>
            <path stroke="#92C7F1" stroke-linecap="round" stroke-linejoin="round" stroke-width="1.976" d="M74.247 77.118l2.969 47.793"/>
        </g>
        <g>
            <path fill="#F0FAFD" d="M87.94 77.23l3.553 76.973"/>
            <path stroke="#92C7F1" stroke-linecap="round" stroke-linejoin="round" stroke-width="1.976" d="M87.94 77.23l3.553 76.973"/>
        </g>
        <g>
            <path fill="#F0FAFD" d="M123.884 77.118l-4.426 77.588"/>
            <path stroke="#92C7F1" stroke-linecap="round" stroke-linejoin="round" stroke-width="1.976" d="M123.884 77.118l-4.426 77.588"/>
        </g>
        <g>
            <path fill="#F0FAFD" d="M110.19 77.23l-3.033 77.16"/>
            <path stroke="#92C7F1" stroke-linecap="round" stroke-linejoin="round" stroke-width="1.976" d="M110.19 77.23l-3.033 77.16"/>
        </g>
    </g>
</svg>
