<svg xmlns="http://www.w3.org/2000/svg" xmlns:xlink="http://www.w3.org/1999/xlink" width="50" height="50" viewBox="0 0 50 50">
    <defs>
        <path id="a" d="M0 .218h49.944v19.08H0z"/>
        <path id="c" d="M0 .094h1.431v1.434H0z"/>
    </defs>
    <g fill="none" fill-rule="evenodd">
        <path fill="#F0FAFD" d="M13.462 38.596l7.758-6.068a6.145 6.145 0 0 1 7.559 0l7.757 6.068-5.794-4.533 18.38-11.877-19.82-19.551c-2.377-2.344-6.228-2.344-8.603 0L.877 22.186l18.38 11.877-5.795 4.533z"/>
        <path fill="#F0FAFD" d="M2.906 22.807v26.316L19.298 34.71zM30.702 34.711l18.42 14.412V22.807z"/>
        <path fill="#F0FAFD" d="M21.22 32.903L.877 49.123h48.246l-20.344-16.22a6.056 6.056 0 0 0-7.559 0"/>
        <g transform="translate(0 30.702)">
            <mask id="b" fill="#fff">
                <use xlink:href="#a"/>
            </mask>
            <path fill="#92C7F1" d="M49.112 19.298H.833a.831.831 0 0 1-.517-1.48l20.357-16.1c2.53-2 6.067-2 8.6 0l20.355 16.1a.83.83 0 0 1-.516 1.48zm-45.89-1.66h43.5L28.238 3.018a5.246 5.246 0 0 0-6.531 0L3.22 17.637z" mask="url(#b)"/>
        </g>
        <path fill="#D5EAFB" d="M46.07 25.008L49 23v26l-2.93-2.039z"/>
        <path fill="#92C7F1" d="M49.163 50a.847.847 0 0 1-.52-.179l-18.5-14.468a.818.818 0 0 1 .06-1.337l18.502-11.953a.855.855 0 0 1 .857-.035.827.827 0 0 1 .438.726v26.42a.836.836 0 0 1-.837.825zM32.091 34.77l16.235 12.695V24.282L32.09 34.77z"/>
        <path fill="#92C7F1" d="M36.515 40.034a.83.83 0 0 1-.515-.179l-5.798-4.538a.101.101 0 0 1-.015-.014l-1.95-1.525a5.29 5.29 0 0 0-6.53 0l-1.949 1.526-.015.013-5.798 4.538a.84.84 0 0 1-1.17-.133.815.815 0 0 1 .135-1.154l4.894-3.832L.377 23.464a.816.816 0 0 1-.133-1.268L20.08 2.614a6.92 6.92 0 0 1 4.891-2c1.85 0 3.587.711 4.893 2L49.7 22.196a.815.815 0 0 1-.133 1.267L32.14 34.736l4.894 3.832c.36.282.421.798.134 1.154a.834.834 0 0 1-.653.312zm-34.37-17.39L19.179 33.66l1.494-1.17a6.962 6.962 0 0 1 8.598 0l1.494 1.17L47.8 22.644 28.688 3.778a5.258 5.258 0 0 0-3.717-1.52c-1.403 0-2.722.54-3.715 1.52L2.145 22.644z"/>
        <g transform="translate(0 35.965)">
            <mask id="d" fill="#fff">
                <use xlink:href="#c"/>
            </mask>
            <path fill="#92C7F1" d="M1.431.811A.716.716 0 1 1 0 .812a.716.716 0 0 1 1.432 0" mask="url(#d)"/>
        </g>
        <path fill="#92C7F1" d="M.838 50a.846.846 0 0 1-.366-.083.823.823 0 0 1-.472-.742v-9.083c0-.455.375-.825.838-.825.461 0 .836.37.836.825v7.374L17.91 34.77 1.674 24.283v9.204a.832.832 0 0 1-.836.827.832.832 0 0 1-.838-.827V22.755c0-.304.168-.582.438-.728a.856.856 0 0 1 .857.037l18.503 11.953a.823.823 0 0 1 .377.652.822.822 0 0 1-.317.684L1.357 49.821a.846.846 0 0 1-.52.179"/>
    </g>
</svg>
