<svg xmlns="http://www.w3.org/2000/svg" xmlns:xlink="http://www.w3.org/1999/xlink" width="199" height="163" viewBox="0 0 199 163">
    <defs>
        <path id="a" d="M0 .236h154.42V80.36H0z"/>
    </defs>
    <g fill="none" fill-rule="evenodd">
        <g transform="translate(22.216 18.184)">
            <mask id="b" fill="#fff">
                <use xlink:href="#a"/>
            </mask>
            <path fill="#26282F" d="M142.897 64.404h-6.506c-4.518 0-8.216-3.61-8.216-8.02 0-4.412 3.698-8.02 8.216-8.02h5.554c-.003-.002-.006-.002-.01-.003h4.27c4.518 0 8.215-3.609 8.215-8.02 0-4.41-3.697-8.02-8.215-8.02h-20.711v-.001h.001c.017 0 .035-.004.053-.004H115.17c-4.52 0-8.216-3.609-8.216-8.02s3.696-8.02 8.216-8.02h5.98c4.511-.008 8.2-3.614 8.2-8.02 0-4.412-3.697-8.02-8.215-8.02H25.922c-4.52 0-8.216 3.608-8.216 8.02 0 4.41 3.696 8.02 8.216 8.02H38.29v.015c-.081.002-.159.014-.238.018h.072c4.518 0 8.216 3.61 8.216 8.021 0 4.41-3.698 8.02-8.216 8.02H7.621C3.379 32.653 0 36.126 0 40.342c0 4.11 3.21 7.52 7.303 7.967h17.882c4.518 0 8.214 3.609 8.214 8.022 0 4.41-3.696 8.02-8.214 8.02h-1.596c-4.246.297-7.628 3.773-7.628 7.99 0 4.412 3.697 8.02 8.216 8.02H141.78c4.518 0 8.216-3.608 8.216-8.02 0-4.04-3.104-7.398-7.098-7.936" mask="url(#b)"/>
        </g>
        <path fill="#FFF" d="M124.983 140.075H65.707c-3.21 0-5.834-2.624-5.834-5.835V49.523c0-3.21 2.624-5.835 5.834-5.835h59.276c3.21 0 5.835 2.626 5.835 5.835v84.717c0 3.21-2.625 5.835-5.835 5.835"/>
        <path stroke="#000" stroke-linecap="round" stroke-linejoin="round" stroke-width="2.16" d="M124.983 140.075H65.707c-3.21 0-5.834-2.624-5.834-5.835V49.523c0-3.21 2.624-5.835 5.834-5.835h59.276c3.21 0 5.835 2.626 5.835 5.835v84.717c0 3.21-2.625 5.835-5.835 5.835z"/>
        <path fill="#FFF" d="M133.057 154.269H73.781c-3.208 0-5.834-2.625-5.834-5.835V63.716c0-3.209 2.626-5.835 5.834-5.835h59.276c3.21 0 5.836 2.626 5.836 5.835v84.718c0 3.21-2.626 5.835-5.836 5.835"/>
        <path stroke="#000" stroke-linecap="round" stroke-linejoin="round" stroke-width="2.16" d="M133.057 154.269H73.781c-3.208 0-5.834-2.625-5.834-5.835V63.716c0-3.209 2.626-5.835 5.834-5.835h59.276c3.21 0 5.836 2.626 5.836 5.835v84.718c0 3.21-2.626 5.835-5.836 5.835z"/>
        <path fill="#FFF" d="M83.915 77.468h39.01"/>
        <path stroke="#000" stroke-linecap="round" stroke-linejoin="round" stroke-width="2.16" d="M83.915 77.468h39.01"/>
        <path fill="#FFF" d="M83.915 90.93h39.01"/>
        <path stroke="#000" stroke-linecap="round" stroke-linejoin="round" stroke-width="2.16" d="M83.915 90.93h39.01"/>
        <path fill="#FFF" d="M83.915 104.394h39.01"/>
        <path stroke="#000" stroke-linecap="round" stroke-linejoin="round" stroke-width="2.16" d="M83.915 104.394h39.01"/>
        <path fill="#FFF" d="M83.143 117.858h17.283"/>
        <path stroke="#000" stroke-linecap="round" stroke-linejoin="round" stroke-width="2.16" d="M83.143 117.858h17.283"/>
        <path fill="#FFF" d="M113.57 130.61l13.583-6.472-12.396-8.525z"/>
        <path stroke="#000" stroke-linecap="round" stroke-linejoin="round" stroke-width="2.16" d="M113.57 130.61l13.583-6.472-12.396-8.525z"/>
        <path fill="#525762" d="M152.913 85.218l-25.787 38.961-12.378-8.557 25.843-39.045z"/>
        <path stroke="#000" stroke-linecap="round" stroke-linejoin="round" stroke-width="2.16" d="M152.913 85.218l-25.787 38.961-12.378-8.557 25.843-39.045z"/>
        <g>
            <path fill="#525762" d="M125.482 113.064l16.162-25.058"/>
            <path stroke="#000" stroke-linecap="round" stroke-linejoin="round" stroke-width="2.16" d="M125.482 113.064l16.162-25.058"/>
        </g>
        <path fill="#ACABB1" d="M154.577 82.744l-1.657 2.422-12.332-8.617 1.571-2.298c2.336-3.415 7.041-4.298 10.456-1.963 3.415 2.337 4.298 7.041 1.962 10.456"/>
        <path stroke="#000" stroke-linecap="round" stroke-linejoin="round" stroke-width="2.16" d="M154.577 82.744l-1.657 2.422-12.332-8.617 1.571-2.298c2.336-3.415 7.041-4.298 10.456-1.963 3.415 2.337 4.298 7.041 1.962 10.456z"/>
    </g>
</svg>
