<svg xmlns="http://www.w3.org/2000/svg" xmlns:xlink="http://www.w3.org/1999/xlink" width="152" height="140" viewBox="0 0 152 140">
    <defs>
        <path id="a" d="M0 .779H150.83v78.263H0z"/>
    </defs>
    <g fill="none" fill-rule="evenodd">
        <g transform="translate(.563 2.062)">
            <mask id="b" fill="#fff">
                <use xlink:href="#a"/>
            </mask>
            <path fill="#26282F" d="M139.574 63.456h-6.354c-4.414 0-8.025-3.525-8.025-7.833 0-4.31 3.61-7.836 8.025-7.836h5.424-.01 4.17c4.413 0 8.025-3.526 8.025-7.834 0-4.31-3.612-7.834-8.025-7.834h-20.228v-.002c.018 0 .035-.003.052-.003h-10.137c-4.414 0-8.025-3.525-8.025-7.834 0-4.308 3.61-7.834 8.025-7.834h5.841c4.408-.008 8.01-3.528 8.01-7.833 0-4.31-3.61-7.834-8.024-7.834h-93c-4.413 0-8.024 3.525-8.024 7.834 0 4.31 3.611 7.834 8.024 7.834h12.08v.015c-.077.002-.153.012-.23.018h.07c4.412 0 8.024 3.525 8.024 7.834 0 4.308-3.612 7.833-8.025 7.833H7.444C3.3 32.442 0 35.835 0 39.953c0 4.014 3.135 7.345 7.133 7.781h17.466c4.414 0 8.024 3.525 8.024 7.834 0 4.308-3.61 7.835-8.024 7.835H23.04c-4.146.29-7.45 3.686-7.45 7.804 0 4.308 3.612 7.835 8.025 7.835H138.48c4.415 0 8.025-3.527 8.025-7.835 0-3.945-3.032-7.226-6.932-7.751" mask="url(#b)"/>
        </g>
        <path fill="#ACABB1" d="M68.275 49.284l3.421-6.944c1.75-3.55 6.811-3.55 8.564 0l10 20.267a4.776 4.776 0 0 0 3.596 2.61l22.367 3.252c3.917.57 5.481 5.382 2.647 8.144l-16.184 15.774a4.779 4.779 0 0 0-1.372 4.227l3.82 22.276c.67 3.902-3.427 6.875-6.93 5.035L78.2 113.41a4.786 4.786 0 0 0-4.445 0L53.75 123.925c-3.503 1.843-7.598-1.133-6.93-5.035l3.821-22.276a4.78 4.78 0 0 0-1.373-4.227L33.085 76.613c-2.833-2.763-1.27-7.577 2.647-8.144L58.1 65.218a4.776 4.776 0 0 0 3.596-2.611l4.521-9.076"/>
        <path stroke="#000" stroke-linecap="round" stroke-linejoin="round" stroke-width="2.16" d="M68.275 49.284l3.421-6.944c1.75-3.55 6.811-3.55 8.564 0l10 20.267a4.776 4.776 0 0 0 3.596 2.61l22.367 3.252c3.917.57 5.481 5.382 2.647 8.144l-16.184 15.774a4.779 4.779 0 0 0-1.372 4.227l3.82 22.276c.67 3.902-3.427 6.875-6.93 5.035L78.2 113.41a4.786 4.786 0 0 0-4.445 0L53.75 123.925c-3.503 1.843-7.598-1.133-6.93-5.035l3.821-22.276a4.78 4.78 0 0 0-1.373-4.227L33.085 76.613c-2.833-2.763-1.27-7.577 2.647-8.144L58.1 65.218a4.776 4.776 0 0 0 3.596-2.611l4.521-9.076M56.946 116.427l2.91-1.616M63.642 113.006l.805-.443M99.38 53.87l.83-.766"/>
        <path stroke="#000" stroke-dasharray="4.313700199127197,4.313700199127197" stroke-linecap="round" stroke-linejoin="round" stroke-width="2.16" d="M103.39 50.17l5.96-5.503"/>
        <path stroke="#000" stroke-linecap="round" stroke-linejoin="round" stroke-width="2.16" d="M111.338 42.832l.829-.765M76.78 123.543l-.035 1.128"/>
        <path stroke="#000" stroke-dasharray="3.582000017166138,3.582000017166138" stroke-linecap="round" stroke-linejoin="round" stroke-width="2.16" d="M76.636 128.263l-.206 6.733"/>
        <path stroke="#000" stroke-linecap="round" stroke-linejoin="round" stroke-width="2.16" d="M76.362 137.24l-.035 1.127M125.689 102.54l-1.064-.376"/>
        <path stroke="#000" stroke-dasharray="3.906900072097778,3.906900072097778" stroke-linecap="round" stroke-linejoin="round" stroke-width="2.16" d="M120.93 100.858l-6.926-2.449"/>
        <path stroke="#000" stroke-linecap="round" stroke-linejoin="round" stroke-width="2.16" d="M111.695 97.593l-1.064-.376"/>
        <path stroke="#000" stroke-dasharray="1.8,7.2,9,9" stroke-linecap="round" stroke-linejoin="round" stroke-width="2.16" d="M26.733 105.15l13.56-8.07"/>
        <path stroke="#000" stroke-linecap="round" stroke-linejoin="round" stroke-width="2.16" d="M52.48 54.482l-.774-.821"/>
        <path stroke="#000" stroke-dasharray="4.356900072097779,4.356900072097779" stroke-linecap="round" stroke-linejoin="round" stroke-width="2.16" d="M48.709 50.482l-5.62-5.961"/>
        <path stroke="#000" stroke-linecap="round" stroke-linejoin="round" stroke-width="2.16" d="M41.215 42.534l-.774-.822M75.22 35.409l.04-4.49M109.002 129.994l-2.912-3.417M45.494 128.113l-2.644 3.627M128.878 52.32v6.307M125.838 55.524h6.08M94.26 29.47v6.31M91.22 32.675h6.08M48.961 8.844v6.308M45.92 12.048h6.082"/>
        <path stroke="#000" stroke-linecap="round" stroke-linejoin="round" stroke-width="1.381" d="M106.831 4.73v4.034M104.887 6.78h3.888M19.992 38.479v4.034M18.047 40.528h3.889M37.885.97v4.034M35.94 3.02h3.89"/>
    </g>
</svg>
