<svg xmlns="http://www.w3.org/2000/svg" xmlns:xlink="http://www.w3.org/1999/xlink" width="199" height="162" viewBox="0 0 199 162">
    <defs>
        <path id="a" d="M0 .236h154.676v80.258H.001z"/>
    </defs>
    <g fill="none" fill-rule="evenodd">
        <g transform="translate(21.766 17.71)">
            <mask id="b" fill="#fff">
                <use xlink:href="#a"/>
            </mask>
            <path fill="#E3F7FC" d="M143.135 64.51h-6.518c-4.525 0-8.228-3.614-8.228-8.032 0-4.42 3.703-8.035 8.228-8.035h5.564l-.01-.001h4.276c4.526 0 8.23-3.615 8.23-8.033 0-4.42-3.704-8.034-8.23-8.034h-20.744v-.003l.054-.002H115.36c-4.527 0-8.23-3.615-8.23-8.034 0-4.418 3.703-8.034 8.23-8.034h5.99c4.52-.007 8.215-3.618 8.215-8.033 0-4.42-3.703-8.034-8.23-8.034H25.965c-4.526 0-8.23 3.615-8.23 8.034 0 4.42 3.704 8.034 8.23 8.034h12.388v.015c-.081.002-.157.014-.237.019h.071c4.526 0 8.23 3.615 8.23 8.034 0 4.418-3.704 8.033-8.23 8.033H7.633c-4.249.302-7.632 3.781-7.632 8.005 0 4.116 3.214 7.532 7.314 7.98h17.911c4.527 0 8.23 3.614 8.23 8.033 0 4.418-3.703 8.034-8.23 8.034h-1.598c-4.252.299-7.64 3.78-7.64 8.004 0 4.418 3.704 8.034 8.23 8.034h117.796c4.526 0 8.23-3.616 8.23-8.034 0-4.046-3.11-7.41-7.11-7.95" mask="url(#b)"/>
        </g>
        <path fill="#FFF" d="M124.704 139.805H65.33c-3.215 0-5.845-2.63-5.845-5.845V49.102c0-3.214 2.63-5.845 5.845-5.845h59.375c3.215 0 5.845 2.63 5.845 5.845v84.858c0 3.216-2.63 5.845-5.845 5.845"/>
        <path stroke="#92C7F1" stroke-linecap="round" stroke-linejoin="round" stroke-width="2.16" d="M124.704 139.805H65.33c-3.215 0-5.845-2.63-5.845-5.845V49.102c0-3.214 2.63-5.845 5.845-5.845h59.375c3.215 0 5.845 2.63 5.845 5.845v84.858c0 3.216-2.63 5.845-5.845 5.845z"/>
        <path fill="#FFF" d="M132.792 154.021H73.417c-3.215 0-5.845-2.629-5.845-5.844V63.319c0-3.215 2.63-5.846 5.845-5.846h59.375c3.214 0 5.845 2.631 5.845 5.846v84.858c0 3.215-2.63 5.844-5.845 5.844"/>
        <path stroke="#92C7F1" stroke-linecap="round" stroke-linejoin="round" stroke-width="2.16" d="M132.792 154.021H73.417c-3.215 0-5.845-2.629-5.845-5.844V63.319c0-3.215 2.63-5.846 5.845-5.846h59.375c3.214 0 5.845 2.631 5.845 5.846v84.858c0 3.215-2.63 5.844-5.845 5.844z"/>
        <path fill="#FFF" d="M83.567 77.092h39.074"/>
        <path stroke="#92C7F1" stroke-linecap="round" stroke-linejoin="round" stroke-width="2.16" d="M83.567 77.092h39.074"/>
        <path fill="#FFF" d="M83.567 90.579h39.074"/>
        <path stroke="#92C7F1" stroke-linecap="round" stroke-linejoin="round" stroke-width="2.16" d="M83.567 90.579h39.074"/>
        <path fill="#FFF" d="M83.567 104.064h39.074"/>
        <path stroke="#92C7F1" stroke-linecap="round" stroke-linejoin="round" stroke-width="2.16" d="M83.567 104.064h39.074"/>
        <path fill="#FFF" d="M82.794 117.55h17.311"/>
        <path stroke="#92C7F1" stroke-linecap="round" stroke-linejoin="round" stroke-width="2.16" d="M82.794 117.55h17.311"/>
        <path fill="#FFF" d="M113.273 130.324l13.603-6.484-12.415-8.54z"/>
        <path stroke="#92C7F1" stroke-linecap="round" stroke-linejoin="round" stroke-width="2.16" d="M113.273 130.324l13.603-6.484-12.415-8.54z"/>
        <path fill="#F0FAFD" d="M152.68 84.856l-25.83 39.026-12.398-8.572 25.885-39.11z"/>
        <path stroke="#92C7F1" stroke-linecap="round" stroke-linejoin="round" stroke-width="2.16" d="M152.68 84.856l-25.83 39.026-12.398-8.572 25.885-39.11z"/>
        <g>
            <path fill="#F0FAFD" d="M125.204 112.747l16.187-25.1"/>
            <path stroke="#92C7F1" stroke-linecap="round" stroke-linejoin="round" stroke-width="2.16" d="M125.204 112.747l16.187-25.1"/>
        </g>
        <path fill="#D5EAFB" d="M154.347 82.378l-1.66 2.425-12.353-8.63 1.574-2.303c2.34-3.42 7.053-4.304 10.473-1.965 3.42 2.34 4.305 7.053 1.966 10.473"/>
        <path stroke="#92C7F1" stroke-linecap="round" stroke-linejoin="round" stroke-width="2.16" d="M154.347 82.378l-1.66 2.425-12.353-8.63 1.574-2.303c2.34-3.42 7.053-4.304 10.473-1.965 3.42 2.34 4.305 7.053 1.966 10.473z"/>
    </g>
</svg>
