<svg xmlns="http://www.w3.org/2000/svg" xmlns:xlink="http://www.w3.org/1999/xlink" width="199" height="163" viewBox="0 0 199 163">
    <defs>
        <path id="a" d="M0 .15h155.14V80.65H0z"/>
    </defs>
    <g fill="none" fill-rule="evenodd">
        <g transform="translate(24.14 18.366)">
            <mask id="b" fill="#fff">
                <use xlink:href="#a"/>
            </mask>
            <path fill="#26282F" d="M143.564 64.617h-6.537c-4.54 0-8.253-3.625-8.253-8.056 0-4.433 3.714-8.059 8.253-8.059h5.58c-.003 0-.007 0-.01-.002h4.29c4.539 0 8.254-3.626 8.254-8.057 0-4.431-3.715-8.057-8.255-8.057H126.08v-.002c.019 0 .036-.003.054-.004h-10.427c-4.54 0-8.255-3.625-8.255-8.058 0-4.431 3.714-8.057 8.255-8.057h6.008c4.533-.008 8.24-3.63 8.24-8.058 0-4.431-3.715-8.057-8.255-8.057H26.042c-4.539 0-8.254 3.626-8.254 8.057 0 4.432 3.715 8.058 8.254 8.058h12.426v.015c-.081.003-.158.014-.238.019h.072c4.54 0 8.254 3.626 8.254 8.058s-3.715 8.058-8.254 8.058H7.656c-4.262.303-7.655 3.792-7.655 8.028 0 4.13 3.224 7.556 7.336 8.004h17.965c4.54 0 8.254 3.625 8.254 8.059 0 4.431-3.714 8.057-8.254 8.057h-1.603c-4.265.3-7.662 3.792-7.662 8.029 0 4.431 3.714 8.057 8.253 8.057h118.15c4.54 0 8.254-3.626 8.254-8.057 0-4.06-3.118-7.434-7.13-7.975" mask="url(#b)"/>
        </g>
        <path fill="#FFF" d="M75.714 118.518l15.254-16.611-3.269-8.528s-9.827 1.383-10.104 2.214c-.276.83-1.107 11.903-1.245 13.842-.138 1.937-.636 9.083-.636 9.083"/>
        <path stroke="#000" stroke-linecap="round" stroke-linejoin="round" stroke-width="2.16" d="M75.714 118.518l15.254-16.611-3.269-8.528s-9.827 1.383-10.104 2.214c-.276.83-1.107 11.903-1.245 13.842-.138 1.937-.636 9.083-.636 9.083"/>
        <path fill="#FFF" d="M150.492 34.785a1.669 1.669 0 0 0-1.775-.406L45.737 72.58a1.662 1.662 0 0 0-.118 3.065l18.525 8.55a5.006 5.006 0 0 1 2.797 3.547l5.981 29.906a1.663 1.663 0 0 0 1.384 1.317 1.681 1.681 0 0 0 1.708-.854l9.442-17.534c.256-.478.711-.79 1.246-.86.54-.07 1.054.114 1.424.508l23.417 24.88a1.663 1.663 0 0 0 2.744-.502l36.542-88.03c.252-.61.12-1.313-.337-1.79"/>
        <path stroke="#000" stroke-linecap="round" stroke-linejoin="round" stroke-width="2.16" d="M150.492 34.785a1.669 1.669 0 0 0-1.775-.406L45.737 72.58a1.662 1.662 0 0 0-.118 3.065l18.525 8.55a5.006 5.006 0 0 1 2.797 3.547l5.981 29.906a1.663 1.663 0 0 0 1.384 1.317 1.681 1.681 0 0 0 1.708-.854l9.442-17.534c.256-.478.711-.79 1.246-.86.54-.07 1.054.114 1.424.508l23.417 24.88a1.663 1.663 0 0 0 2.744-.502l36.542-88.03c.252-.61.12-1.313-.337-1.79z"/>
        <path fill="#ACABB1" d="M103.007 82.785l47.471-48.01a1.632 1.632 0 0 0-.727-.423L65.67 85.34c.626.67 1.088 1.486 1.272 2.404l5.98 29.906c.139.687.691 1.214 1.384 1.318a1.68 1.68 0 0 0 1.709-.857l9.441-17.533c.066-.123.178-.202.268-.302l.015-.072L96.765 89.06"/>
        <path stroke="#000" stroke-linecap="round" stroke-linejoin="round" stroke-width="2.16" d="M103.007 82.785l47.471-48.01a1.632 1.632 0 0 0-.727-.423L65.67 85.34c.626.67 1.088 1.486 1.272 2.404l5.98 29.906c.139.687.691 1.214 1.384 1.318a1.68 1.68 0 0 0 1.709-.857l9.441-17.533c.066-.123.178-.202.268-.302l.015-.072L96.765 89.06M99.549 86.262l.396-.4"/>
        <path stroke="#ACABB1" stroke-linecap="round" stroke-linejoin="round" stroke-width="2.16" d="M47.987 122.981l.828-.812"/>
        <path stroke="#ACABB1" stroke-dasharray="5.653800058364868,5.653800058364868" stroke-linecap="round" stroke-linejoin="round" stroke-width="2.16" d="M52.98 118.085l7.808-7.658"/>
        <path stroke="#ACABB1" stroke-linecap="round" stroke-linejoin="round" stroke-width="2.16" d="M63.39 107.875l.828-.812M70.667 139.098l.781-.858"/>
        <path stroke="#ACABB1" stroke-dasharray="8.016299629211426,8.016299629211426" stroke-linecap="round" stroke-linejoin="round" stroke-width="2.16" d="M77.018 132.127l10.442-11.464"/>
        <path stroke="#ACABB1" stroke-linecap="round" stroke-linejoin="round" stroke-width="2.16" d="M90.94 116.842l.781-.857M53.543 136.475l.817-.824"/>
        <path stroke="#ACABB1" stroke-dasharray="5.164199924468995,5.164199924468995" stroke-linecap="round" stroke-linejoin="round" stroke-width="2.16" d="M58.112 131.868l7.035-7.092"/>
        <path stroke="#ACABB1" stroke-linecap="round" stroke-linejoin="round" stroke-width="2.16" d="M67.492 122.41l.817-.823"/>
    </g>
</svg>
