<svg xmlns="http://www.w3.org/2000/svg" xmlns:xlink="http://www.w3.org/1999/xlink" width="199" height="163" viewBox="0 0 199 163">
    <defs>
        <path id="a" d="M0 .137h153.232v79.51H0z"/>
    </defs>
    <g fill="none" fill-rule="evenodd">
        <g transform="translate(24.663 18.222)">
            <mask id="b" fill="#fff">
                <use xlink:href="#a"/>
            </mask>
            <path fill="#E3F7FC" d="M141.798 63.812h-6.456c-4.483 0-8.153-3.581-8.153-7.958 0-4.378 3.67-7.96 8.153-7.96h5.512l-.01-.001h4.236c4.483 0 8.152-3.581 8.152-7.958 0-4.378-3.669-7.96-8.152-7.96H124.53c.018 0 .035-.004.053-.004h-10.298c-4.485 0-8.153-3.58-8.153-7.959 0-4.376 3.668-7.959 8.153-7.959h5.933c4.478-.007 8.138-3.584 8.138-7.958 0-4.376-3.668-7.959-8.152-7.959h-94.48c-4.485 0-8.153 3.583-8.153 7.96s3.668 7.958 8.152 7.958h12.273v.015c-.08.003-.157.014-.236.019h.072c4.483 0 8.153 3.58 8.153 7.959 0 4.376-3.67 7.958-8.153 7.958H7.562C3.352 32.304 0 35.75 0 39.935c0 4.077 3.185 7.461 7.247 7.905H24.99c4.483 0 8.152 3.581 8.152 7.959s-3.669 7.96-8.152 7.96h-1.583c-4.214.295-7.57 3.744-7.57 7.928 0 4.377 3.669 7.96 8.153 7.96h116.697c4.484 0 8.153-3.583 8.153-7.96 0-4.008-3.08-7.34-7.043-7.875" mask="url(#b)"/>
        </g>
        <path fill="#FFF" d="M75.602 117.131l15.067-16.406-3.227-8.424s-9.707 1.367-9.98 2.187c-.274.82-1.095 11.758-1.231 13.672-.137 1.913-.629 8.971-.629 8.971"/>
        <path stroke="#92C7F1" stroke-linecap="round" stroke-linejoin="round" stroke-width="2.16" d="M75.602 117.131l15.067-16.406-3.227-8.424s-9.707 1.367-9.98 2.187c-.274.82-1.095 11.758-1.231 13.672-.137 1.913-.629 8.971-.629 8.971"/>
        <path fill="#FFF" d="M149.46 34.428a1.646 1.646 0 0 0-1.752-.4L45.995 71.757a1.643 1.643 0 0 0-.117 3.03l18.297 8.443a4.942 4.942 0 0 1 2.764 3.505l5.907 29.537c.136.678.682 1.2 1.366 1.301a1.66 1.66 0 0 0 1.687-.844l9.327-17.318c.253-.471.701-.78 1.23-.85a1.619 1.619 0 0 1 1.406.503l23.129 24.574a1.644 1.644 0 0 0 2.71-.496l36.093-86.95a1.641 1.641 0 0 0-.333-1.765"/>
        <path stroke="#92C7F1" stroke-linecap="round" stroke-linejoin="round" stroke-width="2.16" d="M149.46 34.428a1.646 1.646 0 0 0-1.752-.4L45.995 71.757a1.643 1.643 0 0 0-.117 3.03l18.297 8.443a4.942 4.942 0 0 1 2.764 3.505l5.907 29.537c.136.678.682 1.2 1.366 1.301a1.66 1.66 0 0 0 1.687-.844l9.327-17.318c.253-.471.701-.78 1.23-.85a1.619 1.619 0 0 1 1.406.503l23.129 24.574a1.644 1.644 0 0 0 2.71-.496l36.093-86.95a1.641 1.641 0 0 0-.333-1.765z"/>
        <path fill="#F0FAFD" d="M102.56 81.837l46.887-47.418a1.609 1.609 0 0 0-.717-.418l-83.047 50.36c.617.66 1.074 1.467 1.256 2.374l5.907 29.539a1.644 1.644 0 0 0 1.366 1.301 1.659 1.659 0 0 0 1.687-.846l9.326-17.318c.066-.121.175-.2.265-.298l.015-.072 10.89-11.006"/>
        <path stroke="#92C7F1" stroke-linecap="round" stroke-linejoin="round" stroke-width="2.16" d="M102.56 81.837l46.887-47.418a1.609 1.609 0 0 0-.717-.418l-83.047 50.36c.617.66 1.074 1.467 1.256 2.374l5.907 29.539a1.644 1.644 0 0 0 1.366 1.301 1.659 1.659 0 0 0 1.687-.846l9.326-17.318c.066-.121.175-.2.265-.298l.015-.072 10.89-11.006"/>
        <path fill="#F0FAFD" d="M99.144 85.272l.391-.395"/>
        <path stroke="#92C7F1" stroke-linecap="round" stroke-linejoin="round" stroke-width="2.16" d="M99.144 85.272l.391-.395"/>
        <path fill="#FFF" d="M48.217 121.54l16.031-15.723"/>
        <path stroke="#92C7F1" stroke-linecap="round" stroke-linejoin="round" stroke-width="2.16" d="M48.217 121.54l.818-.803"/>
        <path stroke="#92C7F1" stroke-dasharray="5.653800058364868,5.653800058364868" stroke-linecap="round" stroke-linejoin="round" stroke-width="2.16" d="M53.148 116.704l7.712-7.564"/>
        <path stroke="#92C7F1" stroke-linecap="round" stroke-linejoin="round" stroke-width="2.16" d="M63.43 106.62l.819-.803"/>
        <path fill="#FFF" d="M70.618 137.458l20.796-22.828"/>
        <path stroke="#92C7F1" stroke-linecap="round" stroke-linejoin="round" stroke-width="2.16" d="M70.618 137.458l.773-.847"/>
        <path stroke="#92C7F1" stroke-dasharray="8.016299629211426,8.016299629211426" stroke-linecap="round" stroke-linejoin="round" stroke-width="2.16" d="M76.89 130.572l10.314-11.321"/>
        <path stroke="#92C7F1" stroke-linecap="round" stroke-linejoin="round" stroke-width="2.16" d="M90.642 115.477l.771-.847"/>
        <path fill="#FFF" d="M53.705 134.868l14.584-14.706"/>
        <path stroke="#92C7F1" stroke-linecap="round" stroke-linejoin="round" stroke-width="2.16" d="M53.705 134.868l.808-.814"/>
        <path stroke="#92C7F1" stroke-dasharray="5.164199924468995,5.164199924468995" stroke-linecap="round" stroke-linejoin="round" stroke-width="2.16" d="M58.218 130.318l6.949-7.006"/>
        <path stroke="#92C7F1" stroke-linecap="round" stroke-linejoin="round" stroke-width="2.16" d="M67.482 120.977l.808-.815"/>
    </g>
</svg>
