<svg xmlns="http://www.w3.org/2000/svg" xmlns:xlink="http://www.w3.org/1999/xlink" width="199" height="162" viewBox="0 0 199 162">
    <defs>
        <path id="a" d="M0 .128h149.93v77.795H0z"/>
        <path id="c" d="M.277.624H72.56v72.283H.277z"/>
    </defs>
    <g fill="none" fill-rule="evenodd">
        <g transform="translate(24.29 18.095)">
            <mask id="b" fill="#fff">
                <use xlink:href="#a"/>
            </mask>
            <path fill="#E3F7FC" d="M138.744 62.43h-6.318c-4.386 0-7.977-3.504-7.977-7.787 0-4.283 3.59-7.787 7.977-7.787h5.393c-.003 0-.006 0-.01-.002h4.146c4.387 0 7.976-3.504 7.976-7.788 0-4.282-3.59-7.786-7.976-7.786h-20.109v-.002h.001l.052-.002h-10.077c-4.388 0-7.977-3.504-7.977-7.788 0-4.284 3.589-7.788 7.977-7.788h5.805c4.382-.006 7.963-3.508 7.963-7.786 0-4.282-3.59-7.786-7.976-7.786H25.168c-4.388 0-7.977 3.504-7.977 7.786 0 4.284 3.59 7.788 7.977 7.788h12.009v.014c-.079.002-.154.014-.231.018h.07c4.387 0 7.977 3.504 7.977 7.788 0 4.282-3.59 7.786-7.977 7.786H7.4c-4.118.293-7.4 3.666-7.4 7.758 0 3.991 3.118 7.302 7.092 7.736h17.362c4.386 0 7.976 3.504 7.976 7.788 0 4.284-3.59 7.788-7.976 7.788h-1.55c-4.122.288-7.405 3.663-7.405 7.758 0 4.283 3.589 7.787 7.977 7.787h114.183c4.386 0 7.977-3.504 7.977-7.787 0-3.922-3.014-7.183-6.891-7.706" mask="url(#b)"/>
        </g>
        <path fill="#FFF" d="M48.967 88.756V69.93c0-4.305 3.522-7.827 7.827-7.827h73.638c4.305 0 7.825 3.522 7.825 7.827v49.052c0 4.305-3.52 7.826-7.825 7.826H56.794c-4.305 0-7.827-3.521-7.827-7.826V96.575"/>
        <path stroke="#92C7F1" stroke-linecap="round" stroke-linejoin="round" stroke-width="2.16" d="M48.967 88.756V69.93c0-4.305 3.522-7.827 7.827-7.827h73.638c4.305 0 7.825 3.522 7.825 7.827v49.052c0 4.305-3.52 7.826-7.825 7.826H56.794c-4.305 0-7.827-3.521-7.827-7.826V96.575"/>
        <path fill="#FFF" d="M100.983 101.552l33.954-29.47c3.955-3.434 1.526-9.935-3.71-9.935H56.13c-5.237 0-7.665 6.501-3.71 9.935l33.953 29.47a11.143 11.143 0 0 0 14.61 0"/>
        <path stroke="#92C7F1" stroke-linecap="round" stroke-linejoin="round" stroke-width="2.16" d="M100.983 101.552l33.954-29.47c3.955-3.434 1.526-9.935-3.71-9.935H56.13c-5.237 0-7.665 6.501-3.71 9.935l33.953 29.47a11.143 11.143 0 0 0 14.61 0z"/>
        <path fill="#FFF" d="M51.196 120.096l29.412-23"/>
        <path stroke="#92C7F1" stroke-linecap="round" stroke-linejoin="round" stroke-width="2.16" d="M51.196 120.096l29.412-23"/>
        <path fill="#FFF" d="M137.078 120.096l-29.412-23"/>
        <path stroke="#92C7F1" stroke-linecap="round" stroke-linejoin="round" stroke-width="2.16" d="M137.078 120.096l-29.412-23"/>
        <path fill="#FFF" d="M86.34 91.883l2.31 2 1.456 1.154c1.73 1.73 5.385 1.969 7.024.056"/>
        <path stroke="#92C7F1" stroke-linecap="round" stroke-linejoin="round" stroke-width="2.16" d="M86.34 91.883l2.31 2 1.456 1.154c1.73 1.73 5.385 1.969 7.024.056"/>
        <g>
            <path fill="#FFF" d="M101.226 91.63l2.338-2.34"/>
            <path stroke="#92C7F1" stroke-linecap="round" stroke-linejoin="round" stroke-width="2.16" d="M101.226 91.63l2.338-2.34"/>
        </g>
        <path fill="#D5EAFB" d="M156.509 136.784c3.342-4.6 5.102-10.018 5.102-15.748 0-14.818-12.055-26.873-26.875-26.873-5.729 0-11.146 1.76-15.746 5.102l37.519 37.52zm-43.544-31.494c-3.342 4.6-5.102 10.018-5.102 15.746 0 14.82 12.055 26.875 26.873 26.875 5.73 0 11.148-1.76 15.748-5.103l-37.519-37.518zm21.771 50.767c-19.309 0-35.018-15.71-35.018-35.02 0-19.31 15.71-35.02 35.018-35.02 19.31 0 35.021 15.71 35.021 35.02 0 19.31-15.71 35.02-35.02 35.02z"/>
        <g transform="translate(98.318 84.272)">
            <mask id="d" fill="#fff">
                <use xlink:href="#c"/>
            </mask>
            <path fill="#92C7F1" d="M36.419 62.517c-14.2 0-25.752-11.552-25.752-25.751 0-5.046 1.423-9.838 4.14-14.002L50.42 58.377c-4.163 2.717-8.956 4.14-14.001 4.14zM22.417 15.153c4.165-2.716 8.957-4.14 14.002-4.14 14.2 0 25.753 11.553 25.753 25.753 0 5.044-1.425 9.836-4.14 14.001L22.417 15.153zM36.42.624C16.49.624.277 16.836.277 36.766c0 19.928 16.214 36.141 36.142 36.141 19.93 0 36.141-16.213 36.141-36.141C72.56 16.836 56.348.624 36.42.624zm0 64.137c6.6 0 12.662-2.29 17.448-6.11L14.533 19.317a27.87 27.87 0 0 0-6.11 17.449c0 15.46 12.534 27.995 27.996 27.995zm21.885-10.548a27.87 27.87 0 0 0 6.111-17.447c0-15.462-12.534-27.997-27.996-27.997-6.6 0-12.662 2.29-17.447 6.11l39.332 39.334zM36.42 2.867c18.721 0 33.898 15.177 33.898 33.899 0 18.72-15.177 33.898-33.898 33.898-18.722 0-33.898-15.177-33.898-33.898 0-18.722 15.176-33.899 33.898-33.899z" mask="url(#d)"/>
        </g>
    </g>
</svg>
