<svg xmlns="http://www.w3.org/2000/svg" xmlns:xlink="http://www.w3.org/1999/xlink" width="151" height="140" viewBox="0 0 151 140">
    <defs>
        <path id="a" d="M0 .127h149.931v77.797H0z"/>
        <path id="c" d="M.278.624H72.56v72.283H.278z"/>
    </defs>
    <g fill="none" fill-rule="evenodd">
        <g transform="translate(.436 .124)">
            <mask id="b" fill="#fff">
                <use xlink:href="#a"/>
            </mask>
            <path fill="#26282F" d="M138.743 62.43h-6.317c-4.387 0-7.977-3.504-7.977-7.787 0-4.284 3.59-7.788 7.977-7.788h5.393-.01 4.146c4.386 0 7.977-3.506 7.977-7.788 0-4.283-3.59-7.787-7.977-7.787h-20.11v-.002h.002l.051-.002h-10.076c-4.388 0-7.977-3.504-7.977-7.789 0-4.282 3.589-7.786 7.977-7.786h5.806c4.38-.008 7.963-3.509 7.963-7.787 0-4.283-3.59-7.787-7.977-7.787H25.168c-4.387 0-7.977 3.504-7.977 7.787 0 4.284 3.59 7.788 7.977 7.788h12.008v.014c-.078.003-.152.013-.23.017h.07c4.387 0 7.977 3.505 7.977 7.789 0 4.282-3.59 7.786-7.977 7.786H7.399c-4.119.293-7.4 3.666-7.4 7.759 0 3.99 3.118 7.302 7.092 7.736h17.361c4.388 0 7.978 3.504 7.978 7.787 0 4.283-3.59 7.787-7.978 7.787h-1.549c-4.122.289-7.406 3.664-7.406 7.76 0 4.282 3.59 7.787 7.977 7.787h114.184c4.386 0 7.977-3.505 7.977-7.788 0-3.922-3.014-7.183-6.892-7.706" mask="url(#b)"/>
        </g>
        <path fill="#FFF" d="M25.114 70.785V51.959c0-4.305 3.522-7.827 7.827-7.827h73.637c4.305 0 7.827 3.522 7.827 7.827v49.05c0 4.305-3.522 7.828-7.827 7.828H32.94c-4.305 0-7.827-3.523-7.827-7.827V78.604"/>
        <path stroke="#000" stroke-linecap="round" stroke-linejoin="round" stroke-width="2.16" d="M25.114 70.785V51.959c0-4.305 3.522-7.827 7.827-7.827h73.637c4.305 0 7.827 3.522 7.827 7.827v49.05c0 4.305-3.522 7.828-7.827 7.828H32.94c-4.305 0-7.827-3.523-7.827-7.827V78.604"/>
        <path fill="#FFF" d="M77.13 83.58l33.953-29.47c3.955-3.433 1.528-9.934-3.71-9.934H32.278c-5.237 0-7.665 6.501-3.71 9.935l33.954 29.47a11.145 11.145 0 0 0 14.608 0"/>
        <path stroke="#000" stroke-linecap="round" stroke-linejoin="round" stroke-width="2.16" d="M77.13 83.58l33.953-29.47c3.955-3.433 1.528-9.934-3.71-9.934H32.278c-5.237 0-7.665 6.501-3.71 9.935l33.954 29.47a11.145 11.145 0 0 0 14.608 0z"/>
        <path fill="#FFF" d="M27.343 102.125l29.412-23"/>
        <path stroke="#000" stroke-linecap="round" stroke-linejoin="round" stroke-width="2.16" d="M27.343 102.125l29.412-23"/>
        <path fill="#FFF" d="M113.225 102.125l-29.412-23"/>
        <path stroke="#000" stroke-linecap="round" stroke-linejoin="round" stroke-width="2.16" d="M113.225 102.125l-29.412-23"/>
        <path fill="#FFF" d="M62.486 73.912l2.31 2 1.456 1.155c1.73 1.729 5.386 1.967 7.025.055"/>
        <path stroke="#000" stroke-linecap="round" stroke-linejoin="round" stroke-width="2.16" d="M62.486 73.912l2.31 2 1.456 1.155c1.73 1.729 5.386 1.967 7.025.055"/>
        <g>
            <path fill="#FFF" d="M77.372 73.658l2.339-2.339"/>
            <path stroke="#000" stroke-linecap="round" stroke-linejoin="round" stroke-width="2.16" d="M77.372 73.658l2.339-2.339"/>
        </g>
        <path fill="#ACABB1" d="M132.655 118.814c3.343-4.602 5.103-10.02 5.103-15.748 0-14.82-12.056-26.875-26.874-26.875-5.73 0-11.147 1.759-15.748 5.103l37.52 37.52zM89.112 87.318c-3.341 4.6-5.102 10.018-5.102 15.748 0 14.818 12.055 26.873 26.874 26.873 5.73 0 11.147-1.76 15.747-5.102L89.112 87.318zm21.772 50.768c-19.31 0-35.02-15.71-35.02-35.02 0-19.31 15.71-35.02 35.02-35.02 19.31 0 35.02 15.71 35.02 35.02 0 19.31-15.71 35.02-35.02 35.02z"/>
        <g transform="translate(74.465 66.3)">
            <mask id="d" fill="#fff">
                <use xlink:href="#c"/>
            </mask>
            <path fill="#000" d="M36.42 62.517c-14.2 0-25.753-11.552-25.753-25.752 0-5.045 1.424-9.837 4.14-14.001L50.42 58.378c-4.164 2.716-8.957 4.14-14.002 4.14zM22.417 15.152c4.163-2.715 8.956-4.14 14.001-4.14 14.2 0 25.752 11.553 25.752 25.753 0 5.044-1.423 9.838-4.139 14.002L22.418 15.152zM36.419.624C16.49.624.278 16.836.278 36.765c0 19.93 16.212 36.142 36.141 36.142 19.928 0 36.142-16.212 36.142-36.142C72.56 16.836 56.347.624 36.419.624zm0 64.136c6.6 0 12.662-2.289 17.447-6.11L14.534 19.318a27.872 27.872 0 0 0-6.11 17.448c0 15.461 12.533 27.995 27.995 27.995zm21.886-10.546a27.874 27.874 0 0 0 6.11-17.449c0-15.462-12.534-27.996-27.996-27.996-6.6 0-12.662 2.29-17.448 6.11l39.334 39.335zM36.419 2.867c18.721 0 33.898 15.177 33.898 33.898 0 18.722-15.177 33.899-33.898 33.899-18.721 0-33.898-15.177-33.898-33.899 0-18.721 15.177-33.898 33.898-33.898z" mask="url(#d)"/>
        </g>
    </g>
</svg>
