<svg xmlns="http://www.w3.org/2000/svg" xmlns:xlink="http://www.w3.org/1999/xlink" width="52" height="52" viewBox="0 0 52 52">
    <defs>
        <path id="a" d="M0 .472h51.534V52H0z"/>
    </defs>
    <g fill="none" fill-rule="evenodd">
        <path fill="#F0FAFD" d="M20.924 1c10.451 0 18.924 8.473 18.924 18.924 0 10.452-8.473 18.924-18.924 18.924C10.472 38.848 2 30.376 2 19.924 2 9.473 10.472 1 20.924 1"/>
        <path fill="#FFF" d="M20.092 6c7.783 0 14.092 6.31 14.092 14.092 0 7.783-6.309 14.093-14.092 14.093S6 27.875 6 20.092C6 12.31 12.309 6 20.092 6"/>
        <path fill="#F0FAFD" d="M35.377 31l14.207 14.206a3.096 3.096 0 0 1-4.377 4.378L31 35.377 35.377 31z"/>
        <path fill="#D5EAFB" d="M31 35.377L35.377 31l3.814 3.814-4.378 4.376z"/>
        <path fill="#92C7F1" d="M6.719 32.295a1.007 1.007 0 0 0-1.424 1.424l.094.093a1.006 1.006 0 0 0 1.415-1.432l-.085-.085z"/>
        <path fill="#D5EAFB" d="M48.677 48.629a3.093 3.093 0 0 1-2.189-.906L32.766 34 31 35.767l14.207 14.207a3.085 3.085 0 0 0 2.188.906c.792 0 1.585-.303 2.189-.906a3.07 3.07 0 0 0 .881-1.925c-.535.381-1.16.58-1.788.58"/>
        <g>
            <mask id="b" fill="#fff">
                <use xlink:href="#a"/>
            </mask>
            <path fill="#92C7F1" d="M48.911 49.375a2.073 2.073 0 0 1-1.477.611 2.073 2.073 0 0 1-1.477-.61l-9.68-9.683 2.935-2.936.017-.018 9.682 9.682c.814.814.814 2.14 0 2.954M34.022 34.486c.498-.499.965-1.018 1.4-1.554l2.385 2.385-.018.016-2.937 2.937-2.385-2.385a20.24 20.24 0 0 0 1.555-1.399m16.312 10.512L36.621 31.285C41.664 23.56 40.8 13.077 34.022 6.3c-7.77-7.77-20.415-7.77-28.186 0a19.973 19.973 0 0 0-5.73 12.023c-.464 4.462.6 8.993 2.995 12.757a1.007 1.007 0 1 0 1.7-1.08C.334 22.981 1.368 13.613 7.26 7.723c6.984-6.987 18.352-6.987 25.338 0 6.985 6.985 6.985 18.352 0 25.34-6.027 6.025-15.536 6.967-22.61 2.241a1.005 1.005 0 1 0-1.118 1.674 19.815 19.815 0 0 0 11.031 3.336 20.01 20.01 0 0 0 10.916-3.232l3.322 3.321v.001h.001l10.393 10.393a4.072 4.072 0 0 0 2.9 1.202 4.073 4.073 0 0 0 2.9-1.202 4.106 4.106 0 0 0 0-5.8" mask="url(#b)"/>
        </g>
        <path fill="#92C7F1" d="M20.099 7.014c7.215 0 13.085 5.87 13.085 13.085 0 7.216-5.87 13.086-13.085 13.086-7.215 0-13.086-5.87-13.086-13.086 0-7.215 5.871-13.085 13.086-13.085m0 28.185c8.325 0 15.099-6.774 15.099-15.1C35.198 11.774 28.424 5 20.099 5 11.773 5 5 11.774 5 20.099c0 8.326 6.773 15.1 15.099 15.1"/>
        <path fill="#93C7F1" d="M20.012 22H20c-2.642.005-4.964 1.483-5.916 3.768a1.078 1.078 0 0 0-.001.836 1.1 1.1 0 0 0 2.031.001c.61-1.466 2.138-2.416 3.89-2.417h.007c1.708 0 3.225.946 3.867 2.413a1.102 1.102 0 0 0 2.03-.038 1.078 1.078 0 0 0-.015-.836c-.991-2.265-3.3-3.727-5.882-3.727M16.231 15.009a1.072 1.072 0 0 0 .393-1.474 1.087 1.087 0 0 0-1.479-.39l-2.605 1.503a1.064 1.064 0 0 0-.504.658c-.074.277-.034.567.112.816a1.081 1.081 0 0 0 1.478.389l2.605-1.502zM26.877 14.762a1.068 1.068 0 0 0-.596-.577l-2.799-1.11a1.087 1.087 0 0 0-1.404.603 1.073 1.073 0 0 0 .605 1.401l2.798 1.108a1.084 1.084 0 0 0 1.406-.601 1.066 1.066 0 0 0-.01-.824M17.551 16.429a1.507 1.507 0 0 0-2.117.01A1.469 1.469 0 0 0 15 17.494c.001.399.159.773.444 1.053.292.286.673.429 1.054.429.386 0 .772-.147 1.064-.44.281-.281.435-.656.434-1.053a1.476 1.476 0 0 0-.445-1.053zM24.562 18.535c.282-.282.436-.657.434-1.055a1.472 1.472 0 0 0-.444-1.05 1.507 1.507 0 0 0-2.118.01A1.476 1.476 0 0 0 22 17.496c.002.397.16.77.444 1.05.292.285.673.428 1.054.428.386 0 .772-.147 1.064-.44"/>
    </g>
</svg>
