<svg xmlns="http://www.w3.org/2000/svg" xmlns:xlink="http://www.w3.org/1999/xlink" width="58" height="58" viewBox="0 0 58 58">
    <defs>
        <path id="a" d="M0 .472h51.534V52H0z"/>
    </defs>
    <g fill="none" fill-rule="evenodd">
        <path fill="#525762" d="M23.797 3.977c10.451 0 18.924 8.472 18.924 18.924 0 10.451-8.473 18.924-18.924 18.924-10.452 0-18.924-8.473-18.924-18.924 0-10.452 8.472-18.924 18.924-18.924"/>
        <path fill="#ACABB1" d="M22.797 8.808c7.783 0 14.092 6.31 14.092 14.093 0 7.782-6.309 14.092-14.092 14.092S8.705 30.683 8.705 22.901c0-7.783 6.31-14.093 14.092-14.093"/>
        <path fill="#525762" d="M38.284 34.01l14.207 14.208a3.094 3.094 0 1 1-4.377 4.377L33.907 38.388l4.377-4.377z"/>
        <path fill="#ACABB1" d="M33.907 38.388l4.377-4.377 3.814 3.814L37.72 42.2z"/>
        <path fill="#000" d="M10.128 35.57a1.007 1.007 0 0 0-1.424 1.424l.093.093a1.005 1.005 0 0 0 1.424-.009 1.006 1.006 0 0 0-.008-1.423l-.085-.085z"/>
        <path fill="#333A47" d="M51.583 51.25a3.085 3.085 0 0 1-2.188-.906L35.673 36.622l-1.766 1.766 14.206 14.207a3.089 3.089 0 0 0 2.19.906 3.068 3.068 0 0 0 3.07-2.831c-.537.38-1.16.58-1.79.58"/>
        <g transform="translate(2.868 2.507)">
            <mask id="b" fill="#fff">
                <use xlink:href="#a"/>
            </mask>
            <path fill="#000" d="M48.911 49.375a2.073 2.073 0 0 1-1.477.611 2.071 2.071 0 0 1-1.477-.61l-9.68-9.682 2.935-2.936.017-.019 9.682 9.683a2.09 2.09 0 0 1 0 2.953M34.022 34.486a19.98 19.98 0 0 0 1.4-1.554l2.385 2.385-.018.017-2.937 2.937-2.385-2.386a20.034 20.034 0 0 0 1.555-1.399m16.312 10.512L36.621 31.285C41.664 23.56 40.8 13.077 34.022 6.3c-7.77-7.77-20.415-7.77-28.186 0a19.973 19.973 0 0 0-5.73 12.023A20 20 0 0 0 3.101 31.08a1.007 1.007 0 1 0 1.7-1.08C.334 22.981 1.368 13.613 7.26 7.723c6.984-6.987 18.351-6.987 25.338 0 6.985 6.986 6.985 18.352 0 25.34-6.027 6.025-15.536 6.968-22.61 2.241A1.006 1.006 0 1 0 8.87 36.98a19.821 19.821 0 0 0 11.032 3.337c3.826 0 7.634-1.095 10.916-3.233l3.322 3.322h.001L44.534 50.8a4.075 4.075 0 0 0 2.9 1.201 4.075 4.075 0 0 0 2.9-1.202 4.106 4.106 0 0 0 0-5.8" mask="url(#b)"/>
        </g>
        <path fill="#000" d="M22.797 9.815c7.215 0 13.085 5.87 13.085 13.086 0 7.215-5.87 13.085-13.085 13.085-7.215 0-13.086-5.87-13.086-13.085 0-7.216 5.871-13.086 13.086-13.086m0 28.185c8.325 0 15.1-6.774 15.1-15.099 0-8.326-6.775-15.1-15.1-15.1-8.326 0-15.099 6.774-15.099 15.1 0 8.325 6.773 15.1 15.1 15.1"/>
        <path fill="#000" d="M23.185 25.02h-.01c-2.643.004-4.965 1.482-5.917 3.767a1.078 1.078 0 0 0 0 .836 1.1 1.1 0 0 0 2.031.001c.61-1.466 2.137-2.416 3.89-2.417h.006c1.708 0 3.225.946 3.867 2.413a1.102 1.102 0 0 0 2.03-.038 1.078 1.078 0 0 0-.015-.836c-.99-2.265-3.299-3.727-5.882-3.727M19.835 17.542a1.072 1.072 0 0 0 .393-1.474 1.087 1.087 0 0 0-1.479-.39l-2.605 1.503a1.064 1.064 0 0 0-.504.658c-.074.277-.034.567.112.816a1.081 1.081 0 0 0 1.478.389l2.605-1.502zM30.361 17.443a1.068 1.068 0 0 0-.596-.577l-2.799-1.109a1.087 1.087 0 0 0-1.404.602 1.073 1.073 0 0 0 .605 1.401l2.798 1.108a1.084 1.084 0 0 0 1.406-.601 1.066 1.066 0 0 0-.01-.824M20.302 19.741a1.507 1.507 0 0 0-2.117.011 1.469 1.469 0 0 0-.434 1.053c.001.4.16.773.444 1.053.292.286.673.43 1.054.43.386 0 .772-.148 1.064-.44.281-.282.435-.657.434-1.054a1.476 1.476 0 0 0-.445-1.053zM27.763 21.79c.282-.281.436-.656.434-1.054a1.472 1.472 0 0 0-.444-1.05 1.507 1.507 0 0 0-2.118.009 1.476 1.476 0 0 0-.434 1.058c.002.397.16.77.444 1.049.292.286.673.429 1.054.429.386 0 .772-.147 1.064-.44"/>
    </g>
</svg>
