<svg xmlns="http://www.w3.org/2000/svg" xmlns:xlink="http://www.w3.org/1999/xlink" width="199" height="163" viewBox="0 0 199 163">
    <defs>
        <path id="a" d="M0 .892h171.356v80.56H0z"/>
    </defs>
    <g fill="none" fill-rule="evenodd">
        <g transform="translate(16 18.013)">
            <mask id="b" fill="#fff">
                <use xlink:href="#a"/>
            </mask>
            <path fill="#E3F7FC" d="M164.22 65.41h-33.978c-4.543 0-8.26-3.63-8.26-8.065s3.717-8.064 8.26-8.064h2.1l-.01-.001h4.292c4.542 0 8.26-3.629 8.26-8.065 0-4.434-3.718-8.063-8.26-8.063h-17.339v-.002h.001l.054-.002h-10.435c-4.544 0-8.26-3.63-8.26-8.065s3.716-8.064 8.26-8.064h6.013c4.537-.007 8.245-3.633 8.245-8.063 0-4.434-3.716-8.064-8.26-8.064h-95.73c-4.542 0-8.26 3.63-8.26 8.064 0 4.435 3.718 8.064 8.26 8.064h12.435v.016c-.08.002-.159.013-.238.018h.072c4.543 0 8.26 3.629 8.26 8.064 0 4.435-3.717 8.063-8.26 8.063H7.662c-4.265.303-7.663 3.796-7.663 8.034 0 4.133 3.228 7.562 7.343 8.011h30.7c4.542 0 8.259 3.629 8.259 8.064 0 4.436-3.717 8.065-8.26 8.065H26.454c-4.27.298-7.669 3.793-7.669 8.034 0 4.434 3.717 8.064 8.26 8.064h136.053c4.542 0 8.26-3.63 8.26-8.064 0-4.062-3.12-7.439-7.136-7.98" mask="url(#b)"/>
        </g>
        <path fill="#D5EAFB" d="M57.304 81.975v21.992h53.966V67.598c0-8.384 6.825-15.181 15.244-15.181H72.547c-8.42 0-15.243 6.797-15.243 15.181v8.253"/>
        <path stroke="#92C7F1" stroke-linecap="round" stroke-linejoin="round" stroke-width="2.16" d="M57.304 81.975v21.992h53.966V67.598c0-8.384 6.825-15.181 15.244-15.181H72.547c-8.42 0-15.243 6.797-15.243 15.181v8.253"/>
        <path fill="#FFF" d="M111.27 67.61v36.357h37.176V67.61c0-8.383-6.795-15.179-15.178-15.179h-6.82c-8.382 0-15.178 6.796-15.178 15.179"/>
        <path stroke="#92C7F1" stroke-linecap="round" stroke-linejoin="round" stroke-width="2.16" d="M111.27 67.61v36.357h37.176V67.61c0-8.383-6.795-15.179-15.178-15.179h-6.82c-8.382 0-15.178 6.796-15.178 15.179z"/>
        <path fill="#D5EAFB" d="M161.714 124.065l-13.282-20.094h-37.175l16.26 24.598c3.172 4.594 9.093 8.666 15.148 9.24 2.162.205 4.389.304 6.849.131 3.153-.223 6.06-.735 8.474-1.668 4.85-1.872 6.593-7.87 3.726-12.207"/>
        <path stroke="#92C7F1" stroke-linecap="round" stroke-linejoin="round" stroke-width="2.16" d="M161.714 124.065l-13.282-20.094h-37.175l16.26 24.598c3.172 4.594 9.093 8.666 15.148 9.24 2.162.205 4.389.304 6.849.131 3.153-.223 6.06-.735 8.474-1.668 4.85-1.872 6.593-7.87 3.726-12.207z"/>
        <path fill="#F0FAFD" d="M102.28 127.612v24.9h-9.412v-48.546h9.412V121.9"/>
        <path stroke="#92C7F1" stroke-linecap="round" stroke-linejoin="round" stroke-width="2.16" d="M102.28 127.612v24.9h-9.412v-48.546h9.412V121.9"/>
        <path fill="#FFF" d="M103.654 67.48a6.209 6.209 0 1 1-12.418.14 6.209 6.209 0 0 1 12.418-.14"/>
        <path stroke="#92C7F1" stroke-linecap="round" stroke-linejoin="round" stroke-width="2.16" d="M103.654 67.48a6.209 6.209 0 1 1-12.418.14 6.209 6.209 0 0 1 12.418-.14zM110.265 97.16H85.472M97.445 67.55l-29.522 7.93"/>
        <path fill="#FFF" d="M74.019 76.046l3.154 11.745a2.128 2.128 0 0 1-1.504 2.608l-5.57 1.496a2.13 2.13 0 0 1-2.61-1.502l-3.154-11.747a2.13 2.13 0 0 1 1.504-2.608l5.57-1.496a2.13 2.13 0 0 1 2.61 1.504"/>
        <path stroke="#92C7F1" stroke-linecap="round" stroke-linejoin="round" stroke-width="2.16" d="M74.019 76.046l3.154 11.745a2.128 2.128 0 0 1-1.504 2.608l-5.57 1.496a2.13 2.13 0 0 1-2.61-1.502l-3.154-11.747a2.13 2.13 0 0 1 1.504-2.608l5.57-1.496a2.13 2.13 0 0 1 2.61 1.504z"/>
        <path stroke="#92C7F1" stroke-linecap="round" stroke-linejoin="round" stroke-width="1.8" d="M148.443 35.673h-1.162"/>
        <path stroke="#92C7F1" stroke-dasharray="1.818899917602539,2.728800058364868" stroke-linecap="round" stroke-linejoin="round" stroke-width="1.8" d="M143.76 35.673h-.625c-8.21 0-14.93 6.718-14.93 14.928s6.72 14.929 14.93 14.929h5.308l6.984-.052h5.308c8.21 0 14.929 6.717 14.929 14.928 0 8.21-6.718 14.929-14.929 14.929h-21.277"/>
        <path stroke="#92C7F1" stroke-linecap="round" stroke-linejoin="round" stroke-width="1.8" d="M137.697 95.335h-1.161M156.133 39.255h-1.486a3.353 3.353 0 0 1-3.344-3.344 3.354 3.354 0 0 1 3.344-3.343h1.486a3.354 3.354 0 0 1 3.343 3.343 3.354 3.354 0 0 1-3.343 3.344z"/>
        <path fill="#92C7F1" d="M153.396 33.073c-.799 0-1.453-.654-1.453-1.453v-1.19c0-.8.654-1.454 1.453-1.454.8 0 1.453.654 1.453 1.454v1.19c0 .799-.654 1.453-1.453 1.453M156.534 32.94c-.799 0-1.453-.655-1.453-1.454v-1.19c0-.8.654-1.453 1.453-1.453.8 0 1.453.654 1.453 1.454v1.19c0 .798-.654 1.452-1.453 1.452"/>
    </g>
</svg>
