<?xml version="1.0" encoding="utf-8"?>
<!-- Generator: Adobe Illustrator 23.0.4, SVG Export Plug-In . SVG Version: 6.00 Build 0)  -->
<svg version="1.1" id="Layer_1" xmlns="http://www.w3.org/2000/svg" xmlns:xlink="http://www.w3.org/1999/xlink" x="0px" y="0px"
	 viewBox="0 0 40 40" style="enable-background:new 0 0 40 40;" xml:space="preserve">
<style type="text/css">
	.st0{fill:#d5d5d5;}
</style>
<path class="st0" d="M30.02,30.3c0.33,0.76-0.03,1.65-0.79,1.98c-0.19,0.08-0.39,0.12-0.59,0.12c-0.58,0-1.14-0.34-1.39-0.91
	c-1.17-2.72-3.94-4.48-7.06-4.49c-0.01,0-0.02,0-0.03,0c-3.19,0-5.97,1.74-7.11,4.44c-0.24,0.56-0.78,0.93-1.39,0.93c0,0,0,0,0,0
	c-0.2,0-0.39-0.04-0.58-0.12c-0.77-0.32-1.13-1.21-0.81-1.98c1.6-3.82,5.48-6.29,9.89-6.29c0.01,0,0.03,0,0.04,0
	C24.52,24,28.38,26.48,30.02,30.3z M14.53,10.26c0.33-0.19,0.57-0.5,0.67-0.86c0.1-0.37,0.05-0.75-0.14-1.08
	c-0.39-0.68-1.27-0.92-1.95-0.53l-4.33,2.49c-0.33,0.19-0.57,0.5-0.67,0.86C8,11.5,8.05,11.89,8.24,12.22
	c0.19,0.33,0.5,0.57,0.86,0.67c0.12,0.03,0.25,0.05,0.37,0.05c0.25,0,0.49-0.06,0.71-0.19L14.53,10.26z M31.83,10.65
	c-0.15-0.35-0.43-0.62-0.78-0.77L26.42,8c-0.73-0.29-1.56,0.06-1.86,0.79c-0.29,0.73,0.06,1.56,0.79,1.86l4.63,1.87
	c0.17,0.07,0.35,0.1,0.54,0.1c0.19,0,0.38-0.04,0.56-0.11c0.35-0.15,0.62-0.43,0.76-0.78C31.98,11.38,31.98,11,31.83,10.65z
	 M12.08,13.97c-0.44,0.44-0.68,1.02-0.68,1.64c0,0.62,0.24,1.2,0.68,1.64c0.45,0.45,1.05,0.68,1.64,0.68c0.59,0,1.19-0.23,1.64-0.68
	c0.91-0.9,0.91-2.38,0-3.28C14.46,13.06,12.98,13.06,12.08,13.97z M26.08,17.9C26.08,17.9,26.08,17.9,26.08,17.9
	c0.62,0,1.21-0.24,1.64-0.68c0.44-0.44,0.68-1.02,0.68-1.64c0-0.62-0.24-1.2-0.68-1.64c-0.88-0.88-2.41-0.88-3.29,0
	c-0.44,0.44-0.68,1.02-0.68,1.64c0,0.62,0.24,1.2,0.68,1.64C24.88,17.66,25.46,17.9,26.08,17.9z"/>
</svg>
