<?xml version="1.0" encoding="utf-8"?>
<!-- Generator: Adobe Illustrator 22.0.1, SVG Export Plug-In . SVG Version: 6.00 Build 0)  -->
<svg version="1.1" id="Layer_1" xmlns="http://www.w3.org/2000/svg" xmlns:xlink="http://www.w3.org/1999/xlink" x="0px" y="0px"
	 viewBox="0 0 862 296.9" style="enable-background:new 0 0 862 296.9;" xml:space="preserve">
<style type="text/css">
	.st0{fill:#A6A6A6;}
	.st1{font-family:'Lato-BoldItalic';}
	.st2{font-size:83.5746px;}
	.st3{fill:#FFFFFF;}
	.st4{fill:url(#SVGID_1_);}
	.st5{fill:#00A4FF;}
</style>
<g>
	<text transform="matrix(1 0 0 1 525.7061 275.9567)" class="st0 st1 st2">beta</text>
	<path class="st3" d="M14.5,84.8C4.8,96.5,0,111.9,0,131c0,18.5,4.7,33.3,14.1,44.4c9.4,11.1,22,16.7,37.9,16.7
		c13.7,0,24.9-4,33.6-11.9c8.7-8,13-18.2,13-30.7c0-5.4-2.4-8.1-7.2-8.1c-4.5,0-6.7,2.7-6.7,8.1c0,5.7-0.7,10.3-2.1,13.7
		c-2.1,5.2-5.8,9.3-11,12.5c-5.2,3.2-11.1,4.7-17.7,4.7c-12.1,0-21.5-4.5-28.2-13.4c-6.7-9-10.1-21.5-10.1-37.5
		c0-15.7,3.3-28,9.8-36.9C32,83.6,41,79.2,52.6,79.2c8.9,0,16.1,2.6,21.6,7.8c5.5,5.2,8.1,12,7.9,20.4v6.3c-0.1,5,2.1,7.5,6.7,7.5
		c4.2,0,6.3-2.6,6.3-7.9v-1.8l-0.8-6.7c-0.4-3.3-0.6-6.5-0.6-9.7c0-2.2,0.4-6.3,1.1-12.1c0.2-4.7,0.4-7.5,0.4-8.4
		c0-4.9-1.9-7.4-5.8-7.4c-3.6,0-5.5,2-5.5,6.1c0-0.2,0.1,1,0.4,3.6c0,0.1,0.1,0.5,0.4,1.3c0,0.7,0,1.4,0,2v2
		c-8.2-10-18.8-14.9-31.8-14.9C36.9,67.2,24.2,73.1,14.5,84.8z M134,100.4c-1.3,0-2.4,0.1-3.3,0.4c-2.1,0.3-3.6,0.4-4.6,0.4
		c-1.2,0-2.9-0.1-5.3-0.4c-2.3-0.3-4.1-0.4-5.3-0.4c-5,0-7.6,2.1-7.6,6.2c0,3.7,1.9,5.6,5.8,5.6c0.9,0,2.2-0.2,3.9-0.5
		c1.6-0.4,2.9-0.5,3.9-0.5c3.2,0,4.9,3.5,5.3,10.4l0.5,39.9v9c-0.2,5.4-1.8,8.1-4.8,8.1c-0.5,0-1.3-0.1-2.5-0.4l-2.7-0.5
		c-0.6-0.1-1.5-0.2-2.7-0.2c-4.5,0-6.7,1.8-6.7,5.4c0,4.1,2.4,6.1,7.2,6.1l9.8-0.9c2.7-0.2,6.4-0.4,11-0.4c1.8,0,4.4,0.2,8,0.6
		c3.6,0.4,6.2,0.6,8,0.6h0.7c4.8,0,7.2-2,7.2-6.1c0-3.7-1.9-5.5-5.6-5.5c-0.9,0-2.1,0.2-3.3,0.5c-1.6,0.4-3.2,0.6-4.7,0.6
		c-3,0-4.9-3.3-5.4-10c-0.1-0.9-0.2-5.3-0.2-13.2v-11.6c0-10.2,0.9-17.8,2.8-22.8c3-8.2,9.1-12.3,18.3-12.3c4.4,0,8.2,1.2,11.2,3.5
		c3,2.3,4.5,5.2,4.5,8.6c0,1.2-0.4,2.5-1.1,3.9c-1.2-0.4-1.9-0.5-2.3-0.5c-1.9,0-3.5,0.7-4.9,2.2c-1.4,1.5-2.1,3.1-2.1,5
		c0,2.3,0.9,4.3,2.8,6c1.9,1.6,4.2,2.5,6.9,2.5c4.2,0,7.6-1.6,10.2-4.8c2.6-3.2,3.9-7.4,3.9-12.6c0-7.3-2.5-13.2-7.6-17.8
		c-5.1-4.6-11.7-6.9-19.9-6.9c-10.2,0-18.3,4.3-24.4,12.8v-4.8C138.6,102.1,137.1,100.4,134,100.4z M227,122.6
		c0.1-6.3,0.2-10,0.3-10.9c0-0.5,0-1.2,0.1-2.1c0.1-0.9,0.1-1.6,0.1-2.1c0-4.6-1.7-6.9-5.1-6.9c-0.9,0-2.4,0.1-4.3,0.4
		c-1.9,0.3-3.4,0.4-4.3,0.4c-1.1,0-3.5-0.2-7.2-0.7c-0.9-0.1-2.5-0.2-4.7-0.2c-5.2,0-7.7,2-7.7,6c0,3.7,2.1,5.6,6.4,5.6
		c0.8,0,2.1-0.2,3.8-0.6c1.7-0.4,3-0.6,4-0.6c3,0,4.7,3.7,5.3,11.1c0,0.5,0,5.6,0,15.3v14.4c0,9.7,0,14.8,0,15.3
		c-0.6,7.5-2.3,11.2-5.1,11.2c-0.9,0-2.3-0.2-4.2-0.5c-1.8-0.4-3.2-0.5-4.2-0.5c-4,0-6,1.9-6,5.8c0,4,2.4,6,7.1,6
		c1.5,0,4.6-0.3,9.2-0.9c3.8-0.5,7.2-0.7,10.2-0.7c1.9,0,4.7,0.3,8.6,0.8c3.8,0.5,6.7,0.8,8.5,0.8c2.2,0,4.1-0.6,5.6-1.8
		c1.5-1.2,2.2-2.6,2.2-4.2c0-3.9-2.2-5.8-6.7-5.8c-1.2,0-2.1,0.1-2.6,0.4c-2.3,0.6-3.8,0.9-4.4,0.9c-2.6,0-4.2-2.6-4.7-7.9
		c-0.1-1.1-0.2-4.5-0.2-10.4v-22.8C226.8,132.3,226.9,127.4,227,122.6z M224.6,88.4c1.9-1.9,2.9-4.2,2.9-6.9c0-2.7-1-5-2.9-6.9
		c-1.9-1.9-4.2-2.8-6.9-2.8c-2.7,0-5,0.9-6.9,2.8c-1.9,1.9-2.9,4.2-2.9,6.9c0,2.7,1,5,2.9,6.9c1.9,1.9,4.2,2.9,6.9,2.9
		C220.4,91.3,222.7,90.3,224.6,88.4z M275.3,100.6c-0.9,0-2.4,0.1-4.4,0.3c-2,0.2-3.5,0.3-4.6,0.3c-1.4,0-3.6-0.1-6.5-0.4
		c-1.5-0.1-2.9-0.2-4.2-0.2c-5.2,0-7.7,1.9-7.7,5.6c0,3.9,2.1,5.8,6.4,5.8c0.9,0,2.2-0.2,3.9-0.6c1.7-0.4,2.9-0.6,3.7-0.6
		c2.9,0,4.4,2.7,4.5,8.1v67.8c-0.1,10.4-0.4,16.8-1,19.1c-0.5,2.3-1.9,3.4-4.1,3.4c-0.9,0-2.4-0.2-4.4-0.6c-1.5-0.3-2.6-0.5-3.3-0.5
		c-3.9,0-5.9,1.8-5.9,5.5c0,1.6,0.7,3,2.1,4.2c1.4,1.2,3.1,1.8,5.1,1.8c1.5,0,4.6-0.3,9.3-0.9c1.9-0.2,4.2-0.4,7-0.4
		c5.1,0,9,0.2,11.6,0.5c3.5,0.5,6.1,0.7,7.9,0.7c4.9,0,7.4-1.9,7.4-5.8c0-3.9-1.9-5.8-5.6-5.8c-0.8,0-2.1,0.2-3.7,0.5
		c-1.6,0.4-2.9,0.5-3.7,0.5c-2.7,0-4.4-1.8-5.1-5.4c-0.2-1.3-0.4-4.2-0.4-8.6v-14.6c6.3,7.1,14.6,10.7,24.8,10.7
		c12.3,0,22.1-4.4,29.4-13.3c7.3-8.8,11-20.7,11-35.6c0-13.8-3.5-24.8-10.4-32.9c-6.9-8.1-16.2-12.1-27.9-12.1
		c-11.4,0-20.3,4.6-26.9,13.7v-5.6C279.7,102.2,278.2,100.6,275.3,100.6z M290.7,114.1c4.4-3.4,9.4-5.1,15-5.1
		c16.6,0,24.9,11.7,24.9,35.1c0,11.4-2.3,20.1-6.9,26.3c-4.6,6.1-11.2,9.2-19.6,9.2c-5.6,0-10.3-1.4-14.1-4.2
		c-3.8-2.8-6.4-6-7.6-9.6c-1.3-3.6-1.9-9.3-1.9-17.1c0-0.6,0-1.4,0-2.5c0.1-1.3,0.2-2.2,0.2-2.6c0.1-6.6,0.7-12.1,1.8-16.7
		C283.5,121.8,286.3,117.5,290.7,114.1z M394.1,179c-8.2,0-12.3-6.2-12.3-18.4v-43.2c0-2.5,0.8-3.7,2.5-3.7h19.3
		c4.8,0,7.2-2.2,7.2-6.5c0-4.1-2.2-6.1-6.7-6.1h-19.2c-2.1,0-3.2-0.9-3.2-2.6V79.5c0-4.5-2.1-6.7-6.3-6.7c-4.6,0-6.9,2.2-6.9,6.7
		v18.1c0,2.2-1,3.3-3,3.3h-6.9c-1.5,0-2.9,0.6-4.1,1.9c-1.2,1.3-1.8,2.8-1.8,4.4c0,1.8,0.6,3.2,1.9,4.5c1.3,1.2,2.8,1.8,4.8,1.8h5.7
		c2.3,0,3.4,1.2,3.4,3.7v42.2c0,10.4,1.5,17.8,4.4,22.1c4,6,10.6,9,19.9,9c10.1,0,17.4-3.4,21.8-10.2c3.3-5,4.9-13.9,4.9-26.7
		c0-5.4-2.1-8.1-6.1-8.1c-4.1,0-6.2,2.4-6.3,7.2V164C406.7,174,402.4,179,394.1,179z M497.5,108.5c-7.1-7.4-16.2-11.1-27.2-11.1
		c-12.4,0-22.5,4.5-30.2,13.4c-7.7,8.9-11.6,20.5-11.6,34.8c0,13.9,3.6,25,10.9,33.3c7.3,8.3,17,12.4,29.3,12.4
		c9.8,0,18.6-3,26.4-8.9c7.7-5.9,11.6-12.7,11.6-20.3c0-4.5-2.2-6.7-6.5-6.7c-3,0-5,1.4-5.8,4.2l-1.6,5.1c-1.3,4.3-4.1,7.9-8.3,10.7
		c-4.3,2.8-9,4.2-14.1,4.2c-7.8,0-14.4-2.9-19.7-8.8c-5.3-5.9-7.9-13.2-7.9-22c0-0.9,0.2-1.6,0.7-2c0.5-0.4,1.5-0.6,3-0.6h55.9
		c2.8,0,4.5-0.5,5.1-1.5c0.6-1,0.9-3.7,0.9-8.2C508.3,125.3,504.7,115.9,497.5,108.5z M452.6,116.2c5.4-4.7,11.4-7.1,17.9-7.1
		c6.3,0,11.8,2.3,16.5,6.9c4.7,4.6,7,10,7,16.2c0,1.6-1.2,2.5-3.7,2.5h-42c-2.6,0-3.9-0.8-3.9-2.5
		C444.5,126.2,447.2,120.9,452.6,116.2z M527.8,177.7c-0.7,0-1.8-0.1-3.2-0.3c-1.4-0.2-2.5-0.3-3.2-0.3c-4.2,0-6.3,1.9-6.3,5.8
		c0,4,2.5,6,7.4,6c1.9,0,4.8-0.2,8.8-0.7c2.9-0.4,5.4-0.5,7.6-0.5c2.7,0,5.8,0.2,9.3,0.5l7,0.7h2.5c5,0,7.6-1.9,7.6-5.6
		c0-4.1-2.5-6.1-7.6-6.1c-0.8,0-2.1,0.1-3.7,0.4c-1.6,0.2-2.9,0.4-3.7,0.4c-1.2,0-1.8-0.3-1.8-0.9c0-0.5,0.4-1.2,1.2-2.1l19.9-22.8
		l19.5,22.8l0.5,0.7c0.4,0.4,0.5,0.7,0.5,1.1c0,0.9-0.6,1.4-1.8,1.4c-0.6,0-1-0.1-1.2-0.2c-2.8-0.5-5-0.7-6.5-0.7
		c-4.3,0-6.5,2-6.5,6.1c0,3.7,2.8,5.6,8.3,5.6h1.9l6.3-0.7c3.2-0.4,6.3-0.5,9.5-0.5c3.7,0,6.6,0.1,8.4,0.4l6.9,0.9h1.4
		c4.9,0,7.4-2,7.4-6.1c0-3.7-2.1-5.6-6.3-5.6c-0.7,0-1.8,0.1-3.3,0.4c-1.5,0.2-2.5,0.4-3.3,0.4c-2.3,0-4.3-1-6-3L578,142.5
		l20.5-23.3c4.9-5.6,8.8-8.5,11.6-8.5c0.9,0,2.3,0.2,4.1,0.6c1.8,0.4,3.1,0.6,4.1,0.6c4,0,6-1.9,6-5.7c0-3.9-2.6-5.9-7.7-5.9
		c-1.4,0-3.7,0.2-7,0.6c-3.3,0.4-6.4,0.6-9.3,0.6c-2.9,0-5.7-0.1-8.3-0.4c-6.4-0.6-9.5-0.9-9.3-0.9c-4.9,0-7.4,1.9-7.4,5.7
		c0,3.9,2.1,5.9,6.2,5.9c0.7,0,1.7-0.2,3-0.6c1.3-0.4,2.3-0.6,2.9-0.6c0.5,0,0.8,0.1,0.9,0.4c0,0.5-0.5,1.3-1.6,2.5l-16.7,19.6
		l-16-19.6c-0.8-0.9-1.3-1.8-1.6-2.5c0-0.2,0.2-0.4,0.7-0.4h1.1l2.6,0.8c0.8,0.3,1.7,0.4,2.6,0.4c4.4,0,6.7-1.9,6.7-5.6
		c0-4-2.4-6-7.2-6c-1.9,0-4.7,0.2-8.4,0.6c-3.7,0.4-6.6,0.6-8.6,0.6c-2,0-4.5-0.2-7.4-0.7c-5.7-0.4-8.7-0.5-8.8-0.5h-0.5
		c-4.8,0-7.2,2-7.2,6c0,3.7,1.9,5.6,5.8,5.6c1.2,0,2-0.1,2.5-0.2l3-0.8c0.5-0.1,1.2-0.2,2.1-0.2c2.3,0,4.3,0.9,6,2.8l24.4,29
		l-24.4,28.1C533.2,175.4,530,177.7,527.8,177.7z M669,179c-8.2,0-12.3-6.2-12.3-18.4v-43.2c0-2.5,0.8-3.7,2.5-3.7h19.3
		c4.8,0,7.2-2.2,7.2-6.5c0-4.1-2.2-6.1-6.7-6.1h-19.2c-2.1,0-3.2-0.9-3.2-2.6V79.5c0-4.5-2.1-6.7-6.3-6.7c-4.6,0-6.9,2.2-6.9,6.7
		v18.1c0,2.2-1,3.3-3,3.3h-6.9c-1.5,0-2.9,0.6-4.1,1.9c-1.2,1.3-1.8,2.8-1.8,4.4c0,1.8,0.6,3.2,1.9,4.5c1.3,1.2,2.8,1.8,4.8,1.8h5.7
		c2.3,0,3.4,1.2,3.4,3.7v42.2c0,10.4,1.5,17.8,4.4,22.1c4,6,10.6,9,19.9,9c10.1,0,17.4-3.4,21.8-10.2c3.3-5,4.9-13.9,4.9-26.7
		c0-5.4-2.1-8.1-6.1-8.1c-4.1,0-6.2,2.4-6.3,7.2V164C681.7,174,677.3,179,669,179z"/>
	<g>
		<g>
			<linearGradient id="SVGID_1_" gradientUnits="userSpaceOnUse" x1="710.6284" y1="-48.8493" x2="833.8786" y2="164.7844">
				<stop  offset="0" style="stop-color:#00C4FF"/>
				<stop  offset="0.4265" style="stop-color:#00ACFF"/>
				<stop  offset="0.9944" style="stop-color:#0091FF"/>
			</linearGradient>
			<path class="st4" d="M862,58c0.9,33.2-32.9,61-75.6,62.2c-9.6,0.3-18.8-0.9-27.4-3.1l-38.3,18.6c0,0,12-27.4-0.9-42.3l0,0
				c-7.5-9-12-19.6-12.3-31.1C706.7,29,740.5,1.2,783.1,0C825.8-1.1,861.1,24.8,862,58z"/>
		</g>
	</g>
	<path class="st3" d="M764,48.1h8.3c0.5-7.9,4.7-16.6,14.9-16.6c9.9,0.1,14.2,9.1,14.8,16.5l8.2,0c-0.1-14-7.6-24.4-23-24.7
		C771.9,23.2,764.1,34.3,764,48.1z"/>
	<path class="st3" d="M810.2,89.3h-46.6c-2.6,0-4.7-2.1-4.7-4.7V55.9c0-2.6,2.1-4.7,4.7-4.7h46.6c2.6,0,4.7,2.1,4.7,4.7v28.6
		C814.9,87.2,812.8,89.3,810.2,89.3z"/>
	<path class="st5" d="M788.6,72.6l3.2,8.4l-9.9,0l3.3-8.4c-2.1-0.7-3.6-2.8-3.5-5.1c0-2.9,2.4-5.3,5.3-5.3c2.9,0,5.2,2.3,5.2,5.2
		C792.2,69.8,790.7,71.9,788.6,72.6z"/>
</g>
</svg>
