<?xml version="1.0" encoding="UTF-8"?>
<svg width="129px" height="35px" viewBox="0 0 129 35" version="1.1" xmlns="http://www.w3.org/2000/svg" xmlns:xlink="http://www.w3.org/1999/xlink">
    <!-- Generator: Sketch 50.2 (55047) - http://www.bohemiancoding.com/sketch -->
    <title>Menu-logo</title>
    <desc>Created with Sketch.</desc>
    <defs>
        <polygon id="path-1" points="0.0002375 0.2648125 102.626838 0.2648125 102.626838 22.8 0.0002375 22.8"></polygon>
        <linearGradient x1="-8.46142901%" y1="-3.40346322%" x2="96.6279786%" y2="103.631766%" id="linearGradient-3">
            <stop stop-color="#00C4FF" offset="0%"></stop>
            <stop stop-color="#0091FF" offset="100%"></stop>
        </linearGradient>
    </defs>
    <g id="Page-1" stroke="none" stroke-width="1" fill="none" fill-rule="evenodd">
        <g id="INBOX-FINAL" transform="translate(-47.000000, -10.000000)">
            <g id="Menu-logo" transform="translate(47.033749, 10.000000)">
                <g id="Group-3" transform="translate(0.000000, 11.143957)">
                    <mask id="mask-2" fill="white">
                        <use xlink:href="#path-1"></use>
                    </mask>
                    <g id="Clip-2"></g>
                    <path d="M98.8615125,16.7767625 C97.6502625,16.7767625 97.0451125,15.8676125 97.0451125,14.0507375 L97.0451125,7.6638875 C97.0451125,7.3005125 97.1657625,7.1185875 97.4084875,7.1185875 L100.264188,7.1185875 C100.973838,7.1185875 101.328663,6.7989125 101.328663,6.1586125 C101.328663,5.5529875 100.999488,5.2494625 100.342088,5.2494625 L97.5125125,5.2494625 C97.2009125,5.2494625 97.0451125,5.1197875 97.0451125,4.8599625 L97.0451125,2.0821625 C97.0451125,1.4247625 96.7335125,1.0955875 96.1103125,1.0955875 C95.4353375,1.0955875 95.0980875,1.4247625 95.0980875,2.0821625 L95.0980875,4.7559375 C95.0980875,5.0851125 94.9508375,5.2494625 94.6563375,5.2494625 L93.6441125,5.2494625 C93.4189625,5.2494625 93.2156625,5.3449375 93.0337375,5.5349375 C92.8522875,5.7258875 92.7615625,5.9415375 92.7615625,6.1842625 C92.7615625,6.4440875 92.8541875,6.6644875 93.0399125,6.8459375 C93.2256375,7.0278625 93.4607625,7.1185875 93.7438625,7.1185875 L94.5931625,7.1185875 C94.9294625,7.1185875 95.0980875,7.3005125 95.0980875,7.6638875 L95.0980875,13.8949375 C95.0980875,15.4358375 95.3123125,16.5259625 95.7426625,17.1662625 C96.3269125,18.0488125 97.3068375,18.4900875 98.6819625,18.4900875 C100.177263,18.4900875 101.251713,17.9884875 101.904838,16.9843375 C102.386013,16.2404875 102.626838,14.9252125 102.626838,13.0380375 C102.626838,12.2424125 102.323788,11.8438875 101.718163,11.8438875 C101.112063,11.8438875 100.800938,12.1987125 100.783363,12.9083625 L100.783363,14.5699125 C100.731113,16.0414625 100.089863,16.7767625 98.8615125,16.7767625 M77.9890625,16.5948375 C77.8855125,16.5948375 77.7297125,16.5815375 77.5221375,16.5563625 C77.3140875,16.5297625 77.1582875,16.5174125 77.0547375,16.5174125 C76.4315375,16.5174125 76.1199375,16.8028875 76.1199375,17.3738375 C76.1199375,17.9623625 76.4833125,18.2568625 77.2100625,18.2568625 C77.4869875,18.2568625 77.9201875,18.2217125 78.5082375,18.1528375 C78.9409625,18.1005875 79.3133625,18.0749375 79.6244875,18.0749375 C80.0225375,18.0749375 80.4818625,18.1005875 81.0005625,18.1528375 L82.0389125,18.2568625 L82.4027625,18.2568625 C83.1470875,18.2568625 83.5190125,17.9799375 83.5190125,17.4256125 C83.5190125,16.8199875 83.1470875,16.5174125 82.4027625,16.5174125 C82.2816375,16.5174125 82.0997125,16.5345125 81.8574625,16.5691875 C81.6147375,16.6038625 81.4332875,16.6209625 81.3121625,16.6209625 C81.1392625,16.6209625 81.0528125,16.5782125 81.0528125,16.4908125 C81.0528125,16.4219375 81.1131375,16.3183875 81.2347375,16.1796875 L84.1678625,12.8043375 L87.0501625,16.1796875 L87.1275875,16.2832375 C87.1798375,16.3354875 87.2059625,16.3872625 87.2059625,16.4390375 C87.2059625,16.5782125 87.1190375,16.6470875 86.9461375,16.6470875 C86.8592125,16.6470875 86.7988875,16.6380625 86.7646875,16.6209625 C86.3490625,16.5516125 86.0284375,16.5174125 85.8037625,16.5174125 C85.1634625,16.5174125 84.8433125,16.8199875 84.8433125,17.4256125 C84.8433125,17.9799375 85.2494375,18.2568625 86.0635875,18.2568625 L86.3490625,18.2568625 L87.2833875,18.1528375 C87.7507875,18.1005875 88.2181875,18.0749375 88.6855875,18.0749375 C89.2394375,18.0749375 89.6545875,18.0925125 89.9319875,18.1267125 L90.9442125,18.2568625 L91.1522625,18.2568625 C91.8790125,18.2568625 92.2423875,17.9542875 92.2423875,17.3477125 C92.2423875,16.7943375 91.9307875,16.5174125 91.3080625,16.5174125 C91.2040375,16.5174125 91.0439625,16.5345125 90.8273625,16.5691875 C90.6107625,16.6038625 90.4506875,16.6209625 90.3471375,16.6209625 C90.0008625,16.6209625 89.7068375,16.4737125 89.4645875,16.1782625 L85.4142625,11.3888375 L88.4371625,7.9526875 C89.1672375,7.1200125 89.7400875,6.7034375 90.1571375,6.7034375 C90.2963125,6.7034375 90.4958125,6.7338375 90.7570625,6.7941625 C91.0173625,6.8549625 91.2173375,6.8848875 91.3565125,6.8848875 C91.9469375,6.8848875 92.2423875,6.6036875 92.2423875,6.0412875 C92.2423875,5.4617875 91.8614375,5.1715625 91.1000125,5.1715625 C90.8924375,5.1715625 90.5461625,5.2019625 90.0616625,5.2627625 C89.5771625,5.3235625 89.1178375,5.3534875 88.6855875,5.3534875 C88.2528625,5.3534875 87.8457875,5.3363875 87.4653125,5.3017125 C86.5134125,5.2152625 86.0545625,5.1715625 86.0892375,5.1715625 C85.3624875,5.1715625 84.9986375,5.4532375 84.9986375,6.0156375 C84.9986375,6.5956125 85.3059625,6.8848875 85.9210875,6.8848875 C86.0232125,6.8848875 86.1728375,6.8549625 86.3694875,6.7941625 C86.5656625,6.7338375 86.7067375,6.7034375 86.7917625,6.7034375 C86.8601625,6.7034375 86.9029125,6.7214875 86.9200125,6.7561625 C86.9200125,6.8269375 86.8421125,6.9499625 86.6863125,7.1252375 L84.2201125,10.0265375 L81.8574625,7.1252375 C81.7363375,6.9851125 81.6584375,6.8616125 81.6237625,6.7561625 C81.6237625,6.7214875 81.6584375,6.7034375 81.7277875,6.7034375 L81.8835875,6.7034375 L82.2730875,6.8245625 C82.3937375,6.8649375 82.5234125,6.8848875 82.6625875,6.8848875 C83.3199875,6.8848875 83.6491625,6.6084375 83.6491625,6.0545875 C83.6491625,5.4660625 83.2943375,5.1715625 82.5842125,5.1715625 C82.3072875,5.1715625 81.8921375,5.2019625 81.3382875,5.2627625 C80.7839625,5.3235625 80.3602625,5.3534875 80.0662375,5.3534875 C79.7717375,5.3534875 79.4078875,5.3188125 78.9756375,5.2494625 C78.1277625,5.1976875 77.6945625,5.1715625 77.6779375,5.1715625 L77.5995625,5.1715625 C76.8899125,5.1715625 76.5355625,5.4660625 76.5355625,6.0545875 C76.5355625,6.6084375 76.8210375,6.8848875 77.3919875,6.8848875 C77.5648875,6.8848875 77.6860125,6.8749125 77.7553625,6.8549625 L78.1971125,6.7338375 C78.2659875,6.7134125 78.3695375,6.7034375 78.5082375,6.7034375 C78.8545125,6.7034375 79.1490125,6.8426125 79.3912625,7.1204875 L82.9998375,11.4016625 L79.3912625,15.5507875 C78.7851625,16.2471375 78.3177625,16.5948375 77.9890625,16.5948375 M66.8773875,7.4947875 C67.6730125,6.7941625 68.5560375,6.4440875 69.5255125,6.4440875 C70.4603125,6.4440875 71.2735125,6.7813375 71.9655875,7.4563125 C72.6576625,8.1312875 73.0044125,8.9278625 73.0044125,9.8450875 C73.0044125,10.0873375 72.8224875,10.2084625 72.4591125,10.2084625 L66.2541875,10.2084625 C65.8732375,10.2084625 65.6832375,10.0873375 65.6832375,9.8450875 C65.6832375,8.9796375 66.0812875,8.1963625 66.8773875,7.4947875 M73.5235875,6.3661875 C72.4676625,5.2755875 71.1262625,4.7302875 69.4993875,4.7302875 C67.6649375,4.7302875 66.1762875,5.3881625 65.0343875,6.7034375 C63.8915375,8.0191875 63.3205875,9.7325125 63.3205875,11.8438875 C63.3205875,13.9039625 63.8568625,15.5431875 64.9303625,16.7639375 C66.0033875,17.9842125 67.4488125,18.5941125 69.2656875,18.5941125 C70.7196625,18.5941125 72.0178375,18.1566375 73.1602125,17.2826375 C74.3025875,16.4091125 74.8740125,15.4097125 74.8740125,14.2844375 C74.8740125,13.6270375 74.5533875,13.2978625 73.9130875,13.2978625 C73.4627875,13.2978625 73.1773125,13.5054375 73.0561875,13.9210625 L72.8224875,14.6739375 C72.6320125,15.3142375 72.2211375,15.8419625 71.5893875,16.2571125 C70.9571625,16.6727375 70.2612875,16.8807875 69.4993875,16.8807875 C68.3399125,16.8807875 67.3709125,16.4480625 66.5914375,15.5821375 C65.8129125,14.7171625 65.4234125,13.6351125 65.4234125,12.3374125 C65.4234125,12.1987125 65.4580875,12.0994375 65.5274375,12.0381625 C65.5963125,11.9783125 65.7435625,11.9474375 65.9687125,11.9474375 L74.2246875,11.9474375 C74.6398375,11.9474375 74.8906375,11.8742875 74.9775625,11.7270375 C75.0640125,11.5802625 75.1072375,11.1779375 75.1072375,10.5200625 C75.1072375,8.8409375 74.5790375,7.4563125 73.5235875,6.3661875 M58.2314375,16.7767625 C57.0201875,16.7767625 56.4150375,15.8676125 56.4150375,14.0507375 L56.4150375,7.6638875 C56.4150375,7.3005125 56.5356875,7.1185875 56.7784125,7.1185875 L59.6341125,7.1185875 C60.3437625,7.1185875 60.6985875,6.7989125 60.6985875,6.1586125 C60.6985875,5.5529875 60.3694125,5.2494625 59.7120125,5.2494625 L56.8824375,5.2494625 C56.5708375,5.2494625 56.4150375,5.1197875 56.4150375,4.8599625 L56.4150375,2.0821625 C56.4150375,1.4247625 56.1034375,1.0955875 55.4802375,1.0955875 C54.8052625,1.0955875 54.4675375,1.4247625 54.4675375,2.0821625 L54.4675375,4.7559375 C54.4675375,5.0851125 54.3207625,5.2494625 54.0262625,5.2494625 L53.0140375,5.2494625 C52.7884125,5.2494625 52.5855875,5.3449375 52.4036625,5.5349375 C52.2222125,5.7258875 52.1314875,5.9415375 52.1314875,6.1842625 C52.1314875,6.4440875 52.2241125,6.6644875 52.4098375,6.8459375 C52.5955625,7.0278625 52.8306875,7.1185875 53.1133125,7.1185875 L53.9630875,7.1185875 C54.2993875,7.1185875 54.4675375,7.3005125 54.4675375,7.6638875 L54.4675375,13.8949375 C54.4675375,15.4358375 54.6822375,16.5259625 55.1121125,17.1662625 C55.6963625,18.0488125 56.6762875,18.4900875 58.0514125,18.4900875 C59.5467125,18.4900875 60.6216375,17.9884875 61.2747625,16.9843375 C61.7559375,16.2404875 61.9967625,14.9252125 61.9967625,13.0380375 C61.9967625,12.2424125 61.6937125,11.8438875 61.0880875,11.8438875 C60.4819875,11.8438875 60.1703875,12.1987125 60.1532875,12.9083625 L60.1532875,14.5699125 C60.1005625,16.0414625 59.4597875,16.7767625 58.2314375,16.7767625 M42.9540125,7.1969625 C43.6028625,6.6948875 44.3429125,6.4440875 45.1736875,6.4440875 C47.6308625,6.4440875 48.8601625,8.1745125 48.8601625,11.6363125 C48.8601625,13.3149625 48.5181625,14.6088625 47.8346375,15.5175375 C47.1506375,16.4262125 46.1863875,16.8807875 44.9399875,16.8807875 C44.1092125,16.8807875 43.4123875,16.6727375 42.8499875,16.2571125 C42.2871125,15.8419625 41.9109125,15.3707625 41.7209125,14.8425625 C41.5299625,14.3143625 41.4354375,13.4712375 41.4354375,12.3112875 L41.4354375,11.9474375 C41.4520625,11.7574375 41.4610875,11.6277625 41.4610875,11.5584125 C41.4781875,10.5889375 41.5651125,9.7667125 41.7209125,9.0917375 C41.8933375,8.3307875 42.3046875,7.6990375 42.9540125,7.1969625 M40.6820875,5.1976875 C40.5433875,5.1976875 40.3272625,5.2105125 40.0332375,5.2366375 C39.7387375,5.2627625 39.5140625,5.2755875 39.3582625,5.2755875 C39.1502125,5.2755875 38.8300625,5.2584875 38.3978125,5.2233375 C38.1721875,5.2067125 37.9646125,5.1976875 37.7746125,5.1976875 C37.0127125,5.1976875 36.6322375,5.4746125 36.6322375,6.0284625 C36.6322375,6.5994125 36.9495375,6.8848875 37.5836625,6.8848875 C37.7209375,6.8848875 37.9133125,6.8549625 38.1622125,6.7941625 C38.4111125,6.7338375 38.5954125,6.7034375 38.7155875,6.7034375 C39.1440375,6.7034375 39.3672875,7.1019625 39.3839125,7.8975875 L39.3839125,17.9191375 C39.3672875,19.4590875 39.3193125,20.3986375 39.2423625,20.7358875 C39.1654125,21.0731375 38.9635375,21.2422375 38.6381625,21.2422375 C38.5008875,21.2422375 38.2861875,21.2127875 37.9950125,21.1534125 C37.7717625,21.1087625 37.6093125,21.0864375 37.5067125,21.0864375 C36.9234125,21.0864375 36.6322375,21.3586125 36.6322375,21.9043875 C36.6322375,22.1428375 36.7357875,22.3518375 36.9424125,22.5313875 C37.1495125,22.7104625 37.3993625,22.8002375 37.6929125,22.8002375 C37.9166375,22.8002375 38.3740625,22.7565375 39.0642375,22.6700875 C39.3397375,22.6354125 39.6845875,22.6183125 40.0987875,22.6183125 C40.8573625,22.6183125 41.4264125,22.6439625 41.8064125,22.6962125 C42.3236875,22.7646125 42.7117625,22.8002375 42.9706375,22.8002375 C43.6950125,22.8002375 44.0574375,22.5142875 44.0574375,21.9433375 C44.0574375,21.3719125 43.7800375,21.0864375 43.2266625,21.0864375 C43.1050625,21.0864375 42.9231375,21.1120875 42.6813625,21.1643375 C42.4386375,21.2161125 42.2571875,21.2422375 42.1360625,21.2422375 C41.7375375,21.2422375 41.4872125,20.9733875 41.3831875,20.4375875 C41.3480375,20.2466375 41.3314125,19.8229375 41.3314125,19.1650625 L41.3314125,17.0104625 C42.2662125,18.0663875 43.4860125,18.5941125 44.9917625,18.5941125 C46.8095875,18.5941125 48.2588125,17.9409875 49.3403875,16.6337875 C50.4219625,15.3275375 50.9634625,13.5747875 50.9634625,11.3764875 C50.9634625,9.3344625 50.4523625,7.7161375 49.4315875,6.5215125 C48.4098625,5.3273625 47.0337875,4.7302875 45.3033625,4.7302875 C43.6242375,4.7302875 42.3004125,5.4057375 41.3314125,6.7552125 L41.3314125,5.9244375 C41.3314125,5.4399375 41.1148125,5.1976875 40.6820875,5.1976875 M33.1922875,3.3931625 C33.4777625,3.1076875 33.6207375,2.7661625 33.6207375,2.3676375 C33.6207375,1.9700625 33.4777625,1.6323375 33.1922875,1.3549375 C32.9068125,1.0784875 32.5648125,0.9397875 32.1667625,0.9397875 C31.7682375,0.9397875 31.4267125,1.0784875 31.1412375,1.3549375 C30.8557625,1.6323375 30.7127875,1.9700625 30.7127875,2.3676375 C30.7127875,2.7661625 30.8557625,3.1076875 31.1412375,3.3931625 C31.4267125,3.6786375 31.7682375,3.8216125 32.1667625,3.8216125 C32.5648125,3.8216125 32.9068125,3.6786375 33.1922875,3.3931625 M33.5376125,8.4428875 C33.5509125,7.5080875 33.5651625,6.9718125 33.5794125,6.8331125 C33.5794125,6.7642375 33.5860625,6.6602125 33.5998375,6.5215125 C33.6136125,6.3832875 33.6207375,6.2792625 33.6207375,6.2099125 C33.6207375,5.5349375 33.3694625,5.1976875 32.8673875,5.1976875 C32.7286875,5.1976875 32.5173125,5.2195375 32.2318375,5.2627625 C31.9463625,5.3059875 31.7340375,5.3273625 31.5958125,5.3273625 C31.4400125,5.3273625 31.0851875,5.2926875 30.5308625,5.2233375 C30.3921625,5.2067125 30.1589375,5.1976875 29.8302375,5.1976875 C29.0683375,5.1976875 28.6878625,5.4921875 28.6878625,6.0802375 C28.6878625,6.6345625 29.0023125,6.9110125 29.6307375,6.9110125 C29.7528125,6.9110125 29.9409125,6.8810875 30.1940875,6.8202875 C30.4472625,6.7599625 30.6439125,6.7295625 30.7840375,6.7295625 C31.2205625,6.7295625 31.4818125,7.2743875 31.5696875,8.3649875 L31.5696875,10.6236125 L31.5696875,12.7525625 L31.5696875,15.0111875 C31.4818125,16.1188875 31.2286375,16.6727375 30.8096875,16.6727375 C30.6695625,16.6727375 30.4643625,16.6470875 30.1940875,16.5948375 C29.9228625,16.5430625 29.7181375,16.5174125 29.5784875,16.5174125 C28.9847375,16.5174125 28.6878625,16.8028875 28.6878625,17.3738375 C28.6878625,17.9623625 29.0350875,18.2568625 29.7300125,18.2568625 C29.9556375,18.2568625 30.4068875,18.2131625 31.0847125,18.1267125 C31.6399875,18.0578375 32.1434875,18.0231625 32.5956875,18.0231625 C32.8735625,18.0231625 33.2944125,18.0616375 33.8591875,18.1395375 C34.4234875,18.2179125 34.8443375,18.2568625 35.1226875,18.2568625 C35.4523375,18.2568625 35.7259375,18.1699375 35.9430125,17.9965625 C36.1600875,17.8241375 36.2688625,17.6165625 36.2688625,17.3738375 C36.2688625,16.8028875 35.9396875,16.5174125 35.2822875,16.5174125 C35.1089125,16.5174125 34.9792375,16.5345125 34.8927875,16.5691875 C34.5465125,16.6556375 34.3299125,16.6988625 34.2434625,16.6988625 C33.8629875,16.6988625 33.6288125,16.3093625 33.5428375,15.5303625 C33.5252625,15.3745625 33.5167125,14.8644125 33.5167125,13.9989625 L33.5167125,10.6236125 C33.5167125,9.8797625 33.5238375,9.1530125 33.5376125,8.4428875 M19.8086875,5.1715625 C19.6182125,5.1715625 19.4538625,5.1934125 19.3156375,5.2366375 C19.0040375,5.2798625 18.7788875,5.3017125 18.6406625,5.3017125 C18.4672875,5.3017125 18.2079375,5.2798625 17.8616625,5.2366375 C17.5153875,5.1934125 17.2555625,5.1715625 17.0826625,5.1715625 C16.3383375,5.1715625 15.9664125,5.4746125 15.9664125,6.0802375 C15.9664125,6.6345625 16.2518875,6.9110125 16.8233125,6.9110125 C16.9615375,6.9110125 17.1515375,6.8848875 17.3942625,6.8331125 C17.6365125,6.7813375 17.8265125,6.7552125 17.9656875,6.7552125 C18.4326125,6.7552125 18.6924375,7.2663125 18.7446875,8.2870875 L18.8221125,14.1804125 L18.8221125,15.5047125 C18.7874375,16.3008125 18.5513625,16.6988625 18.1148375,16.6988625 C18.0450125,16.6988625 17.9224625,16.6817625 17.7481375,16.6470875 L17.3548375,16.5691875 C17.2674375,16.5516125 17.1363375,16.5430625 16.9620125,16.5430625 C16.2984375,16.5430625 15.9664125,16.8114375 15.9664125,17.3477125 C15.9664125,17.9542875 16.3198125,18.2568625 17.0270875,18.2568625 L18.4763125,18.1267125 C18.8729375,18.0925125 19.4163375,18.0749375 20.1060375,18.0749375 C20.3649125,18.0749375 20.7572625,18.1048625 21.2835625,18.1656625 C21.8098625,18.2259875 22.2022125,18.2568625 22.4610875,18.2568625 L22.5646375,18.2568625 C23.2714375,18.2568625 23.6253125,17.9585625 23.6253125,17.3610125 C23.6253125,16.8161875 23.3479125,16.5430625 22.7945375,16.5430625 C22.6558375,16.5430625 22.4914875,16.5653875 22.3010125,16.6100375 C22.0587625,16.6694125 21.8250625,16.6988625 21.6003875,16.6988625 C21.1496125,16.6988625 20.8817125,16.2053375 20.7952625,15.2187625 C20.7781625,15.0805375 20.7696125,14.4316875 20.7696125,13.2717375 L20.7696125,11.5584125 C20.7696125,10.0526625 20.9078375,8.9278625 21.1847625,8.1835375 C21.6345875,6.9718125 22.5351875,6.3661875 23.8851375,6.3661875 C24.5425375,6.3661875 25.0921125,6.5390875 25.5333875,6.8848875 C25.9746625,7.2316375 26.1955375,7.6553375 26.1955375,8.1574125 C26.1955375,8.3307875 26.1437625,8.5207875 26.0397375,8.7283625 C25.8663625,8.6765875 25.7542625,8.6504625 25.7020125,8.6504625 C25.4250875,8.6504625 25.1828375,8.7592375 24.9752625,8.9748875 C24.7676875,9.1919625 24.6636625,9.4384875 24.6636625,9.7149375 C24.6636625,10.0612125 24.8018875,10.3557125 25.0792875,10.5979625 C25.3557375,10.8402125 25.6929875,10.9613375 26.0915125,10.9613375 C26.7147125,10.9613375 27.2163125,10.7233625 27.5977375,10.2469375 C27.9777375,9.7709875 28.1686875,9.1530125 28.1686875,8.3911125 C28.1686875,7.3176125 27.7920125,6.4398125 27.0391375,5.7558125 C26.2862625,5.0722875 25.3039625,4.7302875 24.0927125,4.7302875 C22.5864875,4.7302875 21.3837875,5.3625125 20.4841375,6.6255375 L20.4841375,5.9116125 C20.4841375,5.4185625 20.2589875,5.1715625 19.8086875,5.1715625 M2.1415375,2.8611625 C0.7141625,4.5920625 0.0002375,6.8682625 0.0002375,9.6888125 C0.0002375,12.4238625 0.6961125,14.6131375 2.0897625,16.2571125 C3.4829375,17.9020375 5.3482625,18.7237875 7.6847875,18.7237875 C9.7097125,18.7237875 11.3627125,18.1357375 12.6433125,16.9582125 C13.9243875,15.7816375 14.5646875,14.2673375 14.5646875,12.4148375 C14.5646875,11.6192125 14.2098625,11.2206875 13.5002125,11.2206875 C12.8423375,11.2206875 12.5136375,11.6192125 12.5136375,12.4148375 C12.5136375,13.2636625 12.4100875,13.9381625 12.2020375,14.4402375 C11.8904375,15.2021375 11.3494125,15.8163125 10.5794375,16.2832375 C9.8089875,16.7506375 8.9392625,16.9843375 7.9702625,16.9843375 C6.1875875,16.9843375 4.7982125,16.3221875 3.8030875,14.9983625 C2.8079625,13.6745375 2.3106375,11.8267875 2.3106375,9.4555875 C2.3106375,7.1361625 2.7937125,5.3188125 3.7603375,4.0030625 C4.7269625,2.6882625 6.0650375,2.0303875 7.7740875,2.0303875 C9.0860375,2.0303875 10.1476625,2.4165625 10.9589625,3.1889125 C11.7702625,3.9612625 12.1588125,4.9654125 12.1241375,6.2013625 L12.1241375,7.1280875 C12.1065625,7.8667125 12.4357375,8.2353125 13.1107125,8.2353125 C13.7339125,8.2353125 14.0455125,7.8458125 14.0455125,7.0668125 L14.0455125,6.8074625 L13.9262875,5.8208875 C13.8673875,5.3363875 13.8374625,4.8599625 13.8374625,4.3925625 C13.8374625,4.0638625 13.8897125,3.4667875 13.9937375,2.6013375 C14.0279375,1.9097375 14.0455125,1.4941125 14.0455125,1.3549375 C14.0455125,0.6281875 13.7595625,0.2648125 13.1895625,0.2648125 C12.6523375,0.2648125 12.3834875,0.5664375 12.3834875,1.1687375 C12.3834875,1.1331125 12.4010625,1.3107625 12.4357375,1.7002625 C12.4357375,1.7183125 12.4528375,1.7800625 12.4875125,1.8864625 L12.4875125,2.1790625 L12.4875125,2.4716625 C11.2757875,1.0005875 9.7097125,0.2648125 7.7883375,0.2648125 C5.4522875,0.2648125 3.5698625,1.1307375 2.1415375,2.8611625" id="Fill-1" fill="#FFFFFF" mask="url(#mask-2)"></path>
                </g>
                <g id="Group-6" transform="translate(104.500000, 1.168958)" fill="url(#linearGradient-3)">
                    <path d="M11.2271,0.3116 C4.925275,0.48165 -0.076475,4.593725 0.056525,9.49905 C0.102125,11.201925 0.7638,12.777025 1.87055,14.100375 L1.86865,14.101325 C3.77055,16.314825 1.999275,20.3585 1.999275,20.3585 L7.660325,17.604925 C8.923825,17.9398 10.28755,18.105575 11.706375,18.066625 C17.9208,17.899425 22.869825,13.8985 22.8798,9.08485 L22.8798,9.056825 C22.879325,8.997925 22.87885,8.93855 22.87695,8.87965 C22.749175,4.082625 17.752175,0.3059 11.634175,0.3059 C11.499275,0.3059 11.363425,0.3078 11.2271,0.3116" id="Fill-4"></path>
                </g>
                <g id="Group-13" transform="translate(112.100000, 4.493957)">
                    <path d="M0.7967175,4.0893225 L2.0179425,4.0893225 C2.0882425,2.9236725 2.7104925,1.6345225 4.2209925,1.6421225 C5.6778175,1.6501975 6.3261925,2.9873225 6.4012425,4.0821975 L7.6186675,4.0893225 C7.6072675,2.0173725 6.5000425,0.4774225 4.2271675,0.4441725 C1.9680675,0.4118725 0.8081175,2.0510975 0.7967175,4.0893225" id="Fill-7" fill="#FFFFFF"></path>
                    <path d="M7.620425,10.1792025 L0.741,10.1792025 C0.3553,10.1792025 0.039425,9.8633275 0.039425,9.4776275 L0.039425,5.2453775 C0.039425,4.8592025 0.3553,4.5438025 0.741,4.5438025 L7.620425,4.5438025 C8.006125,4.5438025 8.322,4.8592025 8.322,5.2453775 L8.322,9.4776275 C8.322,9.8633275 8.006125,10.1792025 7.620425,10.1792025" id="Fill-9" fill="#FFFFFF"></path>
                    <path d="M4.4357875,7.7065425 L4.9103125,8.9448675 L3.4515875,8.9415425 L3.9427375,7.7036925 C3.6368375,7.5991925 3.4173875,7.2942425 3.4188125,6.9498675 C3.4211875,6.5209425 3.7679375,6.1684925 4.1987625,6.1718175 C4.6257875,6.1727675 4.9701625,6.5147675 4.9673125,6.9422675 C4.9663625,7.2885425 4.7426375,7.6048925 4.4357875,7.7065425" id="Fill-11" fill="#00A4FF"></path>
                </g>
            </g>
        </g>
    </g>
</svg>