<?xml version="1.0" encoding="UTF-8"?>
<svg width="38px" height="33px" viewBox="0 0 38 33" version="1.1" xmlns="http://www.w3.org/2000/svg" xmlns:xlink="http://www.w3.org/1999/xlink">
    <!-- Generator: Sketch 50.2 (55047) - http://www.bohemiancoding.com/sketch -->
    <title>Menu-logo</title>
    <desc>Created with Sketch.</desc>
    <defs>
        <linearGradient x1="-8.46142901%" y1="-3.40346322%" x2="96.6279786%" y2="103.631766%" id="linearGradient-1">
            <stop stop-color="#00C4FF" offset="0%"></stop>
            <stop stop-color="#0091FF" offset="100%"></stop>
        </linearGradient>
    </defs>
    <g id="Page-1" stroke="none" stroke-width="1" fill="none" fill-rule="evenodd">
        <g id="16-Inbox---Selected-Email-Copy-5" transform="translate(-23.000000, -14.000000)">
            <g id="Group-2" transform="translate(23.000000, 14.000000)">
                <g id="Group-6" transform="translate(0.511627, 0.295676)" fill="url(#linearGradient-1)">
                    <path d="M17.6893841,0.298905 C7.76400975,0.56673375 -0.113746497,7.04325188 0.0957285029,14.7691388 C0.167548503,17.4511669 1.20968663,19.9319494 2.95281788,22.0162256 L2.94982538,22.0177219 C5.94531788,25.5039844 3.15555975,31.8727725 3.15555975,31.8727725 L12.0717135,27.5358919 C14.061726,28.06332 16.2095929,28.3244156 18.4442423,28.2630694 C28.2319616,27.9997294 36.026676,21.6982725 36.0423866,14.1167738 L36.0423866,14.0726344 C36.0416385,13.9798669 36.0408904,13.8863513 36.0378979,13.7935838 C35.8366523,6.23826938 27.9663773,0.2899275 18.3305273,0.2899275 C18.1180598,0.2899275 17.904096,0.29292 17.6893841,0.298905" id="Fill-4"></path>
                </g>
                <g id="Group-13" transform="translate(11.136627, 4.114426)">
                    <path d="M1.47281003,7.15631437 L3.60995378,7.15631437 C3.73297878,5.11642687 4.82191628,2.86041437 7.46529128,2.87371437 C10.014735,2.88784562 11.1493913,5.22781437 11.2807288,7.14384562 L13.4112225,7.15631437 C13.3912725,3.53040187 11.4536288,0.835489375 7.47609753,0.777301875 C3.52267253,0.720776875 1.49276003,3.58942062 1.47281003,7.15631437" id="Fill-7" fill="#FFFFFF"></path>
                    <path d="M13.4615132,17.8136044 L1.4225194,17.8136044 C0.747544404,17.8136044 0.194763154,17.2608231 0.194763154,16.5858481 L0.194763154,9.17941062 C0.194763154,8.50360437 0.747544404,7.95165437 1.4225194,7.95165437 L13.4615132,7.95165437 C14.1364882,7.95165437 14.6892694,8.50360437 14.6892694,9.17941062 L14.6892694,16.5858481 C14.6892694,17.2608231 14.1364882,17.8136044 13.4615132,17.8136044" id="Fill-9" fill="#FFFFFF"></path>
                    <path d="M7.8667757,13.4864494 L8.69719445,15.6535181 L6.1444257,15.6476994 L7.0039382,13.4814619 C6.4686132,13.2985869 6.0845757,12.7649244 6.08706945,12.1622681 C6.0912257,11.4116494 6.6980382,10.7948619 7.45198195,10.8006806 C8.1992757,10.8023431 8.80193195,11.4008431 8.79694445,12.1489681 C8.79528195,12.7549494 8.4037632,13.3085619 7.8667757,13.4864494" id="Fill-11" fill="#00A4FF"></path>
                </g>
            </g>
        </g>
    </g>
</svg>