<svg xmlns="http://www.w3.org/2000/svg" xmlns:xlink="http://www.w3.org/1999/xlink" width="44" height="49" viewBox="0 0 44 49">
    <defs>
        <path id="a" d="M0 .398h43.124V40.54H0z"/>
        <path id="c" d="M.357.31h16.48V7H.357z"/>
    </defs>
    <g fill="none" fill-rule="evenodd">
        <g fill="#D5EAFB">
            <path d="M14.308 43.264a8 8 0 0 0 7.403 4.906c3.301 0 6.067-2.052 7.405-4.906-5.353.625-9.545.625-14.808 0"/>
            <path d="M9.044 42.461c9.545 1.606 14.897 1.606 24.442 0l8.475-1.427c-4.192-4.193-6.512-9.278-6.512-15.165V17.84c0-5.352-3.568-9.366-7.048-10.972a16.901 16.901 0 0 0-14.093 0c-3.569 1.606-7.405 5.62-7.405 10.972v8.03c0 5.886-2.05 10.971-6.244 15.164l8.385 1.427z"/>
        </g>
        <path fill="#F0FAFD" d="M9.758 42.461c9.545 1.606 11.24 1.606 20.785 0l8.474-1.427c-4.193-4.193-6.512-9.278-6.512-15.165V17.84c0-5.352-3.568-9.366-7.047-10.972-4.46-2.052-5.976-2.052-10.436 0-3.569 1.606-7.316 5.62-7.405 10.972v8.03c0 5.886-2.05 10.971-6.244 15.164l8.385 1.427z"/>
        <path fill="#FFF" d="M10.115 17.84v8.03c0 5.887-2.32 10.972-6.512 15.164l.358.09c-.09.178-.09.357-.09.535L.66 41.034c4.192-4.192 6.512-9.277 6.512-15.164v-8.03c0-5.351 3.568-9.365 7.047-10.971 2.409-1.07 4.996-1.606 7.583-1.516-1.34.089-2.677.624-4.64 1.516-3.48 1.606-7.047 5.62-7.047 10.972"/>
        <g transform="translate(0 4.063)">
            <mask id="b" fill="#fff">
                <use xlink:href="#a"/>
            </mask>
            <path fill="#92C7F1" d="M2.711 36.347l6.868 1.16c9.456 1.606 14.63 1.606 24.086 0l6.868-1.16c-3.746-4.192-5.709-9.188-5.709-14.54v-8.03c0-4.905-3.3-8.652-6.6-10.168a15.938 15.938 0 0 0-13.38 0c-3.302 1.606-6.78 5.352-6.78 10.169v8.029c0 5.62-1.786 10.526-5.353 14.54m18.911 4.193c-3.747 0-7.493-.446-12.399-1.25L.748 37.865c-.356-.09-.624-.268-.714-.625-.089-.356 0-.624.18-.892 4.014-3.925 6.065-8.831 6.065-14.54v-8.028c0-5.62 4.014-9.992 7.94-11.776a17.88 17.88 0 0 1 14.807 0c3.57 1.606 7.672 5.71 7.582 11.776v8.028c0 5.53 2.141 10.437 6.245 14.54.267.268.357.625.178.892-.089.357-.356.535-.714.625l-8.384 1.427c-4.818.892-8.564 1.249-12.31 1.249" mask="url(#b)"/>
        </g>
        <path fill="#92C7F1" d="M11.631 18.733a.894.894 0 0 1-.892-.892c0-4.192 3.39-6.78 5.263-7.761 3.48-1.605 7.672-1.605 11.15 0 .447.179.625.714.447 1.16-.178.446-.714.624-1.159.446-3.034-1.338-6.69-1.338-9.635 0-1.606.803-4.28 2.855-4.28 6.155a.894.894 0 0 1-.894.892M21.444 1.784c-1.517 0-2.676 1.16-2.676 2.676v.178a17.987 17.987 0 0 1 5.353 0V4.46c0-1.516-1.16-2.676-2.677-2.676M17.876 6.69c-.178 0-.357-.089-.536-.178-.267-.268-.356-.446-.356-.714V4.46A4.417 4.417 0 0 1 21.444 0c2.498 0 4.46 1.962 4.46 4.46v1.25c0 .266-.09.534-.356.713-.178.178-.446.267-.714.178-2.23-.446-4.55-.446-6.78.09-.09-.09-.09 0-.178 0"/>
        <g transform="translate(13 42.063)">
            <mask id="d" fill="#fff">
                <use xlink:href="#c"/>
            </mask>
            <path fill="#92C7F1" d="M2.914 2.272a7.021 7.021 0 0 0 5.709 2.944c2.23 0 4.37-1.16 5.709-2.944-4.014.357-7.404.357-11.418 0M8.623 7C5.143 7 1.933 4.86.416 1.558c-.09-.267-.09-.624.089-.89.179-.27.536-.358.804-.358 5.262.624 9.277.624 14.54 0 .356 0 .624.088.802.357.179.267.268.624.089.891C15.313 4.86 12.102 7 8.623 7" mask="url(#d)"/>
        </g>
    </g>
</svg>
