<svg id="Layer_1" data-name="Layer 1" xmlns="http://www.w3.org/2000/svg" viewBox="0 0 40 40"><defs><style>.cls-1{fill:#acacb2;opacity:0.62;}</style></defs><title>Image Icon</title><path class="cls-1" d="M33.7,0H6.3A6.3,6.3,0,0,0,0,6.3V33.7A6.3,6.3,0,0,0,6.3,40H33.7A6.3,6.3,0,0,0,40,33.7V6.3A6.3,6.3,0,0,0,33.7,0ZM27,6.23a4,4,0,1,1-4,4A4,4,0,0,1,27,6.23Zm5.53,26H7.61a1.12,1.12,0,0,1-1.09-1.77L13.32,17a1.14,1.14,0,0,1,2.09-.19l6.84,8.93a1.67,1.67,0,0,0,2.59.16l1.67-1.69A1.6,1.6,0,0,1,29,24.4l4.33,6.19C34,31.48,33.62,32.21,32.52,32.21Z"/></svg>