<svg xmlns="http://www.w3.org/2000/svg" width="150" height="110" viewBox="0 0 150 110">
    <g fill="none" fill-rule="evenodd">
        <path fill="#CEF4FE" d="M78.006 74.86c-3.504 1.912-5.679 5.576-5.679 9.566v3.912c0 5.732 18.171 7.247 27.78 7.247 9.607 0 27.778-1.515 27.778-7.247v-3.676c0-4.153-2.308-7.887-6.022-9.744l-11.538-5.77c-1.088-.543-1.765-1.638-1.765-2.855V62.21c.277-.338.568-.724.87-1.15 1.495-2.113 2.695-4.466 3.567-7.003 1.704-.782 2.81-2.467 2.81-4.37v-4.83c0-1.163-.435-2.29-1.208-3.17v-6.425c.068-.664.334-4.618-2.526-7.881-2.48-2.83-6.507-4.264-11.967-4.264-5.46 0-9.486 1.435-11.967 4.264L78.006 74.86z" transform="translate(12 4)"/>
        <path stroke="#0294FE" stroke-linecap="round" stroke-linejoin="round" stroke-width="1.5" d="M78.006 74.86c-3.504 1.912-5.679 5.576-5.679 9.566v3.912c0 5.732 18.171 7.247 27.78 7.247 9.607 0 27.778-1.515 27.778-7.247v-3.676c0-4.153-2.308-7.887-6.022-9.744l-11.538-5.77c-1.088-.543-1.765-1.638-1.765-2.855V62.21c.277-.338.568-.724.87-1.15 1.495-2.113 2.695-4.466 3.567-7.003 1.704-.782 2.81-2.467 2.81-4.37v-4.83c0-1.163-.435-2.29-1.208-3.17v-6.425c.068-.664.334-4.618-2.526-7.881-2.48-2.83-6.507-4.264-11.967-4.264-5.46 0-9.486 1.435-11.967 4.264L78.006 74.86z" transform="translate(12 4)"/>
        <path fill="#FFF" d="M125.999 26.392c0-1.256-.495-2.396-1.3-3.237.56-1.022.743-2.25.418-3.464s-1.1-2.187-2.093-2.79c.275-1.133.134-2.367-.494-3.455s-1.626-1.827-2.744-2.155c-.027-1.164-.483-2.32-1.371-3.208-.888-.887-2.044-1.343-3.208-1.37-.327-1.118-1.067-2.116-2.154-2.745-1.088-.628-2.323-.768-3.454-.493-.605-.995-1.578-1.768-2.791-2.093-.952-.256-1.912-.196-2.776.11-.237.085-.467.186-.688.306C102.502.995 101.362.5 100.106.5s-2.395.496-3.237 1.3c-1.022-.559-2.251-.742-3.464-.417s-2.186 1.098-2.791 2.093c-1.131-.275-2.366-.135-3.454.493-1.088.63-1.828 1.627-2.154 2.745-1.164.027-2.32.483-3.208 1.37-.89.89-1.345 2.044-1.371 3.208-1.118.328-2.116 1.067-2.744 2.155-.628 1.088-.77 2.323-.494 3.454-.995.604-1.768 1.577-2.093 2.791-.325 1.214-.142 2.442.417 3.464-.804.841-1.3 1.981-1.3 3.237s.496 2.396 1.3 3.238c-.56 1.022-.742 2.25-.417 3.464.325 1.213 1.098 2.186 2.093 2.791-.275 1.131-.134 2.365.494 3.453.628 1.088 1.626 1.828 2.744 2.155.026 1.164.482 2.32 1.37 3.208.889.888 2.045 1.344 3.209 1.371.327 1.117 1.066 2.116 2.154 2.744.26.151.53.272.806.37.965-1.284 1.247-3.029.589-4.619-.377-.909-1.006-1.637-1.773-2.135.517-.754.82-1.667.82-2.65 0-.985-.303-1.897-.82-2.652.767-.498 1.396-1.224 1.773-2.134.376-.909.445-1.868.255-2.762.9-.167 1.759-.598 2.455-1.294.696-.695 1.127-1.556 1.294-2.455.894.19 1.853.121 2.763-.255.909-.377 1.636-1.007 2.134-1.774.754.518 1.667.822 2.65.822.984 0 1.897-.304 2.65-.822.499.767 1.226 1.397 2.135 1.774.909.376 1.868.445 2.763.255.167.9.598 1.76 1.294 2.455.696.696 1.555 1.127 2.455 1.294-.19.894-.121 1.853.255 2.762.377.91 1.006 1.636 1.773 2.134-.517.755-.821 1.667-.821 2.652 0 .983.304 1.896.82 2.65-.766.498-1.395 1.226-1.772 2.135-.391.944-.448 1.943-.23 2.87.15.63.428 1.227.819 1.747.275-.096.545-.218.806-.368 1.087-.628 1.827-1.627 2.154-2.744 1.164-.027 2.32-.483 3.208-1.37.888-.889 1.344-2.045 1.37-3.209 1.118-.328 2.117-1.067 2.745-2.155.628-1.088.769-2.322.494-3.454.994-.604 1.768-1.577 2.093-2.79.325-1.214.142-2.442-.417-3.464.804-.842 1.299-1.982 1.299-3.238" transform="translate(12 4)"/>
        <path stroke="#0294FE" stroke-linecap="round" stroke-linejoin="round" stroke-width="1.5" d="M125.999 26.392c0-1.256-.495-2.396-1.3-3.237.56-1.022.743-2.25.418-3.464s-1.1-2.187-2.093-2.79c.275-1.133.134-2.367-.494-3.455s-1.626-1.827-2.744-2.155c-.027-1.164-.483-2.32-1.371-3.208-.888-.887-2.044-1.343-3.208-1.37-.327-1.118-1.067-2.116-2.154-2.745-1.088-.628-2.323-.768-3.454-.493-.605-.995-1.578-1.768-2.791-2.093-.952-.256-1.912-.196-2.776.11-.237.085-.467.186-.688.306C102.502.995 101.362.5 100.106.5s-2.395.496-3.237 1.3c-1.022-.559-2.251-.742-3.464-.417s-2.186 1.098-2.791 2.093c-1.131-.275-2.366-.135-3.454.493-1.088.63-1.828 1.627-2.154 2.745-1.164.027-2.32.483-3.208 1.37-.89.89-1.345 2.044-1.371 3.208-1.118.328-2.116 1.067-2.744 2.155-.628 1.088-.77 2.323-.494 3.454-.995.604-1.768 1.577-2.093 2.791-.325 1.214-.142 2.442.417 3.464-.804.841-1.3 1.981-1.3 3.237s.496 2.396 1.3 3.238c-.56 1.022-.742 2.25-.417 3.464.325 1.213 1.098 2.186 2.093 2.791-.275 1.131-.134 2.365.494 3.453.628 1.088 1.626 1.828 2.744 2.155.026 1.164.482 2.32 1.37 3.208.889.888 2.045 1.344 3.209 1.371.327 1.117 1.066 2.116 2.154 2.744.26.151.53.272.806.37.965-1.284 1.247-3.029.589-4.619-.377-.909-1.006-1.637-1.773-2.135.517-.754.82-1.667.82-2.65 0-.985-.303-1.897-.82-2.652.767-.498 1.396-1.224 1.773-2.134.376-.909.445-1.868.255-2.762.9-.167 1.759-.598 2.455-1.294.696-.695 1.127-1.556 1.294-2.455.894.19 1.853.121 2.763-.255.909-.377 1.636-1.007 2.134-1.774.754.518 1.667.822 2.65.822.984 0 1.897-.304 2.65-.822.499.767 1.226 1.397 2.135 1.774.909.376 1.868.445 2.763.255.167.9.598 1.76 1.294 2.455.696.696 1.555 1.127 2.455 1.294-.19.894-.121 1.853.255 2.762.377.91 1.006 1.636 1.773 2.134-.517.755-.821 1.667-.821 2.652 0 .983.304 1.896.82 2.65-.766.498-1.395 1.226-1.772 2.135-.391.944-.448 1.943-.23 2.87h0c.15.63.428 1.227.819 1.747.275-.096.545-.218.806-.368 1.087-.628 1.827-1.627 2.154-2.744 1.164-.027 2.32-.483 3.208-1.37.888-.889 1.344-2.045 1.37-3.209 1.118-.328 2.117-1.067 2.745-2.155.628-1.088.769-2.322.494-3.454.994-.604 1.768-1.577 2.093-2.79.325-1.214.142-2.442-.417-3.464.804-.842 1.299-1.982 1.299-3.238z" transform="translate(12 4)"/>
        <path fill="#CEF4FE" d="M55.126 75.644c-3.681 2.008-5.966 5.857-5.966 10.05v4.108c0 6.023 19.09 7.613 29.183 7.613 10.094 0 29.183-1.59 29.183-7.613v-3.86c0-4.362-2.424-8.286-6.326-10.237l-12.121-6.06c-1.143-.572-1.854-1.723-1.854-3.001v-4.29c.29-.356.596-.76.912-1.207 1.572-2.221 2.832-4.692 3.749-7.357 1.79-.822 2.952-2.591 2.952-4.59v-5.076c0-1.221-.457-2.405-1.27-3.331v-6.749c.072-.697.35-4.851-2.653-8.278-2.606-2.974-6.835-4.48-12.572-4.48-5.736 0-9.965 1.506-12.571 4.478-3.005 3.428-2.726 7.583-2.655 8.28l-7.991 41.6z" transform="translate(12 4)"/>
        <path stroke="#0294FE" stroke-linecap="round" stroke-linejoin="round" stroke-width="1.5" d="M55.126 75.644c-3.681 2.008-5.966 5.857-5.966 10.05v4.108c0 6.023 19.09 7.613 29.183 7.613 10.094 0 29.183-1.59 29.183-7.613v-3.86c0-4.362-2.424-8.286-6.326-10.237l-12.121-6.06c-1.143-.572-1.854-1.723-1.854-3.001v-4.29c.29-.356.596-.76.912-1.207 1.572-2.221 2.832-4.692 3.749-7.357 1.79-.822 2.952-2.591 2.952-4.59v-5.076c0-1.221-.457-2.405-1.27-3.331v-6.749c.072-.697.35-4.851-2.653-8.278-2.606-2.974-6.835-4.48-12.572-4.48-5.736 0-9.965 1.506-12.571 4.478-3.005 3.428-2.726 7.583-2.655 8.28l-7.991 41.6z" transform="translate(12 4)"/>
        <path fill="#FFF" d="M78.343 59.516c-1.332 0-3.058-.45-4.453-1.169-.076-.039-.052-.152.033-.162 1.207-.139 2.468-.536 3.442-1.237.367-.263.696-.574.978-.926.282.352.61.664.978.926.974.702 2.235 1.1 3.44 1.237.087.01.11.123.034.163-1.395.718-3.12 1.168-4.452 1.168m9.705-3.23c.888-1.114 1.175-2.417 1.175-3.199 0-.46-.313-.86-.76-.967-.445-.108-.905.106-1.11.515-.123.217-.29.405-.491.553-.226.157-.561.3-1.15.006-.205-.174-.395-.365-.567-.572-.85-.935-2.272-2.502-4.824-2.502-.867 0-1.513.282-1.978.696-.465-.414-1.111-.696-1.978-.696-2.552 0-3.974 1.567-4.824 2.502-.171.206-.36.396-.564.57-.592.297-.927.153-1.153-.004-.198-.146-.364-.33-.487-.543-.244-.488-.838-.687-1.327-.442-.335.167-.547.51-.547.884 0 .782.287 2.085 1.175 3.2-.87 1.388-1.832 3.688-1.145 6.436.132.53.669.852 1.199.72.025-.006.049-.014.073-.022l.95-.316c-.41 1.676-.088 3.446.882 4.872.303.454.917.577 1.37.274.055-.036.106-.078.152-.124l1.012-1.01c.072.577.232 1.141.476 1.67.75 1.62 2.239 2.808 4.423 3.537.203.067.423.067.626 0 2.184-.729 3.672-1.918 4.423-3.537.244-.529.404-1.093.476-1.67l1.012 1.01c.386.387 1.013.387 1.399 0 .046-.046.087-.096.123-.15.97-1.426 1.29-3.196.882-4.872l.95.316c.518.173 1.078-.107 1.25-.625.009-.024.016-.049.022-.073.687-2.748-.276-5.048-1.145-6.437" transform="translate(12 4)"/>
        <path stroke="#0294FE" stroke-linecap="round" stroke-width="1.5" d="M78.343 59.516c-1.332 0-3.058-.45-4.453-1.169-.076-.039-.052-.152.033-.162 1.207-.139 2.468-.536 3.442-1.237.367-.263.696-.574.978-.926.282.352.61.664.978.926.974.702 2.235 1.1 3.44 1.237.087.01.11.123.034.163-1.395.718-3.12 1.168-4.452 1.168zm9.705-3.23c.888-1.114 1.175-2.417 1.175-3.199 0-.46-.313-.86-.76-.967-.445-.108-.905.106-1.11.515-.123.217-.29.405-.491.553-.226.157-.561.3-1.15.006-.205-.174-.395-.365-.567-.572-.85-.935-2.272-2.502-4.824-2.502-.867 0-1.513.282-1.978.696-.465-.414-1.111-.696-1.978-.696-2.552 0-3.974 1.567-4.824 2.502-.171.206-.36.396-.564.57-.592.297-.927.153-1.153-.004-.198-.146-.364-.33-.487-.543-.244-.488-.838-.687-1.327-.442-.335.167-.547.51-.547.884 0 .782.287 2.085 1.175 3.2-.87 1.388-1.832 3.688-1.145 6.436.132.53.669.852 1.199.72.025-.006.049-.014.073-.022l.95-.316c-.41 1.676-.088 3.446.882 4.872.303.454.917.577 1.37.274.055-.036.106-.078.152-.124l1.012-1.01c.072.577.232 1.141.476 1.67.75 1.62 2.239 2.808 4.423 3.537.203.067.423.067.626 0 2.184-.729 3.672-1.918 4.423-3.537.244-.529.404-1.093.476-1.67l1.012 1.01c.386.387 1.013.387 1.399 0 .046-.046.087-.096.123-.15.97-1.426 1.29-3.196.882-4.872l.95.316c.518.173 1.078-.107 1.25-.625.009-.024.016-.049.022-.073.687-2.748-.276-5.048-1.145-6.437z" transform="translate(12 4)"/>
        <path fill="#CEF4FE" d="M31.143 76.664c-3.878 2.115-6.285 6.17-6.285 10.588v4.328c0 6.344 20.111 8.02 30.744 8.02 10.634 0 30.745-1.676 30.745-8.02v-4.067c0-4.596-2.555-8.73-6.665-10.786l-12.77-6.383c-1.204-.603-1.953-1.815-1.953-3.161v-4.52c.306-.374.63-.801.961-1.271 1.657-2.34 2.984-4.944 3.95-7.752 1.885-.865 3.11-2.73 3.11-4.835v-5.347c0-1.287-.482-2.534-1.337-3.51v-7.11c.075-.734.37-5.111-2.797-8.721-2.745-3.132-7.2-4.72-13.244-4.72-6.043 0-10.498 1.588-13.244 4.719-3.165 3.61-2.87 7.988-2.796 8.723l-8.419 43.825z" transform="translate(12 4)"/>
        <path stroke="#0294FE" stroke-linecap="round" stroke-linejoin="round" stroke-width="1.5" d="M31.143 76.664c-3.878 2.115-6.285 6.17-6.285 10.588v4.328c0 6.344 20.111 8.02 30.744 8.02 10.634 0 30.745-1.676 30.745-8.02v-4.067c0-4.596-2.555-8.73-6.665-10.786l-12.77-6.383c-1.204-.603-1.953-1.815-1.953-3.161v-4.52c.306-.374.63-.801.961-1.271 1.657-2.34 2.984-4.944 3.95-7.752 1.885-.865 3.11-2.73 3.11-4.835v-5.347c0-1.287-.482-2.534-1.337-3.51v-7.11c.075-.734.37-5.111-2.797-8.721-2.745-3.132-7.2-4.72-13.244-4.72-6.043 0-10.498 1.588-13.244 4.719-3.165 3.61-2.87 7.988-2.796 8.723l-8.419 43.825z" transform="translate(12 4)"/>
        <path fill="#FFF" d="M55.16 52.846c-1.027 0-1.957-.528-2.505-1.34-.354.17-.749.255-1.152.24-1.252-.044-2.295-1.058-2.375-2.307-.043-.69.192-1.347.664-1.85.321-.34.732-.582 1.18-.699l.812-2.446c.483-1.458 1.84-2.437 3.375-2.437s2.892.98 3.375 2.436l.812 2.447c.448.116.86.357 1.18.7.472.502.707 1.158.664 1.85-.08 1.248-1.123 2.261-2.375 2.306-.403.015-.798-.07-1.152-.24-.548.812-1.478 1.34-2.504 1.34" transform="translate(12 4)"/>
        <path stroke="#0294FE" stroke-linecap="round" stroke-linejoin="round" stroke-width="1.5" d="M55.16 52.846c-1.027 0-1.957-.528-2.505-1.34-.354.17-.749.255-1.152.24-1.252-.044-2.295-1.058-2.375-2.307-.043-.69.192-1.347.664-1.85.321-.34.732-.582 1.18-.699l.812-2.446c.483-1.458 1.84-2.437 3.375-2.437s2.892.98 3.375 2.436l.812 2.447c.448.116.86.357 1.18.7.472.502.707 1.158.664 1.85-.08 1.248-1.123 2.261-2.375 2.306-.403.015-.798-.07-1.152-.24-.548.812-1.478 1.34-2.504 1.34z" transform="translate(12 4)"/>
        <path fill="#FFF" d="M53.327 40.013c0 3.364-2.727 6.091-6.091 6.091-3.364 0-6.091-2.727-6.091-6.09 0-3.365 2.727-6.092 6.09-6.092 3.365 0 6.092 2.727 6.092 6.091" transform="translate(12 4)"/>
        <path stroke="#0294FE" stroke-linecap="round" stroke-linejoin="round" stroke-width="1.5" d="M53.327 40.013c0 3.364-2.727 6.091-6.091 6.091-3.364 0-6.091-2.727-6.091-6.09 0-3.365 2.727-6.092 6.09-6.092 3.365 0 6.092 2.727 6.092 6.091z" transform="translate(12 4)"/>
        <path fill="#FFF" d="M56.695 76.932l-13.03-6.516c-1.23-.615-1.994-1.85-1.994-3.225v-4.613c.313-.38.641-.816.981-1.296 1.69-2.387 3.045-5.044 4.03-7.91 1.924-.883 3.174-2.786 3.174-4.934v-5.456c0-1.314-.49-2.587-1.364-3.58v-7.256c.076-.75.376-5.217-2.854-8.9-2.802-3.197-7.348-4.817-13.515-4.817-6.167 0-10.713 1.62-13.515 4.815-3.23 3.684-2.93 8.151-2.854 8.902v7.255c-.873.994-1.364 2.267-1.364 3.581v5.456c0 1.66.755 3.208 2.042 4.241 1.25 4.947 3.865 8.675 4.78 9.871v4.514c0 1.32-.722 2.532-1.88 3.165L7.164 76.866C3.206 79.026.75 83.163.75 87.67v4.417c0 6.474 20.522 8.185 31.373 8.185 10.851 0 31.373-1.71 31.373-8.185v-4.15c0-4.69-2.607-8.907-6.8-11.005" transform="translate(12 4)"/>
        <path stroke="#0294FE" stroke-linecap="round" stroke-linejoin="round" stroke-width="1.5" d="M1.76 82.783c-.073.173-.144.347-.211.522" transform="translate(12 4)"/>
        <path fill="#CEF4FE" d="M56.695 76.932l-13.03-6.516c-1.23-.615-1.994-1.85-1.994-3.225v-4.613c.313-.38.641-.816.981-1.296 1.69-2.387 3.045-5.044 4.03-7.91 1.924-.883 3.174-2.786 3.174-4.934v-5.456c0-1.314-.49-2.587-1.364-3.58v-7.256c.076-.75.376-5.217-2.854-8.9-2.802-3.197-7.348-4.817-13.515-4.817-6.167 0-7.066 1.62-9.868 4.815-3.23 3.684-2.93 8.151-2.853 8.902v7.255c-.874.994-1.365 2.267-1.365 3.581v5.456c0 1.66.755 3.208 2.042 4.241 1.25 4.947 3.865 8.675 4.78 9.871v4.514c0 1.32-.72 2.532-1.88 3.165l-12.168 6.637c-3.957 2.16-6.414 6.297-6.414 10.804v4.417c0 6.474 16.875 8.185 27.726 8.185 10.851 0 31.373-1.71 31.373-8.185v-4.15c0-4.69-2.607-8.907-6.8-11.005" transform="translate(12 4)"/>
        <path stroke="#0294FE" stroke-linecap="round" stroke-linejoin="round" stroke-width="1.5" d="M.802 86.541c-.034.374-.052.75-.052 1.13v4.416c0 6.474 20.523 8.184 31.374 8.184 10.85 0 31.373-1.71 31.373-8.183v-4.15c0-4.69-2.607-8.909-6.801-11.005l-13.031-6.517c-1.23-.614-1.993-1.85-1.993-3.225v-4.613c.312-.382.64-.816.98-1.297 1.69-2.386 3.045-5.044 4.03-7.91 1.925-.883 3.174-2.785 3.174-4.934v-5.456c0-1.313-.491-2.586-1.364-3.58v-7.256c.077-.75.377-5.216-2.853-8.9-2.802-3.196-7.348-4.816-13.515-4.816-6.167 0-10.714 1.62-13.515 4.815-3.23 3.684-2.93 8.151-2.854 8.901V39.4c-.873.995-1.364 2.269-1.364 3.581v5.456c0 1.662.754 3.209 2.042 4.242 1.249 4.947 3.864 8.675 4.778 9.871v4.514c0 1.32-.72 2.533-1.878 3.166l-12.17 6.635c-1.496.819-2.78 1.92-3.795 3.217" transform="translate(12 4)"/>
        <path fill="#FFF" d="M69.144 40.013c0 3.364-2.727 6.091-6.09 6.091-3.365 0-6.092-2.727-6.092-6.09 0-3.365 2.727-6.092 6.091-6.092 3.364 0 6.091 2.727 6.091 6.091" transform="translate(12 4)"/>
        <path stroke="#0294FE" stroke-linecap="round" stroke-linejoin="round" stroke-width="1.5" d="M69.144 40.013c0 3.364-2.727 6.091-6.09 6.091-3.365 0-6.092-2.727-6.092-6.09 0-3.365 2.727-6.092 6.091-6.092 3.364 0 6.091 2.727 6.091 6.091z" transform="translate(12 4)"/>
    </g>
</svg>
