<svg xmlns="http://www.w3.org/2000/svg" xmlns:xlink="http://www.w3.org/1999/xlink" width="150" height="110" viewBox="0 0 150 110">
    <defs>
        <path id="prefix__a" d="M0 98L133.797 98 133.797 0.086 0 0.086z"/>
    </defs>
    <g fill="none" fill-rule="evenodd">
        <g>
            <path fill="#FFF" d="M25.993 41.069L31.157 28.16 46.107 18.192 46.107 0.262 11.015 1.169 5.458 19.003 0.981 29.924" transform="translate(8 6) translate(3 43.914)"/>
            <path stroke="#0294FE" stroke-linecap="round" stroke-linejoin="round" stroke-width="1.5" d="M25.993 41.069L31.157 28.16 46.107 18.192 46.107 0.262 11.015 1.169 5.458 19.003 0.981 29.924" transform="translate(8 6) translate(3 43.914)"/>
        </g>
        <g transform="translate(8 6) translate(0 .914)">
            <path fill="#FFF" d="M55.833 61.953H22.066c-3.046 0-5.522-2.478-5.522-5.522V5.995c0-2.846 2.314-5.159 5.16-5.159H55.47c3.046 0 5.522 2.476 5.522 5.521v50.436c0 2.846-2.314 5.16-5.159 5.16"/>
            <path fill="#CEF4FE" d="M56.16 61.953H24.527c-2.854 0-5.174-2.478-5.174-5.522V5.995c0-2.846 2.168-5.159 4.833-5.159H55.82c2.853 0 5.173 2.476 5.173 5.521v50.436c0 2.846-2.167 5.16-4.832 5.16"/>
            <path stroke="#0294FE" stroke-linecap="round" stroke-linejoin="round" stroke-width="1.5" d="M55.833 61.953H22.066c-3.046 0-5.522-2.478-5.522-5.522V5.995c0-2.846 2.314-5.159 5.16-5.159H55.47c3.046 0 5.522 2.476 5.522 5.521v50.436c0 2.846-2.314 5.16-5.159 5.16z"/>
            <g>
                <path fill="#FFF" d="M3.981 51.925l4.477-10.923L.92 17.749c-.522-2.012.182-4.144 1.801-5.45L15.837 1.828c2.52-1.922 6.113-1.477 8.09.999 2.067 2.59 1.56 6.38-1.114 8.338l-7.777 6.37c-1.043.763-1.246 2.239-.448 3.256l1.956 2.49v12.15c0 3.05 2.472 5.522 5.522 5.522h25.901" transform="translate(0 21)"/>
                <path stroke="#0294FE" stroke-linecap="round" stroke-linejoin="round" stroke-width="1.5" d="M3.981 51.925l4.477-10.923L.92 17.749c-.522-2.012.182-4.144 1.801-5.45L15.837 1.828c2.52-1.922 6.113-1.477 8.09.999 2.067 2.59 1.56 6.38-1.114 8.338l-7.777 6.37c-1.043.763-1.246 2.239-.448 3.256l1.956 2.49v12.15c0 3.05 2.472 5.522 5.522 5.522h25.901" transform="translate(0 21)"/>
            </g>
            <g>
                <path fill="#FFF" d="M34.656 51.323l-5.404-13.415 6.237-18.143c1.745-5.074-.73-10.634-5.666-12.736L14.453.487.986 40.954l7.64 19.296" transform="translate(97 37)"/>
                <path stroke="#0294FE" stroke-linecap="round" stroke-linejoin="round" stroke-width="1.5" d="M34.656 51.323l-5.404-13.415 6.237-18.143c1.745-5.074-.73-10.634-5.666-12.736L14.453.487.986 40.954l7.64 19.296" transform="translate(97 37)"/>
            </g>
            <path fill="#FFF" d="M97.815 71.537L69.12 53.738c-2.588-1.605-3.387-5.015-1.782-7.603l26.585-42.86c1.5-2.419 4.686-3.166 7.104-1.666l28.695 17.8c2.59 1.605 3.387 5.015 1.782 7.603l-26.584 42.86c-1.5 2.418-4.686 3.164-7.104 1.665"/>
            <path fill="#CEF4FE" d="M98.092 71.71L71.21 55.034c-2.424-1.504-3.09-4.832-1.485-7.419L96.31 4.756c1.5-2.418 4.561-3.242 6.826-1.838l26.882 16.674c2.424 1.504 3.09 4.832 1.485 7.42l-26.584 42.86c-1.5 2.418-4.562 3.241-6.827 1.837"/>
            <path stroke="#0294FE" stroke-linecap="round" stroke-linejoin="round" stroke-width="1.5" d="M97.815 71.537L69.12 53.738c-2.588-1.605-3.387-5.015-1.782-7.603l26.585-42.86c1.5-2.419 4.686-3.166 7.104-1.666l28.695 17.8c2.59 1.605 3.387 5.015 1.782 7.603l-26.584 42.86c-1.5 2.418-4.686 3.164-7.104 1.665z"/>
            <path fill="#FFF" d="M104.574 71.21l-32.542-9.015c-2.934-.813-4.66-3.86-3.847-6.796L81.65 6.794c.76-2.742 3.608-4.355 6.349-3.595l32.542 9.015c2.935.813 4.66 3.861 3.847 6.796l-13.465 48.605c-.76 2.742-3.607 4.355-6.35 3.595"/>
            <path fill="#CEF4FE" d="M104.888 71.297l-30.485-8.445c-2.749-.762-4.324-3.768-3.51-6.702L84.356 7.544c.76-2.742 3.467-4.393 6.035-3.682l30.485 8.446c2.75.761 4.324 3.767 3.511 6.702l-13.465 48.605c-.759 2.743-3.467 4.394-6.035 3.682"/>
            <path stroke="#0294FE" stroke-linecap="round" stroke-linejoin="round" stroke-width="1.5" d="M104.574 71.21l-32.542-9.015c-2.934-.813-4.66-3.86-3.847-6.796L81.65 6.794c.76-2.742 3.608-4.355 6.349-3.595l32.542 9.015c2.935.813 4.66 3.861 3.847 6.796l-13.465 48.605c-.76 2.742-3.607 4.355-6.35 3.595z"/>
            <path fill="#0294FE" d="M79.098 56.164c-.116-.212-.14-.44-.071-.687.068-.247.206-.43.414-.55.208-.12.435-.148.682-.079.246.068.428.208.544.418.116.211.139.44.07.686-.067.246-.205.43-.413.552-.208.12-.435.146-.682.078-.247-.068-.428-.208-.544-.418M83.987 52.967c-.304.182-.542.497-.717.947l2.613.724c.115-.475.098-.863-.05-1.166-.149-.303-.416-.508-.8-.614-.394-.11-.743-.074-1.046.109m2.428 3.91c.053.123.056.269.01.438-.067.239-.265.4-.595.483-.303.074-.633.109-.989.106-.355-.003-.684-.046-.984-.13-.91-.252-1.559-.713-1.945-1.384-.387-.672-.454-1.463-.202-2.372.16-.578.417-1.06.773-1.443.355-.382.777-.64 1.265-.77.49-.131 1-.122 1.531.025.51.142.921.376 1.237.704.316.329.521.726.616 1.193.095.466.066.975-.088 1.53-.092.332-.285.458-.577.377l-3.412-.945c-.1.544-.059.977.126 1.299.185.32.521.548 1.006.683.247.068.473.098.68.088.205-.01.443-.035.712-.077.265-.06.451-.073.56-.043.131.036.223.116.276.238M90.977 58.03c.338-.248.588-.664.751-1.25.162-.586.161-1.07-.003-1.452-.164-.38-.474-.635-.928-.76-.463-.13-.864-.074-1.204.163-.34.237-.59.646-.75 1.224-.162.586-.161 1.076.004 1.47.164.395.474.655.929.781.463.13.863.07 1.201-.177m3.409-6.08c.104.163.129.343.073.544l-1.915 6.915c-.058.21-.17.356-.335.444-.165.086-.356.1-.571.04-.216-.059-.373-.17-.47-.329-.097-.16-.116-.344-.058-.553l.08-.289c-.257.27-.571.45-.94.537-.369.09-.758.077-1.166-.037-.486-.134-.886-.378-1.199-.73-.313-.352-.513-.783-.6-1.293-.088-.51-.05-1.058.113-1.644.162-.586.41-1.069.744-1.45.334-.38.722-.637 1.166-.772.444-.133.913-.133 1.406.004.409.113.748.298 1.017.555.269.257.445.564.53.92l.759-2.742c.054-.192.16-.33.321-.415.16-.085.348-.097.564-.037.216.06.376.171.481.332M99.943 56.116c.096.16.116.344.06.552l-1.245 4.487c-.055.2-.167.344-.336.43-.169.086-.362.1-.578.04-.208-.058-.358-.163-.449-.313-.092-.149-.109-.324-.054-.524l.081-.29c-.264.26-.568.43-.915.514-.346.081-.709.07-1.086-.035-1.388-.384-1.866-1.355-1.435-2.913l.79-2.844c.056-.208.167-.356.333-.443.165-.087.355-.1.572-.04.223.061.383.172.48.332.097.16.117.343.06.551l-.792 2.856c-.11.401-.113.721-.004.96.11.236.336.403.683.5.401.111.76.067 1.076-.132.317-.199.536-.518.657-.957l.715-2.58c.058-.208.17-.355.335-.442.165-.087.355-.102.571-.04.224.06.384.172.481.331"/>
            <g>
                <path fill="#FFF" d="M18.053 16.196L12.649 3.492C11.459.763 8.398-.62 5.564.287 2.33 1.323.676 4.903 1.98 8.037l5.488 13.376C1.612 23.584-1.314 30.146.986 35.954l7.64 19.296" transform="translate(97 42)"/>
                <path stroke="#0294FE" stroke-linecap="round" stroke-linejoin="round" stroke-width="1.5" d="M18.053 16.196L12.649 3.492C11.459.763 8.398-.62 5.564.287 2.33 1.323.676 4.903 1.98 8.037l5.488 13.376C1.612 23.584-1.314 30.146.986 35.954l7.64 19.296" transform="translate(97 42)"/>
            </g>
            <path fill="#0294FE" d="M27.314 54.275c-.168-.173-.252-.387-.252-.643 0-.255.084-.47.252-.641.169-.172.38-.258.637-.258.255 0 .468.086.636.258.168.172.252.386.252.64 0 .257-.084.47-.252.644-.168.172-.38.258-.636.258s-.468-.086-.637-.258M30.645 54.184c-.444-.247-.786-.6-1.026-1.056-.24-.456-.36-.988-.36-1.595 0-.61.126-1.147.378-1.615.252-.467.606-.83 1.062-1.086.456-.255.98-.383 1.572-.383.312 0 .626.044.942.13.316.089.594.209.834.362.256.168.384.38.384.636 0 .175-.042.317-.126.425-.084.109-.194.162-.33.162-.088 0-.18-.02-.276-.06-.096-.04-.192-.088-.288-.144-.176-.103-.344-.185-.504-.246-.16-.06-.344-.09-.552-.09-.496 0-.878.163-1.146.487-.268.323-.402.79-.402 1.397 0 .6.134 1.063.402 1.386.268.324.65.486 1.146.486.2 0 .378-.03.534-.09.156-.06.33-.141.522-.246.12-.072.224-.126.312-.162.088-.036.176-.053.264-.053.128 0 .236.055.324.168.088.112.132.25.132.419 0 .136-.03.254-.09.354-.06.1-.158.19-.294.27-.248.16-.536.287-.864.378-.328.092-.664.138-1.008.138-.584 0-1.098-.124-1.542-.372M38.739 52.912c.256-.32.384-.792.384-1.416 0-.616-.128-1.086-.384-1.41-.256-.324-.624-.487-1.104-.487-.48 0-.85.163-1.11.487-.26.324-.39.794-.39 1.41 0 .624.128 1.096.384 1.416.256.32.624.48 1.104.48.488 0 .86-.16 1.116-.48m-2.682 1.271c-.452-.247-.802-.603-1.05-1.067-.248-.464-.372-1.004-.372-1.62 0-.616.124-1.154.372-1.614.248-.46.598-.814 1.05-1.062.452-.248.978-.372 1.578-.372.6 0 1.126.124 1.578.372.452.248.8.602 1.044 1.062.244.46.366.998.366 1.614 0 .616-.122 1.156-.366 1.62-.244.464-.592.82-1.044 1.067-.452.25-.978.373-1.578.373-.6 0-1.126-.124-1.578-.373M49.82 49.018c.34.38.51.994.51 1.843v2.95c0 .233-.07.41-.21.535-.14.124-.322.187-.546.187-.216 0-.394-.063-.534-.187s-.21-.302-.21-.534V50.86c0-.441-.078-.754-.234-.943-.156-.187-.394-.282-.714-.282-.392 0-.704.135-.936.403-.232.267-.348.633-.348 1.097v2.676c0 .232-.07.41-.21.534-.14.124-.318.187-.534.187-.216 0-.396-.063-.54-.187-.144-.124-.216-.302-.216-.534V50.86c0-.441-.078-.754-.234-.943-.156-.187-.394-.282-.714-.282-.392 0-.702.135-.93.403-.228.267-.342.633-.342 1.097v2.676c0 .232-.072.41-.216.534-.144.124-.324.187-.54.187-.216 0-.394-.063-.534-.187s-.21-.302-.21-.534v-4.644c0-.223.072-.396.216-.515.144-.12.324-.181.54-.181.208 0 .378.059.51.174.132.116.198.282.198.498v.288c.184-.32.43-.563.738-.731.308-.168.662-.252 1.062-.252.88 0 1.468.368 1.764 1.103.176-.336.436-.603.78-.804.344-.2.732-.3 1.164-.3.64 0 1.13.19 1.47.57"/>
            <mask id="prefix__b" fill="#fff">
                <use xlink:href="#prefix__a"/>
            </mask>
            <path fill="#FFF" d="M29.57 29.221L47.967 29.221 47.967 10.824 29.57 10.824z" mask="url(#prefix__b)"/>
            <path stroke="#0294FE" stroke-linejoin="round" d="M29.57 29.221L47.967 29.221 47.967 10.824 29.57 10.824z" mask="url(#prefix__b)"/>
            <path fill="#FFF" d="M31.41 18.759c-1.017 0-1.84-.823-1.84-1.84v-6.096h3.68v6.096c0 1.017-.825 1.84-1.84 1.84" mask="url(#prefix__b)"/>
            <path stroke="#0294FE" stroke-linejoin="round" d="M31.41 18.759h0c-1.017 0-1.84-.823-1.84-1.84v-6.096h3.68v6.096c0 1.017-.825 1.84-1.84 1.84z" mask="url(#prefix__b)"/>
            <path fill="#FFF" d="M35.089 18.759c-1.016 0-1.84-.823-1.84-1.84v-6.096h3.68v6.096c0 1.017-.824 1.84-1.84 1.84" mask="url(#prefix__b)"/>
            <path stroke="#0294FE" stroke-linejoin="round" d="M35.089 18.759h0c-1.016 0-1.84-.823-1.84-1.84v-6.096h3.68v6.096c0 1.017-.824 1.84-1.84 1.84z" mask="url(#prefix__b)"/>
            <path fill="#FFF" d="M38.768 26.751L47.967 26.751 47.967 17.024 38.768 17.024z" mask="url(#prefix__b)"/>
            <path stroke="#0294FE" stroke-linejoin="round" d="M38.768 26.751L47.967 26.751 47.967 17.024 38.768 17.024z" mask="url(#prefix__b)"/>
            <path fill="#FFF" d="M38.768 18.759c-1.016 0-1.84-.823-1.84-1.84v-6.096h3.68v6.096c0 1.017-.824 1.84-1.84 1.84" mask="url(#prefix__b)"/>
            <path stroke="#0294FE" stroke-linejoin="round" d="M38.768 18.759h0c-1.016 0-1.84-.823-1.84-1.84v-6.096h3.68v6.096c0 1.017-.824 1.84-1.84 1.84z" mask="url(#prefix__b)"/>
            <path fill="#FFF" d="M42.448 18.759c-1.016 0-1.84-.823-1.84-1.84v-6.096h3.68v6.096c0 1.017-.824 1.84-1.84 1.84" mask="url(#prefix__b)"/>
            <path stroke="#0294FE" stroke-linejoin="round" d="M42.448 18.759h0c-1.016 0-1.84-.823-1.84-1.84v-6.096h3.68v6.096c0 1.017-.824 1.84-1.84 1.84z" mask="url(#prefix__b)"/>
            <path fill="#FFF" d="M46.127 18.759c-1.016 0-1.84-.823-1.84-1.84v-6.096h3.68v6.096c0 1.017-.824 1.84-1.84 1.84" mask="url(#prefix__b)"/>
            <path stroke="#0294FE" stroke-linejoin="round" d="M46.127 18.759h0c-1.016 0-1.84-.823-1.84-1.84v-6.096h3.68v6.096c0 1.017-.824 1.84-1.84 1.84z" mask="url(#prefix__b)"/>
            <path fill="#FFF" d="M31.96 29.221L36.222 29.221 36.222 21.516 31.96 21.516z" mask="url(#prefix__b)"/>
            <path stroke="#0294FE" stroke-linejoin="round" d="M31.96 29.221L36.222 29.221 36.222 21.516 31.96 21.516z" mask="url(#prefix__b)"/>
            <path stroke="#0294FE" stroke-linecap="round" stroke-linejoin="round" d="M41.636 22.809L43.832 20.613M44.486 22.846L43.566 23.766" mask="url(#prefix__b)"/>
            <g mask="url(#prefix__b)">
                <g>
                    <path fill="#FFF" d="M2.546.105L.959 5.642c3.706 1.844 7.888 3.05 12.007 3.465l1.593-5.56" transform="translate(92 22)"/>
                    <path stroke="#0294FE" stroke-linejoin="round" d="M2.546.105L.959 5.642c3.706 1.844 7.888 3.05 12.007 3.465l1.593-5.56" transform="translate(92 22)"/>
                </g>
            </g>
            <path fill="#FFF" d="M90.432 18.605L102.43 17.024 111.768 24.72 99.771 26.301z" mask="url(#prefix__b)"/>
            <path stroke="#0294FE" stroke-linejoin="round" d="M90.432 18.605L102.43 17.024 111.768 24.72 99.771 26.301z" mask="url(#prefix__b)"/>
            <g mask="url(#prefix__b)">
                <g>
                    <path fill="#FFF" d="M3.619 0.662L0.597 11.207" transform="translate(89 20)"/>
                    <path stroke="#0294FE" stroke-linejoin="round" d="M3.619 0.662L0.597 11.207" transform="translate(89 20)"/>
                </g>
            </g>
            <path fill="#FFF" d="M89.447 32.925c-.111 0-.222-.016-.33-.047-.306-.088-.56-.29-.714-.568-.155-.28-.192-.601-.104-.907.146-.51.618-.867 1.147-.867.11 0 .222.016.329.047.307.088.56.29.716.569.154.279.19.6.103.908-.146.51-.618.865-1.147.865" mask="url(#prefix__b)"/>
            <path fill="#0294FE" d="M89.446 30.037c-.752 0-1.42.504-1.628 1.227-.125.435-.073.892.147 1.29.22.394.58.68 1.015.805.152.043.31.066.466.066.752 0 1.421-.505 1.628-1.228.257-.897-.263-1.837-1.16-2.095-.154-.044-.31-.065-.468-.065m0 1c.063 0 .127.008.191.026.37.107.581.491.476.86-.087.303-.365.502-.667.502-.062 0-.127-.009-.19-.028-.37-.105-.582-.489-.477-.858.087-.304.365-.502.667-.502" mask="url(#prefix__b)"/>
            <path stroke="#0294FE" stroke-linecap="round" stroke-linejoin="round" d="M101.1 21.662L101.11 21.665" mask="url(#prefix__b)"/>
        </g>
    </g>
</svg>
