<svg xmlns="http://www.w3.org/2000/svg" width="58" height="58" viewBox="0 0 58 58">
    <g fill="none" fill-rule="evenodd">
        <path fill="#F0FAFD" d="M23.674 4.477c10.437 0 18.899 8.461 18.899 18.898S34.11 42.274 23.674 42.274c-10.437 0-18.898-8.462-18.898-18.899 0-10.437 8.461-18.898 18.898-18.898"/>
        <path fill="#FFF" d="M22.676 9.302c7.772 0 14.073 6.302 14.073 14.073 0 7.773-6.3 14.074-14.073 14.074-7.773 0-14.073-6.301-14.073-14.074 0-7.771 6.3-14.073 14.073-14.073"/>
        <path fill="#F0FAFD" d="M38.142 34.47L52.33 48.658a3.092 3.092 0 0 1-4.372 4.371L33.77 38.842l4.371-4.371z"/>
        <path fill="#D5EAFB" d="M33.77 38.842l4.371-4.372 3.809 3.81-4.371 4.37z"/>
        <path fill="#93C7F1" d="M25.785 15.847a8.123 8.123 0 0 1 5.033 7.528 1.005 1.005 0 1 0 2.01 0c0-4.124-2.463-7.808-6.274-9.385a1.006 1.006 0 0 0-.769 1.857M22.676 15.233h.125a1.005 1.005 0 0 0 .014-2.01h-.14a1.006 1.006 0 1 0 0 2.01"/>
        <path fill="#D5EAFB" d="M51.423 51.687c-.79 0-1.581-.303-2.185-.906L35.534 37.077l-1.764 1.765 14.188 14.187a3.082 3.082 0 0 0 2.186.906 3.06 3.06 0 0 0 3.065-2.827c-.534.38-1.157.579-1.786.579"/>
        <path fill="#92C7F1" d="M9.895 35.965a1.004 1.004 0 1 0-1.422 1.42l.094.094a1.001 1.001 0 0 0 1.42-.008 1.006 1.006 0 0 0-.007-1.422l-.085-.084z"/>
        <path fill="#92C7F1" d="M51.618 52.319a2.07 2.07 0 0 1-1.475.61 2.07 2.07 0 0 1-1.475-.61L39 42.649l2.933-2.931.016-.018 9.67 9.669a2.09 2.09 0 0 1 0 2.95m-14.87-14.87c.499-.498.964-1.016 1.399-1.551l2.381 2.382a.258.258 0 0 0-.018.015l-2.933 2.934-2.381-2.382c.537-.436 1.055-.901 1.552-1.398m16.292 10.497L39.345 34.252c5.037-7.714 4.172-18.183-2.596-24.95-7.76-7.76-20.387-7.76-28.148 0A19.946 19.946 0 0 0 2.88 21.307c-.463 4.457.6 8.981 2.991 12.741a1.006 1.006 0 0 0 1.697-1.08c-4.46-7.007-3.426-16.363 2.457-22.244 6.976-6.978 18.328-6.978 25.304 0 6.976 6.975 6.976 18.327 0 25.304-6.018 6.017-15.514 6.96-22.58 2.24a1.004 1.004 0 1 0-1.116 1.671 19.796 19.796 0 0 0 11.017 3.332c3.82 0 7.623-1.093 10.9-3.228l3.318 3.317h.001l10.38 10.38a4.071 4.071 0 0 0 2.895 1.199 4.067 4.067 0 0 0 2.897-1.2 4.1 4.1 0 0 0 0-5.793"/>
        <path fill="#92C7F1" d="M22.676 10.308c7.205 0 13.067 5.86 13.067 13.067 0 7.206-5.862 13.069-13.067 13.069-7.206 0-13.068-5.863-13.068-13.069s5.862-13.067 13.068-13.067m0 28.146c8.314 0 15.078-6.765 15.078-15.079S30.99 8.297 22.676 8.297c-8.315 0-15.08 6.764-15.08 15.078s6.765 15.079 15.08 15.079"/>
    </g>
</svg>
