<svg xmlns="http://www.w3.org/2000/svg" xmlns:xlink="http://www.w3.org/1999/xlink" width="58" height="58" viewBox="0 0 58 58">
    <defs>
        <path id="a" d="M0 .472h51.465V51.93H0z"/>
    </defs>
    <g fill="none" fill-rule="evenodd">
        <path fill="#000" d="M9.745 35.965a1.004 1.004 0 1 0-1.422 1.42l.094.094a1.001 1.001 0 0 0 1.42-.008 1.006 1.006 0 0 0-.007-1.422l-.085-.084z"/>
        <path fill="#525762" d="M23.524 4.477c10.437 0 18.899 8.461 18.899 18.898S33.96 42.274 23.524 42.274c-10.437 0-18.898-8.462-18.898-18.899 0-10.437 8.461-18.898 18.898-18.898"/>
        <path fill="#ACABB1" d="M22.526 9.302c7.772 0 14.073 6.302 14.073 14.073 0 7.773-6.3 14.074-14.073 14.074-7.773 0-14.073-6.301-14.073-14.074 0-7.771 6.3-14.073 14.073-14.073"/>
        <path fill="#525762" d="M37.992 34.47L52.18 48.658a3.092 3.092 0 0 1-4.372 4.371L33.62 38.842l4.371-4.371z"/>
        <path fill="#ACABB1" d="M33.62 38.842l4.371-4.372 3.81 3.81-4.372 4.37z"/>
        <path fill="#000" d="M25.635 15.847a8.123 8.123 0 0 1 5.033 7.528 1.005 1.005 0 1 0 2.01 0c0-4.124-2.463-7.808-6.274-9.385a1.006 1.006 0 0 0-.769 1.857M22.526 15.233h.125a1.005 1.005 0 0 0 .014-2.01h-.14a1.006 1.006 0 1 0 0 2.01"/>
        <path fill="#333A47" d="M51.273 51.687c-.79 0-1.581-.303-2.185-.906L35.384 37.077l-1.764 1.765 14.188 14.187a3.082 3.082 0 0 0 2.186.906 3.06 3.06 0 0 0 3.065-2.827c-.534.38-1.157.579-1.786.579"/>
        <g transform="translate(2.623 3.01)">
            <mask id="b" fill="#fff">
                <use xlink:href="#a"/>
            </mask>
            <path fill="#000" d="M48.845 49.31a2.07 2.07 0 0 1-1.475.61 2.07 2.07 0 0 1-1.475-.61l-9.668-9.67 2.932-2.932.017-.018 9.67 9.669a2.09 2.09 0 0 1 0 2.95m-14.87-14.87c.499-.497.964-1.016 1.398-1.55l2.382 2.381a.258.258 0 0 0-.018.016l-2.933 2.933-2.382-2.382c.538-.435 1.056-.9 1.553-1.398m16.291 10.498L36.572 31.242c5.037-7.713 4.172-18.182-2.596-24.95-7.76-7.76-20.387-7.76-28.148 0A19.946 19.946 0 0 0 .106 18.298c-.463 4.457.6 8.98 2.991 12.74a1.006 1.006 0 0 0 1.697-1.079C.334 22.952 1.367 13.595 7.25 7.714c6.977-6.977 18.329-6.977 25.305 0 6.976 6.976 6.976 18.327 0 25.304-6.019 6.018-15.514 6.96-22.58 2.24A1.004 1.004 0 1 0 8.86 36.93a19.796 19.796 0 0 0 11.016 3.331c3.821 0 7.624-1.092 10.902-3.227l3.317 3.316v.001h.001l10.38 10.38a4.071 4.071 0 0 0 2.895 1.199 4.067 4.067 0 0 0 2.896-1.2 4.1 4.1 0 0 0 .001-5.793" mask="url(#b)"/>
        </g>
        <path fill="#000" d="M22.526 10.308c7.205 0 13.067 5.86 13.067 13.067 0 7.206-5.862 13.069-13.067 13.069-7.206 0-13.068-5.863-13.068-13.069s5.862-13.067 13.068-13.067m0 28.146c8.314 0 15.078-6.765 15.078-15.079S30.84 8.297 22.526 8.297c-8.315 0-15.079 6.764-15.079 15.078s6.764 15.079 15.079 15.079"/>
    </g>
</svg>
