<svg xmlns="http://www.w3.org/2000/svg" width="18" height="17" viewBox="0 0 18 17">
    <g fill="none" fill-rule="evenodd">
        <g>
            <g>
                <g>
                    <g>
                        <path fill="#FFAE00" d="M10.9 3.25l5.166 8.84c.613 1.049.26 2.396-.79 3.01-.337.196-.72.3-1.11.3H3.834c-1.215 0-2.2-.985-2.2-2.2 0-.39.104-.773.3-1.11l5.167-8.84c.613-1.049 1.96-1.402 3.009-.79.327.192.599.464.79.79z" transform="translate(-440 -125) translate(214 68) translate(31 43.934) translate(195 13.566)"/>
                        <text fill="#000" font-family="Baskerville-Bold, Baskerville" font-size="12.1" font-weight="bold" transform="translate(-440 -125) translate(214 68) translate(31 43.934) translate(195 13.566)">
                            <tspan x="7.095" y="12.671">!</tspan>
                        </text>
                    </g>
                </g>
            </g>
        </g>
    </g>
</svg>
